<svg xmlns="http://www.w3.org/2000/svg" xmlns:xlink="http://www.w3.org/1999/xlink" width="100" zoomAndPan="magnify" viewBox="0 0 675 675.000002" height="100" preserveAspectRatio="xMidYMid meet" version="1.0"><defs><clipPath id="02e4cc533c"><path d="M 167.363281 5.335938 L 507.617188 5.335938 L 507.617188 359.902344 L 167.363281 359.902344 Z M 167.363281 5.335938 " clip-rule="nonzero"/></clipPath><clipPath id="91861b494a"><path d="M 230 364.714844 L 441.480469 364.714844 L 441.480469 668.664062 L 230 668.664062 Z M 230 364.714844 " clip-rule="nonzero"/></clipPath></defs><g clip-path="url(#02e4cc533c)"><path fill="#ffffff" d="M 506.554688 114.917969 C 505.902344 115.890625 505.382812 116.945312 504.605469 117.828125 C 503.917969 118.777344 503.070312 119.59375 502.183594 120.363281 C 501.699219 120.695312 501.238281 121.0625 500.730469 121.363281 C 500.191406 121.59375 499.679688 121.90625 499.109375 122.074219 C 497.984375 122.410156 496.78125 122.597656 495.601562 122.441406 L 494.714844 122.339844 L 493.859375 122.101562 C 493.277344 121.972656 492.738281 121.722656 492.191406 121.484375 C 491.113281 121.003906 490.105469 120.363281 489.164062 119.65625 C 488.21875 118.953125 487.324219 118.171875 486.507812 117.324219 C 485.660156 116.507812 484.898438 115.597656 484.160156 114.6875 C 482.679688 112.855469 481.382812 110.878906 480.242188 108.824219 C 479.09375 106.769531 478.089844 104.632812 477.269531 102.417969 C 476.863281 101.308594 476.507812 100.179688 476.203125 99.03125 C 475.910156 97.878906 475.679688 96.710938 475.539062 95.519531 C 475.453125 94.320312 475.359375 93.101562 475.628906 91.863281 C 475.859375 90.664062 476.394531 89.316406 477.632812 88.550781 L 478.246094 89.589844 C 475.828125 90.960938 473.292969 92.027344 470.570312 92.679688 C 469.207031 92.96875 467.800781 93.191406 466.355469 93.074219 C 464.917969 93.042969 463.4375 92.566406 462.1875 91.734375 C 461.582031 91.28125 460.988281 90.808594 460.582031 90.167969 C 460.070312 89.597656 459.78125 88.921875 459.488281 88.25 C 459.144531 87.570312 458.992188 86.914062 458.777344 86.28125 C 458.566406 85.644531 458.375 84.988281 458.191406 84.328125 C 457.429688 81.691406 456.792969 79.078125 456.144531 76.441406 C 453.636719 65.910156 451.453125 55.328125 449.367188 44.714844 L 451.339844 45.328125 C 448.484375 48.109375 445.433594 50.542969 442.03125 52.617188 C 438.644531 54.625 434.851562 56.433594 430.5 56.398438 C 428.347656 56.386719 426.105469 55.691406 424.320312 54.382812 C 423.84375 54.085938 423.472656 53.6875 423.050781 53.335938 L 422.003906 52.324219 L 419.941406 50.328125 C 417.179688 47.699219 414.363281 45.113281 411.425781 42.6875 C 408.5 40.246094 405.492188 37.90625 402.390625 35.695312 C 400.835938 34.597656 399.285156 33.492188 397.679688 32.46875 C 396.101562 31.402344 394.492188 30.390625 392.851562 29.421875 C 391.238281 28.414062 389.578125 27.480469 387.910156 26.566406 C 386.261719 25.613281 384.566406 24.757812 382.863281 23.90625 C 381.179688 23.019531 379.453125 22.226562 377.714844 21.449219 L 375.121094 20.265625 L 372.476562 19.195312 C 368.972656 17.722656 365.375 16.480469 361.765625 15.296875 L 356.363281 13.664062 L 350.753906 12.292969 C 347.027344 11.539062 343.398438 10.835938 339.597656 10.433594 L 336.777344 10.082031 L 333.941406 9.871094 C 332.046875 9.742188 330.160156 9.554688 328.257812 9.539062 C 324.464844 9.378906 320.664062 9.40625 316.867188 9.523438 C 313.066406 9.667969 309.273438 9.921875 305.492188 10.308594 C 301.710938 10.710938 297.933594 11.179688 294.191406 11.824219 C 290.460938 12.457031 286.679688 13.195312 283.105469 14.113281 L 283.488281 9.890625 C 286.941406 11.640625 290.144531 13.433594 293.101562 16.46875 C 293.816406 17.257812 294.53125 18.15625 295.042969 19.40625 C 295.5625 20.597656 295.734375 22.4375 295 23.871094 C 294.300781 25.304688 293.300781 26.121094 292.3125 26.808594 L 290.042969 28.273438 C 286.832031 30.273438 283.621094 31.984375 280.363281 33.628906 L 270.679688 38.410156 C 264.332031 41.605469 258.328125 45.234375 253.269531 49.914062 C 251.90625 51.152344 250.71875 52.332031 249.515625 53.589844 C 248.3125 54.851562 247.148438 56.160156 246.019531 57.5 C 243.765625 60.183594 241.667969 63.015625 239.675781 65.941406 C 237.679688 68.863281 235.785156 71.882812 233.917969 74.9375 C 232.085938 77.964844 230.121094 81.171875 228.402344 84.113281 C 226.828125 86.964844 225.722656 90.335938 224.523438 93.714844 C 223.335938 97.109375 222.191406 100.585938 220.648438 104.042969 C 219.863281 105.765625 219.03125 107.496094 217.917969 109.179688 C 216.785156 110.835938 215.523438 112.554688 213.542969 113.851562 L 213.195312 114.105469 L 213.105469 114.164062 L 213.0625 114.199219 L 212.910156 114.285156 L 212.761719 114.367188 L 212.164062 114.6875 C 211.699219 114.90625 211.019531 115.210938 210.507812 115.371094 C 209.441406 115.746094 208.34375 115.925781 207.25 116.042969 C 205.066406 116.199219 202.917969 115.925781 200.921875 115.296875 C 198.917969 114.6875 197.046875 113.746094 195.339844 112.546875 C 194.808594 112.167969 194.59375 111.988281 194.167969 111.65625 C 193.761719 111.3125 193.34375 110.96875 192.988281 110.632812 C 192.246094 109.957031 191.5625 109.242188 190.90625 108.515625 C 188.300781 105.574219 186.335938 102.351562 184.445312 99.28125 L 189.378906 98.277344 C 189.285156 99.046875 189.277344 100.261719 189.304688 101.375 L 189.414062 104.859375 L 189.671875 111.96875 C 189.734375 114.359375 189.757812 116.761719 189.699219 119.1875 C 189.632812 121.613281 189.492188 124.0625 189.136719 126.566406 C 188.957031 127.816406 188.710938 129.085938 188.351562 130.378906 C 187.984375 131.671875 187.484375 133.011719 186.648438 134.367188 C 185.835938 135.695312 184.265625 137.214844 182.207031 137.644531 C 180.171875 138.070312 178.4375 137.53125 177.042969 136.953125 C 176.375 136.601562 175.792969 136.324219 175.089844 135.878906 C 174.710938 135.640625 173.816406 134.976562 173.355469 134.519531 C 172.269531 133.507812 171.386719 132.367188 170.671875 131.207031 C 169.238281 128.875 168.351562 126.488281 167.527344 124.242188 L 172.914062 123.3125 C 172.9375 136.65625 173.425781 150.191406 175.667969 163.152344 C 177.972656 176.1875 181.984375 188.9375 187.015625 201.253906 C 192.058594 213.589844 198.355469 225.414062 205.195312 236.917969 C 212.035156 248.4375 219.625 259.472656 227.433594 270.472656 C 243.015625 292.546875 258.191406 314.914062 272.640625 337.78125 C 274.441406 340.597656 276.246094 343.605469 277.996094 346.296875 C 279.648438 348.648438 281.957031 350.785156 284.558594 352.226562 C 287.175781 353.679688 290.121094 354.535156 293.113281 354.722656 C 294.523438 354.785156 296.375 354.734375 298.015625 354.734375 L 303.074219 354.707031 L 343.550781 354.527344 L 384.027344 354.449219 C 385.722656 354.433594 387.429688 354.488281 388.910156 354.335938 C 390.367188 354.191406 391.914062 353.867188 393.347656 353.382812 C 396.246094 352.410156 398.929688 350.777344 401.121094 348.621094 C 402.25 347.527344 403.132812 346.402344 404.109375 345.011719 C 405.078125 343.636719 406.066406 342.261719 407.085938 340.886719 C 409.113281 338.144531 411.164062 335.449219 413.261719 332.789062 C 421.621094 322.132812 430.28125 311.855469 437.703125 300.695312 C 445.234375 289.546875 452.414062 278.15625 459.214844 266.539062 C 466 254.894531 472.542969 243.164062 478.578125 231.097656 C 484.585938 219.074219 490.148438 206.785156 494.722656 194.136719 C 499.269531 181.484375 502.929688 168.484375 505.109375 155.199219 C 507.230469 141.917969 507.878906 128.355469 506.554688 114.917969 C 508.1875 128.320312 507.882812 141.941406 506.039062 155.34375 C 504.082031 168.730469 500.632812 181.875 496.277344 194.6875 C 491.898438 207.5 486.527344 219.933594 480.691406 232.152344 C 474.84375 244.308594 468.523438 256.316406 461.808594 268.039062 C 455.097656 279.78125 448.003906 291.308594 440.554688 302.597656 C 433.144531 314.007812 424.488281 324.5 416.3125 335.152344 C 414.265625 337.816406 412.257812 340.507812 410.300781 343.214844 C 409.328125 344.558594 408.363281 345.933594 407.40625 347.324219 C 406.460938 348.707031 405.277344 350.265625 403.984375 351.527344 C 401.390625 354.128906 398.191406 356.132812 394.707031 357.34375 C 392.953125 357.949219 391.179688 358.355469 389.285156 358.558594 C 387.40625 358.757812 385.734375 358.707031 384.058594 358.742188 L 343.585938 359.253906 L 303.109375 359.664062 L 298.050781 359.710938 C 296.316406 359.710938 294.796875 359.78125 292.835938 359.707031 C 289.089844 359.492188 285.398438 358.433594 282.113281 356.621094 C 278.8125 354.78125 276.011719 352.265625 273.78125 349.105469 C 271.84375 346.148438 270.171875 343.371094 268.328125 340.507812 C 253.867188 317.800781 238.652344 295.546875 223.039062 273.585938 C 215.1875 262.613281 207.429688 251.425781 200.449219 239.765625 C 193.464844 228.105469 186.992188 216.066406 181.773438 203.433594 C 176.550781 190.8125 172.371094 177.679688 170.054688 164.117188 C 167.761719 150.449219 167.347656 136.902344 167.363281 123.285156 C 167.363281 121.757812 168.609375 120.515625 170.140625 120.515625 C 171.339844 120.515625 172.363281 121.289062 172.75 122.355469 C 173.535156 124.539062 174.328125 126.597656 175.371094 128.296875 C 175.886719 129.144531 176.472656 129.878906 177.113281 130.480469 C 177.503906 130.839844 177.554688 130.890625 178.160156 131.304688 C 178.449219 131.488281 178.933594 131.726562 179.304688 131.933594 C 180.070312 132.253906 180.714844 132.359375 181.011719 132.289062 C 181.289062 132.230469 181.621094 132.046875 182.050781 131.390625 C 182.875 130.0625 183.441406 127.917969 183.742188 125.773438 C 184.058594 123.601562 184.203125 121.328125 184.273438 119.042969 C 184.339844 116.75 184.324219 114.429688 184.269531 112.101562 L 184.039062 105.058594 L 183.9375 101.464844 C 183.929688 100.222656 183.890625 99.070312 184.082031 97.492188 C 184.257812 96.039062 185.578125 95.007812 187.03125 95.183594 C 187.867188 95.285156 188.5625 95.757812 188.972656 96.421875 L 189.015625 96.492188 C 190.878906 99.554688 192.703125 102.519531 194.882812 104.988281 C 197.074219 107.46875 199.5625 109.390625 202.480469 110.253906 C 205.355469 111.171875 208.46875 111.03125 210.625 109.503906 C 212.789062 108.070312 214.503906 104.976562 215.898438 101.921875 C 217.3125 98.796875 218.449219 95.417969 219.652344 92.015625 C 220.875 88.625 222.011719 85.09375 223.925781 81.621094 C 225.851562 78.351562 227.671875 75.414062 229.582031 72.277344 C 231.484375 69.191406 233.433594 66.109375 235.511719 63.089844 C 237.589844 60.066406 239.796875 57.101562 242.1875 54.273438 C 243.382812 52.863281 244.625 51.480469 245.910156 50.140625 C 247.199219 48.796875 248.585938 47.445312 249.890625 46.265625 C 255.457031 41.148438 261.953125 37.296875 268.46875 34.042969 L 278.195312 29.285156 C 281.386719 27.714844 284.554688 26.058594 287.488281 24.28125 L 289.769531 22.835938 C 290.261719 22.511719 290.664062 22.101562 290.753906 21.894531 C 290.859375 21.699219 290.859375 21.578125 290.710938 21.121094 C 290.554688 20.691406 290.167969 20.117188 289.679688 19.582031 C 287.640625 17.386719 284.507812 15.46875 281.558594 13.96875 L 281.460938 13.921875 C 280.359375 13.363281 279.917969 12.015625 280.476562 10.914062 C 280.785156 10.3125 281.335938 9.902344 281.941406 9.753906 C 285.832031 8.800781 289.621094 8.105469 293.484375 7.496094 C 297.335938 6.867188 301.203125 6.433594 305.082031 6.058594 C 308.957031 5.707031 312.847656 5.488281 316.742188 5.378906 C 320.636719 5.304688 324.535156 5.316406 328.429688 5.519531 C 330.382812 5.558594 332.324219 5.769531 334.269531 5.925781 L 337.183594 6.175781 L 340.089844 6.566406 C 343.941406 7.011719 347.871094 7.8125 351.671875 8.628906 L 357.265625 10.0625 L 362.894531 11.824219 C 366.582031 13.074219 370.253906 14.386719 373.828125 15.933594 L 376.523438 17.058594 L 379.167969 18.300781 C 380.9375 19.113281 382.695312 19.949219 384.410156 20.871094 C 386.140625 21.761719 387.867188 22.660156 389.542969 23.648438 C 391.242188 24.601562 392.929688 25.570312 394.566406 26.621094 C 396.230469 27.628906 397.867188 28.683594 399.46875 29.789062 C 401.097656 30.851562 402.667969 31.996094 404.242188 33.136719 C 407.386719 35.429688 410.433594 37.84375 413.382812 40.371094 C 416.355469 42.875 419.191406 45.527344 421.972656 48.234375 L 424.035156 50.273438 L 425.046875 51.285156 C 425.367188 51.546875 425.640625 51.878906 425.988281 52.089844 C 427.300781 53.078125 428.886719 53.613281 430.582031 53.664062 C 434.003906 53.773438 437.546875 52.285156 440.738281 50.441406 C 443.941406 48.566406 446.988281 46.214844 449.6875 43.675781 L 449.71875 43.648438 C 450.1875 43.210938 450.925781 43.230469 451.363281 43.699219 C 451.523438 43.867188 451.621094 44.074219 451.664062 44.292969 C 453.558594 54.90625 455.554688 65.519531 457.867188 76.042969 C 458.460938 78.664062 459.0625 81.304688 459.753906 83.871094 C 459.921875 84.515625 460.097656 85.160156 460.296875 85.808594 C 460.503906 86.457031 460.652344 87.125 460.925781 87.652344 C 461.167969 88.222656 461.390625 88.804688 461.796875 89.246094 C 462.109375 89.78125 462.578125 90.144531 463.042969 90.519531 C 464.019531 91.179688 465.191406 91.613281 466.457031 91.660156 C 467.707031 91.792969 469.007812 91.609375 470.28125 91.359375 C 472.824219 90.808594 475.335938 89.800781 477.636719 88.550781 L 477.65625 88.539062 C 477.949219 88.382812 478.316406 88.488281 478.472656 88.78125 C 478.628906 89.070312 478.527344 89.425781 478.246094 89.589844 C 477.425781 90.066406 476.964844 91.054688 476.746094 92.097656 C 476.492188 93.148438 476.554688 94.289062 476.617188 95.414062 C 476.730469 96.542969 476.933594 97.667969 477.191406 98.78125 C 477.472656 99.898438 477.796875 101 478.171875 102.09375 C 478.941406 104.265625 479.882812 106.386719 480.960938 108.433594 C 482.035156 110.480469 483.265625 112.449219 484.675781 114.285156 C 485.382812 115.195312 486.105469 116.101562 486.917969 116.925781 C 487.703125 117.777344 488.554688 118.558594 489.460938 119.265625 C 490.363281 119.980469 491.332031 120.625 492.367188 121.113281 C 492.886719 121.355469 493.402344 121.613281 493.960938 121.75 L 494.789062 121.996094 L 495.636719 122.113281 C 496.773438 122.296875 497.933594 122.136719 499.035156 121.835938 C 499.59375 121.691406 500.097656 121.394531 500.632812 121.183594 C 501.136719 120.90625 501.597656 120.546875 502.085938 120.234375 C 502.972656 119.496094 503.832031 118.707031 504.539062 117.78125 C 505.335938 116.921875 505.878906 115.875 506.554688 114.917969 " fill-opacity="1" fill-rule="nonzero"/></g><g clip-path="url(#91861b494a)"><path fill="#ffffff" d="M 335.867188 664.777344 L 336.464844 664.785156 L 337.347656 664.742188 C 410.609375 663.5625 423.871094 656.929688 428.230469 654.753906 C 433.421875 652.15625 432.5 648.015625 432.378906 647.550781 L 430.226562 635.234375 C 429.484375 630.96875 426.929688 627.246094 423.214844 625.015625 C 418.785156 622.355469 415.621094 617.929688 414.539062 612.875 L 413.699219 608.960938 C 412.058594 601.3125 415.347656 593.40625 421.878906 589.289062 C 424.371094 587.71875 426.628906 585.929688 428.585938 583.972656 C 433.441406 579.117188 435.78125 573.476562 436.746094 570.546875 C 437.222656 569.089844 437.453125 567.515625 437.429688 565.875 C 437.34375 559.582031 436.925781 542.980469 434.894531 524.6875 C 434.421875 520.4375 423.285156 420.382812 419.492188 401.433594 C 418.132812 394.648438 415.847656 386.75 412.878906 378.597656 C 410.734375 372.703125 405.113281 368.765625 398.867188 368.765625 C 398.835938 368.765625 398.804688 368.765625 398.773438 368.765625 L 335.675781 369.175781 L 272.554688 368.765625 C 272.519531 368.765625 272.488281 368.765625 272.457031 368.765625 C 266.214844 368.765625 260.589844 372.703125 258.449219 378.59375 C 255.476562 386.75 253.191406 394.648438 251.835938 401.433594 C 248.042969 420.382812 236.90625 520.4375 236.433594 524.6875 C 234.398438 542.988281 233.980469 559.582031 233.894531 565.875 C 233.871094 567.515625 234.101562 569.089844 234.582031 570.546875 C 235.542969 573.476562 237.882812 579.117188 242.738281 583.972656 C 244.695312 585.929688 246.953125 587.71875 249.449219 589.289062 C 255.980469 593.40625 259.265625 601.3125 257.628906 608.960938 L 256.789062 612.875 C 255.703125 617.933594 252.542969 622.355469 248.109375 625.015625 C 244.394531 627.246094 241.839844 630.96875 241.097656 635.234375 L 238.941406 647.570312 C 238.824219 648.015625 237.90625 652.15625 243.097656 654.753906 C 247.457031 656.929688 260.71875 663.5625 333.980469 664.742188 Z M 332.03125 668.664062 L 332.03125 668.550781 C 267.117188 667.40625 249.207031 662.097656 241.378906 658.1875 C 234.921875 654.957031 234.519531 649.277344 235.222656 646.625 L 237.316406 634.578125 C 238.25 629.210938 241.460938 624.527344 246.132812 621.726562 C 249.660156 619.609375 252.171875 616.09375 253.035156 612.074219 L 253.875 608.15625 C 255.179688 602.074219 252.578125 595.800781 247.402344 592.539062 C 244.667969 590.816406 242.183594 588.84375 240.027344 586.6875 C 234.878906 581.539062 232.242188 575.71875 230.933594 571.742188 C 230.324219 569.882812 230.027344 567.890625 230.054688 565.820312 C 230.144531 559.480469 230.566406 542.730469 232.617188 524.265625 C 233.089844 520.007812 244.25 419.792969 248.070312 400.675781 C 249.484375 393.605469 251.761719 385.734375 254.839844 377.28125 C 257.535156 369.878906 264.605469 364.925781 272.457031 364.925781 C 272.5 364.925781 272.539062 364.925781 272.578125 364.925781 L 335.675781 365.335938 L 398.75 364.925781 C 406.613281 364.855469 413.777344 369.839844 416.484375 377.28125 C 419.5625 385.734375 421.839844 393.605469 423.257812 400.675781 C 427.078125 419.792969 438.234375 520.007812 438.707031 524.265625 C 440.761719 542.722656 441.183594 559.476562 441.269531 565.820312 C 441.296875 567.886719 441.003906 569.882812 440.390625 571.742188 C 439.085938 575.722656 436.445312 581.539062 431.300781 586.6875 C 429.140625 588.84375 426.660156 590.816406 423.921875 592.539062 C 418.75 595.800781 416.148438 602.074219 417.449219 608.15625 L 418.292969 612.074219 C 419.152344 616.09375 421.667969 619.609375 425.191406 621.726562 C 429.863281 624.527344 433.078125 629.210938 434.007812 634.578125 L 436.105469 646.625 C 436.808594 649.277344 436.40625 654.957031 429.945312 658.1875 C 422.121094 662.097656 404.207031 667.40625 339.296875 668.550781 L 339.296875 668.609375 L 337.347656 668.636719 L 335.632812 668.609375 L 332.03125 668.664062 " fill-opacity="1" fill-rule="nonzero"/></g><path fill="#ffffff" d="M 265.378906 599.046875 C 265.378906 599.046875 269.667969 600.757812 268.808594 606.757812 C 267.953125 612.757812 267.09375 617.902344 267.09375 617.902344 C 267.09375 617.902344 268.808594 623.898438 275.664062 623.898438 C 282.523438 623.898438 311.664062 626.46875 311.664062 626.46875 C 311.664062 626.46875 297.949219 621.328125 297.949219 612.757812 C 297.949219 604.1875 298.808594 601.617188 298.808594 601.617188 L 265.378906 599.046875 " fill-opacity="1" fill-rule="nonzero"/><path fill="#ffffff" d="M 258.523438 630.757812 C 258.523438 630.757812 250.808594 632.472656 249.097656 638.472656 C 247.382812 644.46875 247.382812 650.46875 247.382812 650.46875 C 247.382812 650.46875 259.382812 655.613281 278.238281 657.328125 C 297.09375 659.042969 308.234375 659.042969 308.234375 659.042969 C 308.234375 659.042969 287.664062 657.328125 287.664062 649.613281 C 287.664062 641.898438 295.378906 632.472656 295.378906 632.472656 L 258.523438 630.757812 " fill-opacity="1" fill-rule="nonzero"/><path fill="#ffffff" d="M 327.125 634.101562 C 322.917969 634.28125 319.277344 635.757812 318.519531 641.042969 C 317.664062 647.042969 317.664062 655.613281 317.664062 655.613281 C 317.664062 655.613281 320.234375 659.898438 338.234375 659.898438 C 356.234375 659.898438 386.230469 658.183594 386.230469 658.183594 C 386.230469 658.183594 358.828125 658.183594 358.804688 653.046875 C 358.773438 645.71875 360.097656 638.042969 366.578125 633.617188 C 357.023438 635.046875 347.320312 635.476562 337.675781 634.910156 C 334.703125 634.738281 330.710938 633.953125 327.125 634.101562 " fill-opacity="1" fill-rule="nonzero"/><path fill="#ffffff" d="M 322.808594 601.617188 L 322.808594 617.902344 C 322.808594 617.902344 322.808594 623.042969 331.378906 623.898438 C 339.949219 624.757812 372.519531 624.757812 372.519531 624.757812 C 372.519531 624.757812 353.660156 622.1875 352.804688 616.1875 C 351.949219 610.1875 354.519531 600.757812 354.519531 600.757812 L 322.808594 601.617188 " fill-opacity="1" fill-rule="nonzero"/><path fill="#ffffff" d="M 419.285156 597.839844 C 419.285156 597.839844 409.71875 599.324219 395.328125 600.957031 C 388.132812 601.765625 379.722656 602.609375 370.6875 603.257812 C 366.171875 603.585938 361.492188 603.839844 356.734375 604.019531 C 354.355469 604.117188 351.953125 604.132812 349.542969 604.195312 C 347.128906 604.1875 344.707031 604.199219 342.285156 604.148438 C 332.65625 603.941406 323.011719 603.507812 314.003906 603.035156 C 304.988281 602.5625 296.582031 602.035156 289.378906 601.558594 C 274.972656 600.597656 265.378906 599.824219 265.378906 599.824219 C 265.378906 599.824219 274.996094 600.238281 289.421875 600.660156 C 296.636719 600.867188 305.050781 601.078125 314.066406 601.214844 C 323.089844 601.351562 332.683594 601.421875 342.300781 601.269531 C 344.6875 601.230469 347.078125 601.128906 349.453125 601.046875 C 351.832031 600.898438 354.199219 600.792969 356.550781 600.609375 C 361.25 600.253906 365.871094 599.832031 370.335938 599.339844 C 379.265625 598.363281 387.582031 597.210938 394.691406 596.140625 C 408.921875 593.988281 418.316406 592.164062 418.316406 592.164062 L 419.285156 597.839844 " fill-opacity="1" fill-rule="nonzero"/><path fill="#ffffff" d="M 414.097656 628.363281 C 414.097656 628.363281 411.757812 628.964844 407.632812 629.871094 C 403.507812 630.765625 397.597656 631.972656 390.460938 633.148438 C 386.894531 633.75 383.023438 634.378906 378.910156 634.910156 C 374.800781 635.472656 370.464844 636.054688 365.957031 636.480469 C 361.449219 636.921875 356.78125 637.386719 352.019531 637.636719 C 347.261719 637.902344 342.402344 638.0625 337.53125 638.089844 C 332.742188 638.046875 327.878906 637.953125 323.144531 637.820312 C 318.402344 637.730469 313.742188 637.433594 309.230469 637.222656 C 304.722656 637.019531 300.367188 636.699219 296.238281 636.398438 C 292.113281 636.121094 288.214844 635.777344 284.617188 635.4375 C 270.226562 634.140625 260.675781 632.644531 260.675781 632.644531 C 260.675781 632.644531 270.328125 632.203125 284.757812 632.136719 C 291.972656 632.070312 300.382812 632.085938 309.382812 632.160156 C 313.882812 632.195312 318.53125 632.226562 323.253906 632.265625 C 327.980469 632.332031 332.734375 632.347656 337.558594 632.335938 C 342.304688 632.375 347.0625 632.289062 351.753906 632.089844 C 356.445312 631.867188 361.074219 631.730469 365.554688 631.441406 C 370.035156 631.167969 374.371094 630.902344 378.480469 630.652344 C 382.59375 630.378906 386.484375 630.121094 390.078125 629.882812 C 404.449219 628.882812 414.097656 628.363281 414.097656 628.363281 " fill-opacity="1" fill-rule="nonzero"/><path fill="#ffffff" d="M 389.660156 623.042969 C 389.660156 623.042969 396.589844 621.964844 403.316406 620.296875 C 406.679688 619.476562 409.980469 618.507812 412.335938 617.636719 C 413.503906 617.1875 414.476562 616.820312 415.101562 616.511719 C 415.742188 616.21875 416.101562 616.054688 416.101562 616.054688 L 418.070312 621.460938 C 418.070312 621.460938 417.609375 621.566406 416.800781 621.75 C 415.992188 621.957031 414.855469 622.132812 413.5 622.347656 C 410.792969 622.75 407.242188 623.027344 403.710938 623.148438 C 396.644531 623.410156 389.660156 623.042969 389.660156 623.042969 " fill-opacity="1" fill-rule="nonzero"/><path fill="#ffffff" d="M 209.523438 223.296875 C 209.316406 216.734375 209.109375 210.167969 208.90625 203.605469 C 214.484375 213.65625 221.378906 222.976562 229.351562 231.257812 C 221.402344 202.761719 213.382812 173.65625 214.847656 144.109375 C 219.621094 165.574219 229.917969 185.785156 244.46875 202.265625 C 244.699219 195.625 244.925781 188.988281 245.152344 182.347656 C 251.09375 188.199219 256.128906 194.972656 260.019531 202.351562 C 258.476562 176.035156 261.492188 149.460938 268.890625 124.160156 C 269.328125 186.925781 282.105469 249.585938 306.277344 307.507812 C 295.796875 283.347656 285.316406 259.183594 274.835938 235.019531 C 274.761719 244.671875 276.253906 254.335938 279.246094 263.515625 C 267.90625 249.738281 258.929688 234.015625 252.835938 217.242188 C 257.445312 233.855469 262.058594 250.476562 266.667969 267.09375 C 256.277344 256.785156 247.316406 245.039062 240.117188 232.292969 C 245.980469 252.355469 253.835938 271.839844 263.535156 290.351562 C 251.3125 276.097656 240.054688 261.019531 229.863281 245.246094 C 232.683594 257.734375 237.042969 269.878906 242.808594 281.308594 C 215.375 253.132812 201.886719 215.179688 186.339844 179.882812 C 188.863281 186.664062 192.121094 193.171875 195.484375 199.566406 C 198.359375 205.027344 209.523438 217.773438 209.523438 223.296875 " fill-opacity="1" fill-rule="nonzero"/><path fill="#ffffff" d="M 282.808594 159.3125 C 287.371094 190.675781 293.460938 221.820312 301.050781 252.589844 C 301.480469 244.902344 302.65625 237.25 304.554688 229.785156 C 309.855469 241.136719 313.925781 253.0625 316.664062 265.289062 C 322.910156 249.699219 327.773438 233.558594 331.171875 217.109375 C 333.257812 250.863281 334.144531 284.691406 333.839844 318.511719 C 346.21875 282.59375 356.039062 245.792969 363.199219 208.492188 C 366.207031 221.59375 367.695312 235.050781 367.628906 248.5 C 381.046875 211.964844 387.011719 172.71875 385.042969 133.851562 C 383.664062 151.097656 379.5 168.117188 372.761719 184.050781 C 373.1875 177.164062 372.351562 170.199219 370.316406 163.605469 C 368.269531 170.589844 365.195312 177.269531 361.21875 183.363281 C 357.476562 163.734375 356.238281 143.636719 357.535156 123.699219 C 349.460938 154.867188 343.355469 186.542969 339.269531 218.480469 C 339.007812 198.777344 337.535156 179.089844 334.863281 159.5625 C 332.183594 171.3125 328.210938 182.761719 323.03125 193.640625 C 318.730469 183.839844 315.917969 173.386719 314.730469 162.753906 C 309.691406 181.765625 306.851562 201.363281 306.28125 221.023438 C 299.132812 206.855469 295.617188 191.179688 292.164062 175.6875 C 288.265625 158.199219 284.367188 140.707031 280.46875 123.214844 C 281.390625 150.574219 284.460938 177.851562 289.644531 204.730469 L 282.808594 159.3125 " fill-opacity="1" fill-rule="nonzero"/><path fill="#ffffff" d="M 391.636719 183.402344 C 386.546875 211.902344 381.464844 240.402344 376.378906 268.902344 C 381.175781 257.949219 385.972656 246.996094 390.773438 236.046875 C 390.3125 240.324219 389.851562 244.601562 389.394531 248.882812 C 398.527344 239.464844 406.078125 228.519531 411.636719 216.632812 C 412.101562 231.003906 410.167969 245.453125 405.9375 259.195312 C 415.046875 248.554688 424.152344 237.914062 433.261719 227.277344 C 432.183594 237.898438 429.886719 248.398438 426.4375 258.507812 C 430.832031 254.226562 435.226562 249.953125 439.621094 245.667969 C 433.308594 272.046875 422.84375 297.429688 408.734375 320.59375 C 448.683594 272.210938 481.710938 216.21875 492.578125 154.421875 C 483.964844 178.683594 472.359375 201.878906 458.109375 223.320312 C 461.683594 212.371094 464.132812 201.058594 465.414062 189.613281 C 458.59375 203.949219 450.4375 217.644531 441.078125 230.46875 C 444.890625 212.289062 446.535156 193.660156 445.964844 175.097656 C 443.992188 191.929688 431.878906 205.550781 420.347656 217.964844 C 423.714844 203.101562 424.917969 187.746094 423.894531 172.539062 C 414.53125 189.242188 402.914062 204.675781 389.460938 218.300781 C 396.398438 191.332031 398.761719 163.199219 396.417969 135.449219 C 394.199219 158.308594 391.976562 181.160156 389.757812 204.015625 L 391.636719 183.402344 " fill-opacity="1" fill-rule="nonzero"/><path fill="#ffffff" d="M 278.929688 99.269531 C 278.929688 99.269531 278.761719 98.203125 278.46875 96.34375 C 278.179688 94.484375 277.789062 91.8125 277.429688 88.597656 C 277.039062 85.386719 276.71875 81.617188 276.449219 77.570312 C 276.203125 73.523438 276.066406 69.195312 276.046875 64.859375 C 276.058594 60.523438 276.1875 56.183594 276.421875 52.113281 C 276.6875 48.046875 277 44.25 277.386719 41.003906 C 277.746094 37.757812 278.132812 35.058594 278.421875 33.171875 C 278.714844 31.285156 278.882812 30.207031 278.882812 30.207031 L 284.519531 31.382812 C 284.519531 31.382812 284.269531 32.417969 283.832031 34.222656 C 283.394531 36.027344 282.800781 38.617188 282.1875 41.75 C 281.542969 44.878906 280.929688 48.554688 280.335938 52.507812 C 279.773438 56.46875 279.292969 60.714844 278.921875 64.972656 C 278.585938 69.238281 278.363281 73.515625 278.269531 77.535156 C 278.203125 81.554688 278.203125 85.3125 278.328125 88.535156 C 278.417969 91.753906 278.582031 94.433594 278.714844 96.316406 C 278.851562 98.191406 278.929688 99.269531 278.929688 99.269531 " fill-opacity="1" fill-rule="nonzero"/><path fill="#ffffff" d="M 412.277344 154.308594 C 412.277344 154.308594 412.519531 153.191406 412.9375 151.242188 C 413.394531 149.292969 413.933594 146.511719 414.597656 143.167969 C 414.945312 141.503906 415.265625 139.6875 415.597656 137.761719 C 415.945312 135.84375 416.207031 133.804688 416.570312 131.710938 C 417.183594 127.503906 417.773438 123.011719 418.222656 118.5 C 418.671875 113.992188 418.980469 109.472656 419.207031 105.230469 C 419.269531 103.105469 419.414062 101.050781 419.449219 99.101562 C 419.507812 97.152344 419.550781 95.3125 419.539062 93.605469 C 419.546875 90.203125 419.570312 87.351562 419.507812 85.363281 C 419.480469 83.371094 419.46875 82.230469 419.46875 82.230469 C 419.46875 82.230469 419.617188 83.359375 419.878906 85.335938 C 420.007812 86.328125 420.128906 87.535156 420.261719 88.917969 C 420.40625 90.300781 420.550781 91.867188 420.617188 93.578125 C 420.820312 96.996094 420.953125 100.996094 420.898438 105.285156 C 420.828125 107.425781 420.8125 109.640625 420.644531 111.886719 C 420.53125 114.132812 420.316406 116.410156 420.128906 118.691406 C 419.859375 120.964844 419.621094 123.238281 419.289062 125.464844 C 419.007812 127.699219 418.585938 129.875 418.230469 131.988281 C 417.433594 136.203125 416.519531 140.09375 415.648438 143.410156 C 415.242188 145.070312 414.789062 146.574219 414.375 147.90625 C 413.972656 149.242188 413.617188 150.394531 413.296875 151.34375 C 412.648438 153.226562 412.277344 154.308594 412.277344 154.308594 " fill-opacity="1" fill-rule="nonzero"/><path fill="#ffffff" d="M 327.210938 35.9375 C 327.210938 35.9375 327.132812 37.476562 326.992188 40.164062 C 326.828125 42.851562 326.597656 46.691406 326.324219 51.296875 C 326.1875 53.601562 326.039062 56.089844 325.882812 58.730469 C 325.75 61.367188 325.605469 64.148438 325.460938 67.023438 C 325.1875 72.773438 325.015625 78.90625 325.042969 85.035156 C 325.074219 88.097656 325.042969 91.164062 325.183594 94.175781 C 325.25 97.191406 325.472656 100.148438 325.660156 103.019531 C 325.945312 105.871094 326.109375 108.648438 326.441406 111.253906 C 326.75 113.871094 327.050781 116.34375 327.460938 118.609375 C 327.808594 120.882812 328.183594 122.957031 328.558594 124.789062 C 328.902344 126.628906 329.222656 128.230469 329.5625 129.53125 C 330.171875 132.152344 330.519531 133.652344 330.519531 133.652344 C 330.519531 133.652344 330.042969 132.191406 329.203125 129.628906 C 328.769531 128.347656 328.335938 126.769531 327.863281 124.949219 C 327.621094 124.042969 327.359375 123.070312 327.085938 122.054688 C 326.84375 121.027344 326.640625 119.933594 326.398438 118.804688 C 325.890625 116.542969 325.480469 114.066406 325.058594 111.445312 C 324.609375 108.824219 324.296875 106.042969 324 103.160156 C 323.769531 100.273438 323.503906 97.289062 323.394531 94.25 C 323.210938 91.214844 323.191406 88.125 323.128906 85.039062 C 323.183594 78.863281 323.445312 72.699219 323.800781 66.925781 C 324.1875 61.160156 324.761719 55.796875 325.253906 51.203125 C 325.730469 46.613281 326.289062 42.800781 326.621094 40.128906 C 326.996094 37.464844 327.210938 35.9375 327.210938 35.9375 " fill-opacity="1" fill-rule="nonzero"/><path fill="#ffffff" d="M 366.367188 318.738281 C 366.367188 318.738281 365.996094 321.324219 365.222656 325.183594 C 364.464844 329.039062 363.222656 334.152344 361.65625 339.199219 C 360.09375 344.242188 358.210938 349.207031 356.632812 352.867188 C 355.066406 356.535156 353.886719 358.933594 353.886719 358.933594 L 348.882812 356.085938 C 348.882812 356.085938 350.320312 353.96875 352.304688 350.667969 C 354.300781 347.371094 356.773438 342.847656 358.972656 338.160156 C 361.167969 333.476562 363.082031 328.636719 364.355469 324.945312 C 365.640625 321.257812 366.367188 318.738281 366.367188 318.738281 " fill-opacity="1" fill-rule="nonzero"/><path fill="#ffffff" d="M 278.230469 286.144531 C 278.230469 286.144531 280.425781 290.792969 283.722656 297.761719 C 287.046875 304.707031 291.632812 313.902344 296.832031 322.695312 C 298.164062 324.871094 299.460938 327.0625 300.851562 329.152344 C 302.191406 331.269531 303.617188 333.277344 304.972656 335.226562 C 306.386719 337.136719 307.722656 339.007812 309.09375 340.695312 C 310.449219 342.386719 311.738281 343.984375 313.003906 345.386719 C 314.226562 346.824219 315.40625 348.089844 316.476562 349.183594 C 317.527344 350.300781 318.453125 351.257812 319.261719 351.996094 C 320.84375 353.507812 321.75 354.371094 321.75 354.371094 L 317.722656 358.488281 C 317.722656 358.488281 316.835938 357.511719 315.28125 355.808594 C 314.488281 354.96875 313.589844 353.898438 312.574219 352.660156 C 311.539062 351.4375 310.402344 350.035156 309.238281 348.453125 C 308.023438 346.902344 306.808594 345.160156 305.53125 343.3125 C 304.242188 341.476562 303.003906 339.460938 301.691406 337.402344 C 300.445312 335.304688 299.132812 333.15625 297.921875 330.90625 C 296.65625 328.6875 295.5 326.367188 294.304688 324.074219 C 289.671875 314.816406 285.734375 305.292969 282.898438 298.121094 C 280.097656 290.9375 278.230469 286.144531 278.230469 286.144531 " fill-opacity="1" fill-rule="nonzero"/><path fill="#ffffff" d="M 455.417969 148.078125 C 455.417969 148.078125 455.832031 147.207031 456.558594 145.671875 C 457.28125 144.136719 458.289062 141.9375 459.421875 139.261719 C 461.714844 133.929688 464.433594 126.6875 466.671875 119.316406 C 468.90625 111.949219 470.652344 104.460938 471.691406 98.8125 C 472.230469 95.988281 472.609375 93.625 472.855469 91.96875 C 473.101562 90.316406 473.242188 89.371094 473.242188 89.371094 L 478.898438 90.429688 C 478.898438 90.429688 478.667969 91.378906 478.257812 93.054688 C 477.847656 94.722656 477.234375 97.105469 476.414062 99.933594 C 474.816406 105.601562 472.332031 113.046875 469.382812 120.28125 C 466.429688 127.519531 463.023438 134.53125 460.230469 139.652344 C 458.851562 142.21875 457.636719 144.328125 456.773438 145.789062 C 455.910156 147.25 455.417969 148.078125 455.417969 148.078125 " fill-opacity="1" fill-rule="nonzero"/><path fill="#ffffff" d="M 202.257812 187.492188 C 202.257812 187.492188 201.808594 186.242188 201.019531 184.054688 C 200.238281 181.863281 199.140625 178.714844 197.96875 174.902344 C 195.554688 167.28125 192.855469 156.945312 190.839844 146.441406 C 188.8125 135.941406 187.484375 125.300781 186.84375 117.277344 C 186.503906 113.269531 186.308594 109.917969 186.203125 107.570312 C 186.097656 105.222656 186.039062 103.882812 186.039062 103.882812 L 191.792969 103.871094 C 191.792969 103.871094 191.765625 105.1875 191.710938 107.488281 C 191.660156 109.789062 191.628906 113.082031 191.695312 117.035156 C 191.789062 124.941406 192.382812 135.492188 193.683594 145.996094 C 194.96875 156.492188 196.953125 166.925781 198.835938 174.660156 C 199.746094 178.539062 200.625 181.738281 201.253906 183.980469 C 201.890625 186.214844 202.257812 187.492188 202.257812 187.492188 " fill-opacity="1" fill-rule="nonzero"/><path fill="#ffffff" d="M 371.015625 71.949219 C 371.015625 71.949219 371.164062 68.5 371.15625 63.339844 C 371.164062 58.179688 370.921875 51.3125 370.335938 44.5 C 369.746094 37.683594 368.816406 30.929688 367.933594 25.910156 C 367.066406 20.882812 366.34375 17.570312 366.34375 17.570312 L 373.949219 16.519531 C 373.949219 16.519531 374.214844 20.019531 374.378906 25.265625 C 374.558594 30.507812 374.539062 37.496094 374.171875 44.441406 C 373.800781 51.386719 373.082031 58.285156 372.355469 63.421875 C 371.640625 68.5625 371.015625 71.949219 371.015625 71.949219 " fill-opacity="1" fill-rule="nonzero"/><path fill="#ffffff" d="M 403.511719 621.695312 C 399.734375 614.195312 398.996094 605.210938 401.507812 597.195312 C 404.074219 596.828125 406.933594 596.601562 409.496094 596.234375 C 409.921875 596.171875 410.449219 596.152344 410.679688 596.515625 C 410.855469 596.804688 410.746094 597.175781 410.636719 597.492188 C 408.097656 604.828125 408.476562 613.132812 411.664062 620.207031 C 408.875 620.449219 406.203125 620.898438 403.511719 621.695312 " fill-opacity="1" fill-rule="nonzero"/><path fill="#ffffff" d="M 402.148438 418.878906 C 401.875 412.59375 401.132812 406.332031 399.941406 400.160156 C 399.472656 397.742188 395.21875 387.15625 398.820312 386.9375 C 404.589844 386.59375 401.976562 414.960938 402.148438 418.878906 Z M 395.230469 384.1875 C 392.78125 383.441406 391.777344 379.894531 393.464844 377.976562 L 394.3125 377.257812 C 396.480469 375.902344 399.816406 377.472656 400.152344 380.007812 C 400.488281 382.542969 397.675781 384.929688 395.230469 384.1875 Z M 430.210938 531.234375 C 428.8125 515.871094 427.460938 500.507812 425.945312 485.15625 C 423.476562 460.179688 422.160156 434.089844 416.230469 409.625 C 409.375 381.339844 408.515625 368.484375 393.089844 367.628906 C 377.660156 366.769531 280.808594 367.628906 280.808594 367.628906 C 280.808594 367.628906 267.953125 368.484375 261.09375 410.480469 C 256.121094 440.949219 252.941406 471.734375 249.613281 502.410156 C 247.875 518.414062 237.789062 555.246094 250.5 568.714844 C 259.871094 578.644531 283.976562 578.199219 296.953125 580.167969 C 295.816406 580 287.605469 578.320312 286.808594 564.757812 C 285.953125 550.1875 296.238281 402.765625 297.949219 392.484375 C 299.664062 382.195312 302.234375 377.054688 306.523438 377.054688 C 310.808594 377.054688 324.519531 376.199219 324.519531 376.199219 L 315.949219 565.617188 C 315.949219 565.617188 316.808594 574.1875 321.949219 577.617188 C 327.09375 581.046875 359.660156 580.1875 359.660156 580.1875 C 359.660156 580.1875 343.378906 575.046875 357.089844 573.332031 C 366.914062 572.101562 376.742188 570.882812 386.585938 569.789062 C 395.191406 568.828125 406.273438 565.886719 414.851562 568.152344 C 417.621094 568.886719 420.269531 570.664062 421.304688 573.335938 C 425.304688 583.652344 403.433594 590.785156 396.597656 591.207031 C 410.355469 590.355469 422.535156 589.414062 428.949219 575.179688 C 435.660156 560.300781 431.617188 546.664062 430.210938 531.234375 " fill-opacity="1" fill-rule="nonzero"/><path fill="#ffffff" d="M 296.953125 580.167969 C 297.039062 580.183594 297.09375 580.1875 297.09375 580.1875 C 297.050781 580.183594 297 580.175781 296.953125 580.167969 " fill-opacity="1" fill-rule="nonzero"/><path fill="#ffffff" d="M 280.300781 342.414062 C 281.761719 338.339844 281.539062 333.691406 279.691406 329.777344 C 280.882812 334.035156 284.144531 337.664062 288.25 339.304688 C 290.078125 327.953125 281.789062 317.414062 280.722656 305.964844 C 287.054688 324.597656 297.066406 341.972656 310.007812 356.796875 C 302.652344 353.734375 293.921875 358.246094 286.367188 355.726562 C 281.546875 354.117188 278.058594 349.898438 275.542969 345.480469 C 273.761719 342.355469 272.042969 339.101562 271.042969 335.699219 C 271.535156 336.292969 279.898438 343.53125 280.300781 342.414062 " fill-opacity="1" fill-rule="nonzero"/><path fill="#ffffff" d="M 377.433594 355.703125 C 382.03125 355.75 386.6875 355.789062 391.140625 354.652344 C 398.464844 352.78125 404.722656 347.816406 409.347656 341.839844 C 413.976562 335.859375 417.132812 328.886719 419.949219 321.875 C 413.808594 330.316406 406.316406 339.542969 395.902344 340.25 C 394.863281 340.320312 393.714844 340.261719 392.941406 339.566406 C 391.566406 338.335938 392.214844 336.097656 392.964844 334.414062 C 398.410156 322.183594 403.851562 309.949219 409.296875 297.722656 C 402.105469 309.144531 395.699219 322.566406 387.128906 332.96875 C 383.304688 337.609375 372.644531 345 374.566406 332.949219 C 376.46875 321.027344 378.371094 309.105469 380.273438 297.183594 C 378.144531 309.097656 374.84375 320.800781 370.441406 332.074219 C 368.851562 336.148438 361.335938 355.820312 354.824219 355.316406 C 362.28125 355.894531 369.925781 355.632812 377.433594 355.703125 " fill-opacity="1" fill-rule="nonzero"/></svg>