<svg xmlns="http://www.w3.org/2000/svg" xmlns:xlink="http://www.w3.org/1999/xlink" width="900" zoomAndPan="magnify" viewBox="0 0 675 675.000002" height="100" preserveAspectRatio="xMidYMid meet" version="1.0"><defs><clipPath id="d7325f6aac"><path d="M 100.167969 11 L 574.964844 11 L 574.964844 664.175781 L 100.167969 664.175781 Z M 100.167969 11 " clip-rule="nonzero"/></clipPath></defs><g clip-path="url(#d7325f6aac)"><path fill="#ffffff" d="M 107.773438 658.328125 L 106.09375 661.921875 C 105.8125 662.484375 105.886719 663.011719 106.222656 663.46875 C 106.527344 663.871094 107.015625 664.113281 107.644531 664.246094 C 108.0625 664.320312 108.574219 664.359375 109.128906 664.347656 C 111.304688 664.296875 114.386719 663.550781 115.164062 662.449219 C 135.074219 634.0625 154.570312 605.273438 173.65625 576.097656 C 192.589844 547.109375 211.148438 517.769531 229.265625 488.035156 C 239.410156 472.800781 249.4375 457.46875 259.367188 442.039062 L 267.648438 434.265625 L 267.738281 434.132812 C 275.777344 421.640625 284.996094 405.941406 295.179688 388.609375 C 338.589844 314.773438 399.433594 211.253906 459.738281 200.800781 C 469.089844 199.191406 478.480469 195.308594 487.105469 189.425781 C 495.378906 183.753906 502.964844 176.238281 509.167969 167.058594 C 516.746094 155.84375 521.265625 143.632812 522.832031 131.71875 C 524.46875 119.398438 522.921875 107.382812 518.347656 97.160156 C 517.113281 94.386719 516.609375 91.875 516.660156 89.519531 C 516.703125 87.167969 517.285156 84.933594 518.214844 82.695312 C 523.671875 71.449219 530.898438 61.367188 540.078125 53.691406 C 548.269531 46.839844 558.050781 41.890625 569.546875 39.722656 C 572.4375 39.171875 573.917969 37.738281 574.335938 35.835938 C 574.695312 34.15625 574.167969 32.171875 573.015625 30.195312 C 571.933594 28.363281 570.304688 26.46875 568.394531 24.804688 C 563.628906 20.640625 557.007812 17.871094 552.507812 20.601562 C 543.535156 26.082031 534.992188 32.671875 527.085938 40.003906 C 518.679688 47.773438 510.96875 56.378906 504.128906 65.375 C 502.191406 67.949219 499.886719 69.847656 497.488281 70.886719 C 495.253906 71.867188 492.929688 72.082031 490.769531 71.378906 C 478.230469 67.273438 463.570312 69.125 450.003906 74.714844 C 435.527344 80.707031 422.257812 90.980469 414.214844 102.878906 C 405.652344 115.539062 401.738281 126.019531 400.390625 135.695312 C 399.015625 145.378906 400.222656 154.222656 401.886719 163.671875 C 405.550781 184.410156 392.191406 212.9375 371.652344 240.046875 C 354.597656 262.570312 332.625 284.058594 311.320312 299.300781 C 308.804688 269.070312 311.800781 233.339844 319.972656 203.414062 C 327.230469 176.804688 338.582031 154.851562 353.722656 145.628906 C 358.988281 142.433594 363.898438 139.246094 368.433594 135.402344 C 373.007812 131.542969 377.183594 127.042969 380.914062 121.265625 C 385.003906 114.964844 389.851562 113.832031 394.203125 112.820312 C 398.820312 111.730469 402.964844 110.773438 405.488281 104.867188 C 408.671875 97.425781 404.910156 94.03125 400.597656 90.152344 C 397.289062 87.144531 393.589844 83.800781 393.390625 77.695312 C 393 65.410156 390.09375 52.542969 384.769531 41.550781 C 379.933594 31.582031 373.105469 23.113281 364.34375 17.945312 L 364.320312 17.9375 C 360.433594 15.71875 356.496094 14.125 352.601562 13.113281 C 339.535156 9.691406 326.714844 12.660156 315.5 19.402344 C 304.378906 26.101562 294.835938 36.5625 288.222656 48.207031 C 284.703125 54.363281 282.015625 60.839844 280.335938 67.296875 C 277.539062 78.023438 276.902344 88.691406 278.117188 98.652344 C 279.378906 109.007812 282.660156 118.609375 287.625 126.707031 C 300.71875 148.066406 302.140625 179.84375 297.421875 215.484375 C 292.691406 251.296875 281.746094 290.996094 270.210938 328.007812 C 269.148438 329.375 268.574219 330.425781 267.765625 331.949219 L 100.734375 653.179688 C 100.1875 654.25 100.894531 657.617188 101.820312 659.734375 C 102.058594 660.253906 102.320312 660.71875 102.582031 661.082031 C 102.972656 661.625 103.453125 661.984375 103.980469 662.054688 C 104.523438 662.140625 105.019531 661.941406 105.398438 661.445312 Z M 348.113281 32.210938 C 358.546875 35.007812 366.625 42.796875 371.21875 53.117188 C 375.84375 63.503906 376.964844 76.453125 373.488281 89.519531 L 373.46875 89.605469 C 369.96875 102.6875 362.515625 113.386719 353.3125 120.09375 C 344.167969 126.753906 333.28125 129.46875 322.851562 126.671875 C 312.398438 123.890625 304.332031 116.101562 299.734375 105.78125 C 295.101562 95.382812 293.992188 82.414062 297.472656 69.34375 L 297.484375 69.285156 C 300.988281 56.195312 308.4375 45.5 317.632812 38.800781 C 326.78125 32.144531 337.660156 29.421875 348.113281 32.210938 Z M 489.125 94.488281 C 498.039062 100.550781 503.101562 110.527344 504.078125 121.777344 C 505.050781 133.128906 501.867188 145.761719 494.277344 156.984375 L 494.25 157.042969 C 486.664062 168.242188 476.136719 175.902344 465.265625 179.214844 C 454.445312 182.519531 443.277344 181.539062 434.320312 175.488281 L 434.269531 175.441406 C 425.335938 169.382812 420.273438 159.398438 419.3125 148.167969 C 418.332031 136.820312 421.519531 124.179688 429.109375 112.953125 L 429.140625 112.902344 C 436.730469 101.695312 447.25 94.039062 458.121094 90.710938 C 468.941406 87.421875 480.109375 88.40625 489.066406 94.457031 L 489.125 94.488281 " fill-opacity="1" fill-rule="nonzero"/></g><path fill="#000000" d="M 140.285156 619.828125 C 130.753906 633.191406 121.777344 646.894531 112.417969 660.273438 C 112.09375 660.472656 111.3125 660.605469 110.5625 660.699219 L 115.597656 649.996094 C 132.914062 627.121094 156.089844 597.65625 140.285156 619.828125 " fill-opacity="1" fill-rule="evenodd"/><path fill="#000000" d="M 294.722656 262.265625 L 305.410156 263.46875 C 307.253906 263.707031 308.492188 265.351562 308.28125 267.867188 C 308.058594 274.269531 298.488281 278.53125 290.972656 281.300781 C 286.652344 282.90625 286 281.875 287.078125 277.539062 C 288.019531 273.738281 289.0625 270.003906 290.03125 266.273438 C 290.742188 263.011719 291.90625 261.9375 294.722656 262.265625 Z M 303.75 289.496094 L 283.890625 299.894531 C 277.347656 303.304688 281.601562 296.753906 285.101562 294.929688 L 305.058594 284.488281 C 310.796875 281.488281 309.300781 286.605469 303.75 289.496094 Z M 308.28125 297.074219 C 308.144531 299.332031 306.648438 302.816406 304.226562 304.160156 C 298.746094 307.742188 293.324219 310.878906 288.105469 313.453125 C 279.671875 317.515625 274.359375 322.460938 277.066406 313.671875 C 279.953125 304.007812 291.503906 301.363281 301.039062 296.527344 C 307.15625 293.421875 307.851562 290.972656 308.28125 297.074219 " fill-opacity="1" fill-rule="nonzero"/><path fill="#000000" d="M 296.277344 253.257812 C 298.859375 241.355469 301.0625 229.335938 302.667969 217.273438 C 306.511719 188.222656 307.945312 150.582031 292.042969 124.648438 C 287.269531 116.875 284.457031 107.96875 283.351562 98.949219 C 282.164062 89.214844 282.960938 79.285156 285.421875 69.796875 C 287.03125 63.636719 289.574219 57.65625 292.71875 52.132812 C 292.082031 53.132812 291.476562 54.144531 290.898438 55.15625 C 287.753906 60.695312 285.214844 66.675781 283.597656 72.835938 C 281.125 82.324219 280.347656 92.25 281.539062 101.984375 C 282.003906 105.726562 282.75 109.449219 283.816406 113.074219 C 282.210938 108.429688 281.074219 103.492188 280.449219 98.367188 C 279.269531 88.6875 279.890625 78.308594 282.605469 67.894531 C 284.246094 61.644531 286.84375 55.34375 290.25 49.367188 C 296.6875 38.046875 305.953125 27.910156 316.726562 21.421875 C 327.414062 14.976562 339.601562 12.152344 352.003906 15.378906 C 355.71875 16.355469 359.445312 17.851562 363.167969 19.976562 C 371.480469 24.898438 378.023438 33.007812 382.640625 42.582031 C 387.824219 53.273438 390.65625 65.796875 391.039062 77.765625 C 391.269531 84.882812 395.339844 88.574219 399.039062 91.902344 C 402.65625 95.179688 405.847656 98.058594 403.324219 103.945312 C 401.261719 108.761719 397.683594 109.585938 393.675781 110.527344 C 388.890625 111.644531 383.546875 112.890625 378.949219 119.992188 C 375.347656 125.554688 371.320312 129.882812 366.917969 133.609375 C 362.496094 137.34375 357.679688 140.480469 352.503906 143.632812 C 336.800781 153.183594 325.113281 175.636719 317.707031 202.785156 C 313.234375 219.148438 310.308594 237.242188 308.953125 255.246094 C 308.21875 265.191406 294.835938 259.972656 296.277344 253.257812 Z M 304.273438 245.742188 C 305.855469 232.28125 308.339844 218.84375 311.875 205.90625 C 316.675781 188.3125 325.203125 165.644531 339.28125 151.730469 C 340.710938 150.316406 335.222656 150.554688 333.964844 149.476562 C 344.214844 148.457031 354.488281 141.488281 362.210938 134.957031 C 366.65625 131.195312 370.398438 127.003906 373.550781 122.113281 C 378 115.257812 382.816406 112.902344 390.4375 111.128906 C 393.726562 110.359375 396.214844 109.953125 397.648438 106.59375 C 397.703125 106.460938 397.757812 106.324219 397.808594 106.210938 C 397.855469 106.078125 397.898438 105.957031 397.929688 105.84375 C 398.230469 101.460938 397.59375 101.59375 394.253906 98.574219 C 390.488281 95.183594 387.234375 88.378906 383.496094 99.273438 C 381.6875 94.851562 387.238281 86.589844 384.667969 75.839844 C 384.355469 79.851562 383.65625 83.839844 382.589844 87.707031 L 382.546875 87.878906 C 379.871094 97.609375 374.503906 106.457031 368.140625 114.324219 C 363.914062 119.550781 359.808594 124.929688 354.347656 128.902344 C 344.054688 136.410156 331.375 139.75 318.910156 136.414062 C 307.214844 133.289062 298.28125 124.960938 292.9375 114.328125 C 299.871094 133.453125 311.246094 143.441406 323.136719 145.589844 C 315.492188 148.203125 303.027344 137.949219 304.800781 143.289062 C 312.535156 166.859375 309.777344 189.59375 306.6875 212.820312 C 305.253906 223.753906 303.304688 234.628906 301.039062 245.429688 C 298.425781 257.820312 303.011719 256.46875 304.273438 245.742188 Z M 342.75 21.792969 C 333.417969 20.894531 324.324219 23.546875 316.113281 28.496094 C 310.339844 31.976562 305.078125 36.535156 300.507812 41.695312 C 299.164062 43.652344 297.902344 45.644531 296.746094 47.671875 C 293.609375 53.203125 291.0625 59.191406 289.457031 65.34375 C 287.078125 74.445312 286.257812 83.960938 287.269531 93.308594 C 286.71875 86.09375 287.476562 78.773438 289.382812 71.785156 L 289.417969 71.632812 C 293.019531 58.464844 300.640625 46.167969 311.753906 38.078125 C 317.792969 33.691406 324.644531 30.722656 331.765625 29.683594 C 326.324219 30.9375 321.0625 33.394531 316.257812 36.886719 C 306.675781 43.875 298.914062 54.96875 295.261719 68.511719 L 295.214844 68.675781 C 291.566406 82.300781 292.742188 95.847656 297.585938 106.738281 C 302.46875 117.707031 311.066406 125.96875 322.234375 128.949219 C 333.402344 131.9375 345 129.070312 354.695312 121.992188 C 364.285156 115.015625 372.03125 103.933594 375.703125 90.375 L 375.757812 90.207031 C 378.691406 79.199219 378.488281 68.230469 375.742188 58.703125 C 379.871094 70.359375 379.996094 83.292969 376.734375 95.191406 L 376.6875 95.355469 C 375.265625 100.578125 373.207031 105.660156 370.535156 110.40625 C 374.089844 104.816406 376.769531 98.675781 378.5 92.324219 L 378.550781 92.15625 C 382.175781 78.90625 381.613281 64.363281 375.988281 51.734375 C 370.8125 40.097656 361.484375 30.867188 349.023438 27.527344 C 336.546875 24.195312 323.882812 27.535156 313.566406 35.050781 C 311.378906 36.644531 309.3125 38.421875 307.375 40.320312 C 310.375 36.679688 313.785156 33.375 317.617188 30.585938 C 325.070312 25.164062 333.777344 21.910156 342.75 21.792969 Z M 292.40625 256.109375 C 295.496094 242.375 298.050781 228.832031 299.765625 215.792969 C 303.386719 188.46875 303.394531 163.339844 297.386719 143.25 C 305.507812 167.339844 303.96875 196.667969 300.855469 220.300781 C 299.257812 232.375 297.042969 244.382812 294.46875 256.320312 C 293.449219 261 291.101562 261.917969 292.40625 256.109375 " fill-opacity="1" fill-rule="nonzero"/><path fill="#000000" d="M 516.191406 98.113281 C 520.609375 107.941406 522.078125 119.511719 520.507812 131.425781 C 518.992188 142.972656 514.597656 154.832031 507.230469 165.742188 C 501.191406 174.65625 493.808594 181.984375 485.769531 187.476562 C 479.445312 191.808594 472.695312 195.015625 465.859375 196.996094 C 471.820312 194.992188 477.457031 192.09375 482.632812 188.566406 C 490.855469 182.953125 497.890625 175.6875 503.457031 167.453125 C 510.183594 157.507812 514.789062 146.074219 516.351562 134.148438 C 517.769531 123.375 516.695312 112.09375 512.226562 102.117188 C 510.847656 99.042969 510.066406 95.832031 510.125 92.464844 C 510.195312 89.449219 510.933594 86.617188 512.078125 83.851562 L 512.097656 83.785156 C 512.121094 83.746094 512.132812 83.707031 512.160156 83.671875 C 517.757812 72.125 525.34375 61.390625 535.25 53.113281 C 542.695312 46.890625 551.070312 42.382812 560.25 39.710938 C 552.078125 42.429688 544.875 46.621094 538.566406 51.882812 C 529.101562 59.800781 521.699219 70.148438 516.085938 81.660156 L 516.070312 81.722656 C 515.023438 84.246094 514.351562 86.785156 514.292969 89.46875 C 514.242188 92.15625 514.808594 94.996094 516.191406 98.113281 Z M 558.351562 35.640625 C 547.398438 38.277344 537.445312 43.335938 528.726562 50.617188 C 518.453125 59.191406 510.550781 70.335938 504.742188 82.328125 C 504.691406 82.425781 504.640625 82.53125 504.597656 82.640625 L 504.574219 82.695312 C 503.238281 85.878906 502.414062 89.148438 502.34375 92.597656 C 502.28125 96.496094 503.171875 100.21875 504.765625 103.765625 C 508.960938 113.140625 509.929688 123.769531 508.601562 133.890625 C 507.117188 145.265625 502.699219 156.195312 496.285156 165.6875 C 490.976562 173.554688 484.234375 180.496094 476.390625 185.863281 C 469.171875 190.796875 460.929688 194.4375 452.285156 195.921875 C 401.363281 204.734375 353.324219 273.535156 326.75 314.292969 C 311.113281 338.292969 296.539062 362.976562 282.015625 387.664062 C 273.253906 402.601562 264.582031 417.585938 255.222656 432.171875 L 228.40625 431.382812 L 247.460938 439.449219 C 247.054688 439.835938 246.75 440.222656 246.457031 440.699219 C 242.367188 447.105469 238.238281 453.472656 234.082031 459.828125 L 192.660156 481.492188 L 269.859375 333.035156 C 273.226562 326.554688 282.640625 318.773438 289.160156 315.558594 C 316.921875 301.867188 349.929688 272.625 373.527344 241.46875 C 390.820312 218.640625 403.09375 194.722656 404.65625 175.007812 C 404.707031 171.761719 404.484375 168.574219 403.933594 165.472656 C 402.632812 158.019531 401.5625 150.640625 402.15625 143.121094 C 402.183594 140.800781 402.363281 138.425781 402.707031 136.023438 C 404.015625 126.671875 407.832031 116.519531 416.15625 104.191406 C 423.957031 92.667969 436.828125 82.695312 450.910156 76.894531 C 463.980469 71.492188 478.074219 69.6875 490.023438 73.609375 C 492.777344 74.519531 495.683594 74.25 498.445312 73.046875 C 501.191406 71.84375 503.816406 69.683594 506.015625 66.804688 C 512.773438 57.898438 520.394531 49.390625 528.675781 41.722656 C 536.476562 34.5 544.875 28.019531 553.75 22.613281 C 557.226562 20.492188 562.753906 22.988281 566.859375 26.566406 C 568.574219 28.0625 570.019531 29.757812 570.976562 31.386719 C 571.839844 32.871094 572.269531 34.269531 572.027344 35.332031 C 571.816406 36.308594 570.925781 37.074219 569.121094 37.40625 L 567.980469 37.628906 C 567.949219 37.160156 567.359375 36.011719 567.128906 35.605469 C 566.214844 34.039062 564.863281 32.566406 563.496094 31.382812 C 561.433594 29.582031 556.023438 25.921875 553.152344 27.660156 C 544.3125 33.042969 536.0625 39.449219 528.460938 46.480469 C 520.296875 54.042969 512.8125 62.398438 506.078125 71.269531 C 503.871094 74.1875 500.960938 76.761719 497.5625 78.242188 C 494.347656 79.644531 490.855469 79.984375 487.484375 78.890625 C 475.359375 74.914062 461.535156 77.339844 449.992188 82.105469 C 437.007812 87.457031 424.191406 96.863281 416.289062 108.542969 C 414.902344 110.625 413.550781 112.742188 412.28125 114.914062 C 413.15625 113.507812 414.058594 112.109375 414.984375 110.742188 C 422.5 99.625 434.761719 90.667969 447.085938 85.578125 C 457.828125 81.148438 470.855469 78.757812 482.140625 82.449219 C 486.335938 83.820312 490.71875 83.441406 494.742188 81.691406 C 498.699219 79.960938 502.050781 77.019531 504.648438 73.609375 C 511.253906 64.898438 518.609375 56.710938 526.632812 49.277344 C 534.050781 42.410156 542.101562 36.15625 550.605469 30.949219 C 552.015625 30.664062 555.855469 33.3125 556.921875 34.25 C 557.40625 34.683594 557.882812 35.140625 558.351562 35.640625 Z M 223.160156 476.425781 L 218.683594 483.167969 L 181.75 502.492188 L 184.890625 496.441406 Z M 212.894531 491.851562 C 199.40625 512.019531 185.691406 532.015625 171.746094 551.882812 C 159.917969 568.746094 147.921875 585.5 135.785156 602.140625 L 159.898438 550.527344 L 104.824219 655.082031 C 106.121094 653.363281 107.425781 651.625 108.730469 649.910156 C 108.847656 649.714844 108.988281 649.550781 109.144531 649.40625 C 132.960938 617.914062 156.214844 586.015625 178.902344 553.695312 C 194.03125 532.128906 208.902344 510.382812 223.519531 488.453125 L 223.695312 488.179688 C 223.753906 488.058594 223.835938 487.960938 223.90625 487.863281 C 233.957031 472.785156 243.90625 457.660156 253.679688 442.402344 L 253.757812 442.269531 C 253.871094 442.085938 253.984375 441.957031 254.140625 441.816406 L 262.207031 434.242188 C 271.640625 419.542969 280.460938 404.320312 289.324219 389.253906 C 303.804688 364.605469 318.34375 339.976562 333.964844 316.011719 C 358.273438 278.699219 402.519531 214.929688 449.347656 201.042969 C 391.382812 220.335938 334.4375 317.214844 293.15625 387.417969 C 283.039062 404.65625 273.863281 420.269531 265.847656 432.730469 L 257.566406 440.503906 L 257.476562 440.625 C 247.621094 455.964844 237.636719 471.21875 227.53125 486.378906 L 227.523438 486.367188 L 227.316406 486.707031 C 212.6875 508.671875 197.789062 530.445312 182.640625 552.023438 C 159.847656 584.484375 136.515625 616.496094 112.632812 648.046875 L 112.605469 648.035156 L 112.574219 648.128906 C 109.769531 651.824219 106.984375 655.507812 104.160156 659.171875 L 103.964844 658.757812 C 103.238281 657.136719 102.5625 654.78125 102.824219 654.25 L 178.074219 509.539062 Z M 270.039062 337.339844 C 271.160156 335.71875 286.257812 328.019531 288.167969 327.070312 C 320.332031 311.195312 350.597656 276.742188 372.175781 248.265625 C 377.109375 241.738281 382.492188 234.003906 387.40625 225.617188 C 382.851562 233.171875 378 240.097656 373.585938 245.917969 C 352.378906 273.933594 319.839844 305.191406 288.386719 320.710938 C 282.125 323.792969 273.289062 331.101562 270.039062 337.339844 Z M 487.5625 90.832031 C 476.445312 83.34375 462.3125 82.222656 449.660156 86.082031 C 435.96875 90.269531 424.214844 99.742188 416.261719 111.507812 L 416.179688 111.632812 C 408.222656 123.425781 403.808594 137.84375 405.039062 152.113281 C 405.796875 160.839844 410.480469 173.222656 403.953125 195.847656 C 410.332031 178.089844 419.699219 182.84375 423.578125 185.515625 L 423.703125 185.597656 C 434.828125 193.074219 448.960938 194.203125 461.601562 190.34375 C 475.304688 186.15625 487.054688 176.683594 495.007812 164.910156 L 495.085938 164.796875 C 496.015625 163.425781 496.886719 162.023438 497.699219 160.605469 C 497.28125 161.28125 496.851562 161.941406 496.40625 162.605469 L 496.34375 162.703125 C 488.835938 173.804688 477.761719 182.792969 464.808594 186.75 C 453.070312 190.34375 440.242188 189.398438 429.925781 182.449219 L 429.832031 182.390625 C 419.457031 175.382812 413.863281 163.945312 412.796875 151.601562 C 411.644531 138.140625 415.867188 124.523438 423.347656 113.398438 L 423.410156 113.308594 C 430.910156 102.195312 441.988281 93.203125 454.941406 89.25 C 455.277344 89.148438 455.597656 89.050781 455.949219 88.960938 C 445.089844 92.660156 434.707031 100.464844 427.160156 111.632812 L 427.121094 111.679688 C 419.242188 123.363281 415.945312 136.523438 416.972656 148.367188 C 418.003906 160.324219 423.433594 170.953125 433 177.421875 L 433.050781 177.464844 C 442.613281 183.894531 454.492188 184.953125 465.941406 181.460938 C 477.335938 177.980469 488.335938 169.996094 496.226562 158.308594 L 496.261719 158.253906 C 502.300781 149.292969 505.65625 139.453125 506.421875 130.015625 C 506.453125 128.105469 506.390625 126.214844 506.238281 124.296875 C 505.078125 110.921875 498.949219 98.515625 487.699219 90.910156 L 487.5625 90.832031 " fill-opacity="1" fill-rule="nonzero"/><path fill="#ffffff" d="M 289.042969 341.445312 C 286.285156 339.800781 283.074219 339.601562 280.285156 340.625 C 280.273438 340.554688 280.25 340.492188 280.226562 340.410156 C 280.003906 339.828125 279.363281 339.535156 278.765625 339.714844 C 275.75 340.671875 273.203125 342.691406 271.59375 345.402344 C 267.910156 351.542969 269.914062 359.5 276.042969 363.171875 C 282.179688 366.847656 290.132812 364.839844 293.808594 358.699219 C 295.425781 355.980469 296.007812 352.792969 295.421875 349.679688 C 295.3125 349.066406 294.746094 348.652344 294.121094 348.726562 C 294.058594 348.734375 293.976562 348.757812 293.90625 348.773438 C 293.484375 345.835938 291.789062 343.089844 289.042969 341.445312 Z M 274.28125 348.539062 C 274.492188 347.949219 274.757812 347.367188 275.105469 346.804688 C 277.710938 342.4375 283.367188 341.019531 287.738281 343.625 L 280.789062 353.742188 L 290.03125 345.566406 C 292.53125 348.5 293 352.792969 290.910156 356.277344 C 290.609375 356.78125 290.277344 357.242188 289.90625 357.660156 C 283.5 363.503906 272.234375 357.015625 274.28125 348.539062 " fill-opacity="1" fill-rule="evenodd"/></svg>