<svg xmlns="http://www.w3.org/2000/svg" xmlns:xlink="http://www.w3.org/1999/xlink" width="100" zoomAndPan="magnify" viewBox="0 0 675 675.000002" height="100" preserveAspectRatio="xMidYMid meet" version="1.0"><defs><clipPath id="c83475965f"><path d="M 68 6 L 606 6 L 606 668.460938 L 68 668.460938 Z M 68 6 " clip-rule="nonzero"/></clipPath></defs><g clip-path="url(#c83475965f)"><path fill="#ffffff" d="M 549.230469 180.238281 C 548.707031 182.105469 547.960938 183.917969 547.011719 185.605469 L 445.644531 364.582031 C 443.746094 367.941406 444.285156 374.03125 444.496094 377.742188 C 445.019531 386.890625 445.175781 395.617188 438.972656 403.15625 L 401.957031 448.207031 L 428.832031 426.273438 C 432.648438 423.164062 438.40625 422.046875 442.976562 424.097656 L 453.234375 428.683594 C 453.800781 428.945312 454.347656 429.265625 454.816406 429.644531 C 456.035156 430.507812 456.8125 430.996094 457.773438 432.285156 L 460.59375 436.050781 C 463.648438 440.117188 463.144531 445.601562 459.324219 448.988281 L 335.597656 559.339844 L 334.328125 565.320312 C 333.496094 569.265625 332.152344 573.113281 330.261719 576.683594 C 328.425781 580.171875 326.082031 583.382812 323.238281 586.117188 C 295.097656 613.234375 267.992188 641.011719 236.929688 664.921875 C 234.617188 666.722656 231.636719 667.769531 228.710938 668.03125 C 225.492188 668.328125 222.152344 667.640625 219.441406 665.804688 L 210.5625 659.78125 C 207.875 661.925781 204.054688 662.269531 200.945312 660.597656 C 199.992188 660.089844 199.183594 659.417969 198.519531 658.648438 C 198.101562 658.503906 197.679688 658.304688 197.28125 658.089844 C 196.359375 657.582031 195.558594 656.929688 194.90625 656.175781 C 194.507812 656.015625 194.105469 655.832031 193.714844 655.617188 C 192.800781 655.125 192.019531 654.488281 191.371094 653.734375 C 190.957031 653.574219 190.550781 653.40625 190.152344 653.179688 C 189.265625 652.6875 188.507812 652.066406 187.875 651.34375 C 187.484375 651.199219 187.105469 651.019531 186.734375 650.820312 C 185.835938 650.332031 185.058594 649.691406 184.410156 648.953125 C 183.992188 648.824219 183.582031 648.625 183.199219 648.394531 C 182.339844 647.921875 181.609375 647.316406 180.996094 646.628906 C 180.59375 646.480469 180.203125 646.285156 179.816406 646.074219 C 178.964844 645.597656 178.226562 645.007812 177.628906 644.316406 C 177.238281 644.171875 176.851562 643.992188 176.484375 643.777344 C 175.640625 643.300781 174.902344 642.710938 174.296875 642.027344 C 173.902344 641.875 173.511719 641.699219 173.132812 641.46875 C 172.3125 641.011719 171.621094 640.4375 171.023438 639.796875 C 170.621094 639.621094 170.21875 639.4375 169.839844 639.207031 C 169.046875 638.769531 168.355469 638.195312 167.773438 637.554688 C 167.378906 637.394531 166.976562 637.210938 166.613281 637 C 165.84375 636.539062 165.160156 635.996094 164.585938 635.359375 C 164.183594 635.210938 163.792969 635.019531 163.40625 634.789062 C 162.664062 634.34375 161.980469 633.800781 161.417969 633.199219 C 161.03125 633.03125 160.648438 632.855469 160.28125 632.644531 C 159.523438 632.199219 158.863281 631.660156 158.292969 631.039062 C 157.902344 630.890625 157.519531 630.695312 157.140625 630.480469 C 156.410156 630.054688 155.765625 629.511719 155.203125 628.941406 C 154.808594 628.777344 154.421875 628.582031 154.054688 628.367188 C 153.34375 627.945312 152.703125 627.417969 152.164062 626.84375 C 151.777344 626.679688 151.394531 626.484375 151.015625 626.269531 C 150.324219 625.863281 149.699219 625.355469 149.167969 624.78125 C 148.765625 624.617188 148.367188 624.417969 147.996094 624.191406 C 147.324219 623.796875 146.71875 623.304688 146.195312 622.75 C 145.816406 622.585938 145.449219 622.40625 145.09375 622.191406 C 144.410156 621.785156 143.796875 621.292969 143.273438 620.734375 C 142.878906 620.554688 142.484375 620.375 142.113281 620.148438 C 141.460938 619.75 140.878906 619.261719 140.347656 618.71875 C 139.984375 618.574219 139.625 618.394531 139.285156 618.195312 C 138.617188 617.804688 138.019531 617.3125 137.496094 616.773438 C 137.128906 616.605469 136.761719 616.429688 136.421875 616.230469 C 135.769531 615.824219 135.191406 615.363281 134.679688 614.824219 C 134.292969 614.660156 133.917969 614.480469 133.558594 614.25 C 132.945312 613.871094 132.371094 613.433594 131.878906 612.929688 C 131.480469 612.746094 131.097656 612.53125 130.710938 612.304688 C 130.113281 611.945312 129.578125 611.5 129.105469 611.011719 C 128.722656 610.832031 128.347656 610.648438 127.984375 610.417969 C 127.386719 610.0625 126.84375 609.636719 126.367188 609.128906 C 125.972656 608.964844 125.597656 608.765625 125.230469 608.519531 C 124.660156 608.175781 124.136719 607.753906 123.667969 607.292969 C 123.292969 607.113281 122.921875 606.917969 122.5625 606.6875 C 121.992188 606.34375 121.464844 605.917969 120.996094 605.445312 C 120.605469 605.277344 120.226562 605.070312 119.859375 604.835938 C 119.3125 604.492188 118.8125 604.082031 118.367188 603.625 C 117.976562 603.464844 117.605469 603.265625 117.238281 603.035156 C 116.699219 602.695312 116.199219 602.296875 115.75 601.839844 C 115.363281 601.675781 114.980469 601.464844 114.617188 601.234375 C 114.085938 600.90625 113.597656 600.5 113.160156 600.054688 C 112.765625 599.890625 112.390625 599.679688 112.03125 599.449219 C 111.515625 599.125 111.046875 598.726562 110.605469 598.320312 C 110.238281 598.140625 109.886719 597.957031 109.550781 597.726562 C 109.035156 597.402344 108.542969 597.007812 108.117188 596.582031 C 107.742188 596.421875 107.371094 596.207031 107.019531 595.992188 C 106.511719 595.667969 106.039062 595.304688 105.617188 594.878906 C 105.21875 594.699219 104.832031 594.488281 104.464844 594.238281 C 103.980469 593.929688 103.539062 593.570312 103.140625 593.175781 C 102.769531 593.015625 102.417969 592.816406 102.089844 592.585938 C 101.582031 592.273438 101.121094 591.917969 100.707031 591.503906 C 100.320312 591.328125 99.945312 591.113281 99.585938 590.882812 C 99.117188 590.574219 98.691406 590.230469 98.292969 589.835938 C 97.90625 589.671875 97.535156 589.460938 97.171875 589.230469 C 96.71875 588.921875 96.292969 588.589844 95.90625 588.199219 C 95.503906 588.015625 95.136719 587.824219 94.769531 587.578125 C 94.328125 587.28125 93.917969 586.953125 93.53125 586.59375 C 93.148438 586.394531 92.753906 586.183594 92.394531 585.9375 C 91.949219 585.644531 91.550781 585.332031 91.179688 584.972656 C 90.820312 584.789062 90.472656 584.597656 90.125 584.367188 C 89.683594 584.089844 89.265625 583.761719 88.890625 583.382812 C 88.503906 583.203125 88.121094 582.992188 87.777344 582.746094 C 87.351562 582.484375 86.964844 582.15625 86.613281 581.808594 C 86.222656 581.632812 85.855469 581.417969 85.480469 581.1875 C 82.492188 579.15625 81.191406 575.585938 82.019531 572.296875 L 72.480469 565.808594 C 71.964844 565.453125 71.472656 565.054688 71.03125 564.617188 C 68.949219 562.503906 67.960938 559.570312 68.277344 556.640625 C 68.507812 554.605469 69.359375 552.644531 70.675781 551.085938 C 71.121094 550.5625 71.628906 550.089844 72.167969 549.664062 L 84.78125 539.839844 L 93.675781 523.164062 C 94.121094 522.3125 94.566406 521.476562 95.050781 520.65625 C 95.242188 516.203125 95.703125 511.78125 96.265625 507.359375 C 96.539062 505.246094 96.917969 503.164062 97.457031 501.105469 C 98.0625 498.808594 98.878906 496.566406 99.953125 494.460938 L 139.25 417.382812 C 141.144531 413.679688 143.148438 410.0625 145.285156 406.507812 C 147.46875 402.894531 149.789062 399.367188 152.269531 395.945312 C 152.300781 395.886719 152.335938 395.832031 152.382812 395.78125 L 256.632812 260.980469 C 256.683594 260.898438 256.742188 260.839844 256.796875 260.765625 L 415.886719 72.25 C 416.089844 71.921875 416.320312 71.609375 416.566406 71.332031 C 416.855469 71.003906 417.140625 70.703125 417.441406 70.398438 L 418.292969 69.390625 C 422.527344 64.488281 428.816406 60.90625 435.023438 59.125 C 441.269531 57.320312 448.175781 57.121094 454.277344 59.640625 L 477.671875 69.316406 C 483.859375 64.75 490.820312 61.390625 498.214844 59.179688 C 506.902344 56.597656 516.042969 55.640625 525.082031 55.96875 L 569.058594 10.816406 C 573.425781 6.332031 579.78125 5.691406 585.582031 7.316406 C 588.332031 8.082031 590.984375 9.335938 593.390625 10.898438 C 595.765625 12.457031 597.992188 14.355469 599.796875 16.582031 C 604.011719 21.78125 605.601562 28.566406 601.824219 34.523438 L 577.546875 72.707031 C 578.339844 73.238281 579.125 73.777344 579.921875 74.335938 C 589.699219 81.304688 598.550781 90.738281 602.675781 102.203125 C 607.09375 114.46875 605.222656 126.816406 598.199219 137.699219 C 596.660156 140.082031 594.933594 142.328125 593.039062 144.4375 L 567.300781 173.394531 C 564.050781 177.0625 559.457031 179.222656 554.667969 179.976562 C 552.875 180.253906 551.050781 180.355469 549.230469 180.238281 Z M 563.683594 94.519531 L 540.984375 130.25 L 545.621094 138.707031 C 547.109375 141.425781 547.984375 144.488281 548.214844 147.601562 C 548.347656 149.53125 548.222656 151.5 547.820312 153.398438 L 549.140625 153.972656 L 572.289062 127.949219 C 574.40625 125.554688 576.34375 122.773438 577.339844 119.726562 C 578.109375 117.351562 578.277344 114.945312 577.785156 112.496094 C 576.941406 108.292969 574.523438 104.542969 571.683594 101.417969 C 569.339844 98.835938 566.609375 96.546875 563.683594 94.519531 " fill-opacity="1" fill-rule="evenodd"/></g><path fill="#000000" d="M 527.691406 62.621094 L 573.714844 15.34375 C 576.273438 12.710938 580.246094 12.570312 583.824219 13.570312 C 585.964844 14.175781 588.027344 15.175781 589.839844 16.34375 C 591.691406 17.550781 593.398438 19.023438 594.734375 20.675781 C 597.238281 23.757812 598.511719 27.605469 596.332031 31.046875 L 568.515625 74.804688 C 571.148438 76.296875 573.707031 77.894531 576.136719 79.636719 C 585.175781 86.0625 592.996094 94.519531 596.5625 104.398438 C 600.277344 114.738281 598.707031 124.933594 592.734375 134.171875 C 591.394531 136.257812 589.855469 138.25 588.183594 140.117188 L 562.4375 169.089844 C 560.277344 171.511719 557.082031 173.015625 553.648438 173.554688 C 550.296875 174.082031 546.699219 173.691406 543.578125 172.371094 C 543.644531 173.316406 543.644531 174.261719 543.570312 175.199219 C 543.351562 177.6875 542.597656 180.191406 541.351562 182.402344 L 439.980469 361.386719 C 437.214844 366.273438 437.691406 372.742188 438.003906 378.117188 C 438.421875 385.265625 438.898438 393.015625 433.949219 399.023438 L 355.496094 494.503906 L 432.945312 431.320312 C 434.777344 429.828125 437.953125 428.960938 440.3125 430.035156 L 450.582031 434.625 C 450.6875 434.667969 450.769531 434.726562 450.851562 434.792969 C 451.480469 435.285156 452.074219 435.511719 452.578125 436.183594 L 455.398438 439.949219 C 456.4375 441.328125 456.3125 442.972656 455.011719 444.132812 L 328.996094 556.507812 C 329.277344 556.785156 329.398438 557.148438 329.332031 557.523438 L 327.964844 563.976562 C 327.257812 567.296875 326.121094 570.59375 324.507812 573.65625 C 323.019531 576.492188 321.113281 579.140625 318.730469 581.449219 C 290.625 608.519531 264.421875 635.558594 232.980469 659.78125 C 231.667969 660.777344 229.859375 661.417969 228.132812 661.5625 C 226.382812 661.730469 224.53125 661.417969 223.101562 660.433594 L 209.457031 651.148438 L 206.773438 654.425781 C 206.160156 655.195312 204.964844 655.386719 204.039062 654.878906 C 203.113281 654.390625 202.757812 653.359375 203.195312 652.492188 L 204.085938 650.804688 L 203.148438 651.933594 C 202.515625 652.703125 201.335938 652.898438 200.410156 652.390625 C 199.484375 651.882812 199.132812 650.835938 199.59375 649.984375 C 199.855469 649.492188 200.117188 649.003906 200.378906 648.511719 C 200.117188 648.824219 199.847656 649.148438 199.578125 649.476562 C 198.945312 650.230469 197.757812 650.429688 196.832031 649.917969 C 195.921875 649.414062 195.566406 648.378906 196.003906 647.527344 C 196.21875 647.136719 196.421875 646.757812 196.628906 646.382812 C 196.441406 646.613281 196.25 646.84375 196.054688 647.070312 C 195.414062 647.820312 194.230469 648.019531 193.308594 647.496094 C 192.394531 646.988281 192.050781 645.953125 192.507812 645.085938 C 192.664062 644.792969 192.839844 644.484375 193 644.1875 C 192.863281 644.335938 192.730469 644.515625 192.601562 644.679688 C 191.960938 645.429688 190.773438 645.613281 189.851562 645.105469 C 188.9375 644.613281 188.570312 643.5625 189.027344 642.710938 C 189.167969 642.464844 189.308594 642.203125 189.445312 641.960938 C 189.34375 642.074219 189.230469 642.1875 189.144531 642.304688 C 188.507812 643.074219 187.300781 643.253906 186.386719 642.730469 C 185.472656 642.222656 185.125 641.175781 185.605469 640.320312 C 185.6875 640.175781 185.777344 639.996094 185.867188 639.847656 L 185.75 639.976562 C 185.105469 640.730469 183.921875 640.929688 183 640.40625 C 182.078125 639.898438 181.746094 638.847656 182.222656 637.996094 L 182.339844 637.769531 C 181.691406 638.457031 180.5625 638.601562 179.671875 638.109375 C 178.75 637.601562 178.40625 636.554688 178.875 635.703125 C 178.902344 635.65625 178.925781 635.621094 178.941406 635.589844 C 178.269531 636.195312 177.199219 636.3125 176.351562 635.835938 C 175.449219 635.3125 175.117188 634.296875 175.546875 633.460938 C 174.886719 633.96875 173.871094 634.035156 173.085938 633.589844 C 172.21875 633.085938 171.882812 632.117188 172.265625 631.28125 C 171.597656 631.757812 170.628906 631.792969 169.867188 631.363281 C 169.023438 630.871094 168.679688 629.941406 169.007812 629.136719 C 168.34375 629.578125 167.417969 629.597656 166.675781 629.171875 C 165.875 628.695312 165.527344 627.824219 165.789062 627.039062 C 165.128906 627.417969 164.25 627.417969 163.554688 627.023438 C 162.765625 626.5625 162.417969 625.695312 162.664062 624.925781 C 161.996094 625.289062 161.128906 625.289062 160.433594 624.878906 C 159.667969 624.433594 159.335938 623.597656 159.535156 622.851562 C 158.878906 623.191406 158.042969 623.175781 157.371094 622.765625 C 156.625 622.324219 156.292969 621.523438 156.472656 620.785156 C 155.816406 621.09375 154.996094 621.0625 154.351562 620.6875 C 153.613281 620.246094 153.269531 619.476562 153.421875 618.75 C 152.785156 619.046875 151.984375 618.996094 151.355469 618.625 C 150.648438 618.195312 150.304688 617.460938 150.425781 616.773438 C 149.796875 617.015625 149.035156 616.96875 148.414062 616.605469 C 147.714844 616.183594 147.375 615.460938 147.488281 614.757812 C 146.859375 615 146.097656 614.96875 145.472656 614.578125 C 144.808594 614.183594 144.472656 613.480469 144.554688 612.8125 C 143.933594 613.027344 143.21875 612.976562 142.621094 612.601562 C 141.960938 612.207031 141.609375 611.519531 141.691406 610.863281 C 141.078125 611.058594 140.371094 611.011719 139.773438 610.648438 C 139.125 610.257812 138.785156 609.585938 138.847656 608.929688 C 138.234375 609.128906 137.519531 609.058594 136.945312 608.703125 C 136.3125 608.328125 135.976562 607.667969 136.023438 607.03125 C 135.417969 607.210938 134.714844 607.144531 134.148438 606.785156 C 133.527344 606.410156 133.191406 605.769531 133.230469 605.148438 C 132.632812 605.316406 131.960938 605.246094 131.414062 604.886719 C 130.796875 604.527344 130.460938 603.902344 130.476562 603.296875 C 129.890625 603.445312 129.230469 603.363281 128.679688 603.019531 C 128.085938 602.660156 127.761719 602.050781 127.769531 601.464844 C 127.195312 601.597656 126.550781 601.511719 126 601.183594 C 125.417969 600.808594 125.089844 600.234375 125.089844 599.628906 C 124.515625 599.761719 123.875 599.679688 123.347656 599.351562 C 122.769531 598.972656 122.453125 598.417969 122.445312 597.84375 C 121.871094 597.957031 121.242188 597.878906 120.71875 597.550781 C 120.164062 597.1875 119.84375 596.617188 119.828125 596.058594 C 119.253906 596.175781 118.621094 596.074219 118.113281 595.746094 C 117.550781 595.390625 117.253906 594.847656 117.222656 594.292969 C 116.660156 594.40625 116.050781 594.308594 115.554688 593.976562 C 115.011719 593.632812 114.703125 593.109375 114.667969 592.570312 C 114.109375 592.652344 113.527344 592.554688 113.035156 592.242188 C 112.507812 591.917969 112.195312 591.375 112.144531 590.835938 C 111.605469 590.929688 111.007812 590.820312 110.515625 590.507812 C 109.992188 590.179688 109.6875 589.671875 109.648438 589.128906 C 109.09375 589.230469 108.511719 589.113281 108.019531 588.789062 C 107.511719 588.476562 107.214844 587.96875 107.160156 587.460938 C 106.628906 587.527344 106.054688 587.429688 105.597656 587.132812 C 105.078125 586.804688 104.785156 586.296875 104.710938 585.789062 C 104.1875 585.855469 103.601562 585.742188 103.148438 585.449219 C 102.65625 585.121094 102.359375 584.644531 102.289062 584.136719 C 101.761719 584.199219 101.214844 584.089844 100.746094 583.792969 C 100.257812 583.484375 99.96875 583.007812 99.894531 582.5 C 99.371094 582.566406 98.816406 582.449219 98.355469 582.140625 C 97.886719 581.824219 97.585938 581.371094 97.523438 580.910156 C 96.996094 580.960938 96.457031 580.828125 96.003906 580.535156 C 95.539062 580.21875 95.261719 579.78125 95.175781 579.304688 C 94.667969 579.335938 94.136719 579.242188 93.707031 578.945312 C 93.238281 578.636719 92.953125 578.191406 92.863281 577.714844 C 92.363281 577.765625 91.832031 577.652344 91.386719 577.339844 C 90.933594 577.046875 90.65625 576.621094 90.578125 576.160156 C 90.078125 576.191406 89.550781 576.078125 89.121094 575.785156 C 88.238281 575.195312 88.023438 574.113281 88.597656 573.3125 C 89.296875 572.3125 89.988281 571.328125 90.691406 570.347656 L 76.140625 560.4375 C 75.960938 560.308594 75.796875 560.175781 75.652344 560.027344 C 74.910156 559.292969 74.640625 558.308594 74.753906 557.359375 C 74.824219 556.625 75.148438 555.867188 75.640625 555.296875 C 75.789062 555.113281 75.960938 554.9375 76.167969 554.789062 L 89.867188 544.109375 L 99.414062 526.226562 C 100.058594 525 100.707031 523.769531 101.492188 522.609375 C 101.613281 517.777344 102.105469 512.960938 102.710938 508.179688 C 102.949219 506.359375 103.277344 504.542969 103.742188 502.757812 C 104.230469 500.925781 104.875 499.121094 105.75 497.417969 L 145.039062 420.328125 C 146.851562 416.792969 148.78125 413.289062 150.847656 409.863281 C 152.9375 406.425781 155.152344 403.070312 157.535156 399.761719 L 261.765625 264.960938 L 421.257812 75.957031 C 421.296875 75.835938 421.375 75.71875 421.472656 75.605469 C 421.710938 75.34375 421.964844 75.082031 422.21875 74.820312 L 423.207031 73.640625 C 426.507812 69.828125 431.660156 66.863281 436.816406 65.371094 C 441.601562 63.996094 447.066406 63.699219 451.796875 65.648438 L 478.699219 76.769531 C 484.824219 71.625 492.042969 67.808594 500.074219 65.417969 C 508.90625 62.78125 518.347656 61.980469 527.691406 62.621094 Z M 515.4375 75.214844 C 511.539062 75.605469 507.699219 76.359375 504.019531 77.519531 C 500.050781 78.777344 496.324219 80.484375 492.910156 82.648438 L 499.296875 85.285156 C 500.777344 85.890625 502.195312 86.613281 503.5625 87.414062 Z M 561.652344 85.59375 L 533.425781 130.003906 L 539.910156 141.828125 C 540.964844 143.769531 541.574219 145.929688 541.71875 148.058594 C 541.871094 150.15625 541.582031 152.316406 540.773438 154.28125 L 539.675781 156.933594 L 549.664062 161.308594 C 549.925781 161.421875 550.5 161.40625 550.769531 161.371094 C 550.925781 161.355469 551.3125 161.292969 551.398438 161.226562 L 577.144531 132.269531 C 579.929688 129.144531 582.25 125.625 583.515625 121.753906 C 584.644531 118.316406 584.867188 114.761719 584.164062 111.210938 C 583.105469 105.953125 580.265625 101.195312 576.496094 97.046875 C 572.394531 92.523438 567.171875 88.710938 561.652344 85.59375 " fill-opacity="1" fill-rule="evenodd"/><path fill="#ffffff" d="M 539.640625 172.050781 C 539.519531 171.042969 539.265625 170.050781 538.882812 169.121094 L 534.6875 158.902344 L 537.117188 153.027344 C 537.722656 151.546875 537.960938 149.871094 537.839844 148.191406 C 537.714844 146.472656 537.226562 144.769531 536.425781 143.285156 L 516.230469 106.402344 C 514.078125 102.472656 511.257812 98.542969 507.828125 95.226562 C 504.890625 92.375 501.5 89.984375 497.714844 88.410156 L 450.214844 68.777344 C 448.148438 67.929688 445.824219 67.628906 443.414062 67.746094 C 443.964844 67.90625 444.511719 68.082031 445.035156 68.300781 L 492.542969 87.921875 C 500.269531 91.117188 514.167969 103.773438 510.210938 111.539062 L 492.671875 145.960938 L 514.230469 111.183594 L 515.78125 114.046875 L 507.410156 129.289062 L 517.035156 116.394531 L 531.238281 142.800781 C 532.050781 144.285156 532.535156 145.996094 532.65625 147.695312 C 532.78125 149.386719 532.550781 151.0625 531.9375 152.542969 L 529.511719 158.417969 L 507.324219 204.722656 L 530.714844 161.355469 L 533.710938 168.628906 C 534.089844 169.5625 534.335938 170.558594 534.464844 171.570312 L 413.808594 353.828125 L 387.242188 312.519531 L 407.3125 370.984375 L 364.46875 430.3125 L 408.671875 374.949219 L 410.242188 379.542969 L 256.4375 574.457031 L 256.429688 574.507812 L 415.4375 380.027344 L 418.992188 354.3125 L 539.640625 172.050781 " fill-opacity="1" fill-rule="nonzero"/><path fill="#ffffff" d="M 218.507812 652.996094 L 221.664062 655.144531 L 241.132812 618.210938 C 242.230469 616.101562 243.566406 614.039062 245.097656 612.109375 C 246.53125 610.339844 248.152344 608.652344 249.953125 607.175781 L 300.976562 565.367188 C 305.257812 561.84375 303.121094 560.40625 298.671875 563.894531 L 245.226562 605.871094 C 243.523438 607.199219 242.007812 608.734375 240.675781 610.402344 C 239.234375 612.222656 238.003906 614.183594 237.003906 616.167969 L 218.507812 652.996094 " fill-opacity="1" fill-rule="nonzero"/><path fill="#ffffff" d="M 227.710938 658.105469 L 309.3125 569.96875 C 312.523438 566.496094 311.261719 565.453125 307.582031 569.363281 L 225.550781 656.746094 C 224.296875 658.089844 227.128906 658.730469 227.710938 658.105469 " fill-opacity="1" fill-rule="nonzero"/><path fill="#ffffff" d="M 440.488281 435.332031 L 448.394531 438.671875 C 452.765625 440.53125 448.992188 437.757812 447.417969 437.058594 L 439.320312 433.433594 C 438.113281 432.894531 436.851562 432.894531 435.554688 433.941406 L 307.125 538.722656 C 303.605469 541.605469 288.808594 556.753906 301.089844 546.8125 L 437.90625 435.890625 C 438.550781 435.367188 439.675781 434.992188 440.488281 435.332031 " fill-opacity="1" fill-rule="nonzero"/><path fill="#ffffff" d="M 451.328125 442.457031 L 450.476562 442.097656 L 432.738281 443.242188 L 431.550781 444.195312 L 450.761719 442.964844 Z M 446.601562 440.457031 L 444.792969 439.6875 L 436.457031 440.230469 L 435.277344 441.1875 Z M 428.921875 446.339844 L 427.742188 447.289062 L 447.289062 446.023438 L 448.363281 445.078125 Z M 424.984375 449.53125 L 423.796875 450.480469 L 443.699219 449.203125 L 444.773438 448.253906 Z M 420.882812 452.855469 L 419.699219 453.804688 L 439.964844 452.511719 L 441.050781 451.554688 Z M 417.023438 455.964844 L 415.84375 456.933594 L 436.464844 455.609375 L 437.539062 454.65625 Z M 413.046875 459.210938 L 411.863281 460.160156 L 432.84375 458.816406 L 433.910156 457.867188 Z M 408.761719 462.679688 L 407.574219 463.632812 L 428.941406 462.257812 L 430.027344 461.308594 Z M 404.617188 466.03125 L 403.441406 466.988281 L 425.183594 465.597656 L 426.246094 464.652344 L 404.617188 466.03125 " fill-opacity="1" fill-rule="nonzero"/><path fill="#ffffff" d="M 570.609375 82.894531 C 579.816406 89.722656 586.398438 97.316406 589.316406 105.398438 C 592.605469 114.550781 591.183594 123.527344 585.898438 131.699219 C 584.671875 133.605469 583.269531 135.414062 581.742188 137.132812 L 555.992188 166.089844 C 554.5625 167.710938 552.375 168.660156 550.121094 169.023438 C 547.65625 169.414062 544.996094 169.113281 542.738281 168.085938 L 540.902344 167.367188 L 541.035156 167.679688 L 544.75 169.363281 C 547.28125 170.496094 550.230469 170.839844 552.964844 170.40625 C 555.601562 169.988281 558.011719 168.867188 559.605469 167.070312 L 585.347656 138.117188 C 586.996094 136.269531 588.414062 134.398438 589.609375 132.53125 C 595.59375 123.28125 596.238281 113.945312 593.136719 105.316406 C 590.015625 96.617188 583.082031 88.609375 573.945312 82.109375 C 572.777344 81.289062 571.570312 80.519531 570.375 79.714844 C 566.5625 77.144531 568.414062 81.273438 570.609375 82.894531 Z M 551.804688 164.472656 C 551.644531 164.503906 551.496094 164.519531 551.34375 164.535156 C 550.191406 164.679688 548.929688 164.535156 548.027344 164.105469 L 537.714844 159.605469 L 538.890625 162.46875 L 544.882812 164.894531 C 546.066406 165.472656 547.617188 165.617188 548.96875 165.441406 C 549.96875 165.320312 550.976562 165.003906 551.804688 164.472656 Z M 520.585938 71.691406 L 522.09375 70.152344 C 516 70.347656 505.257812 71.410156 499.710938 73.175781 C 494.554688 74.804688 489.019531 77.488281 484.730469 80.527344 L 488.0625 81.902344 C 492.507812 78.617188 497.460938 76.179688 502.761719 74.507812 C 508.410156 72.722656 514.4375 71.824219 520.585938 71.691406 Z M 525.140625 66.8125 L 526.390625 65.730469 C 517.835938 65.257812 509.269531 66.074219 501.269531 68.449219 C 499.066406 69.105469 496.914062 69.890625 494.808594 70.792969 C 496.230469 70.234375 497.683594 69.734375 499.113281 69.304688 C 506.054688 67.238281 518.324219 65.910156 525.140625 66.8125 " fill-opacity="1" fill-rule="nonzero"/><path fill="#ffffff" d="M 509.71875 93.6875 C 511.59375 95.617188 513.609375 97.550781 514.9375 99.8125 C 516.648438 102.710938 525 96.273438 528.152344 92.246094 L 586.21875 18.316406 C 585.078125 17.695312 583.894531 17.195312 582.746094 16.878906 C 580.296875 16.199219 578.015625 16.289062 576.679688 17.648438 L 511.003906 85.105469 C 508.195312 88.003906 507.53125 91.4375 509.71875 93.6875 Z M 533.515625 122.765625 L 592.921875 29.28125 C 593.539062 28.320312 593.660156 27.246094 593.425781 26.128906 L 532.484375 119.5 C 529.355469 124.3125 530.003906 128.308594 533.515625 122.765625 " fill-opacity="1" fill-rule="nonzero"/><path fill="#ffffff" d="M 430.800781 396.941406 C 434.910156 391.941406 434.523438 385.101562 434.121094 378.210938 C 433.757812 371.773438 433.386719 365.285156 436.5 359.765625 L 537.863281 180.796875 C 538.5 179.667969 538.996094 178.421875 539.304688 177.144531 L 435.585938 357.132812 C 433.773438 360.359375 433.140625 363.914062 433.011719 367.609375 C 432.910156 370.214844 420.855469 357.292969 421.003906 359.964844 L 419.554688 381.589844 C 419.292969 385.527344 421.398438 387.921875 423.871094 389.460938 C 427.636719 391.792969 428.570312 396.109375 422.574219 403.21875 L 336.222656 508.441406 L 294.007812 546.253906 L 337.121094 511.09375 Z M 107.035156 539.378906 C 108.476562 544.320312 110.984375 548.515625 115.085938 551.15625 L 219.5 617.964844 C 221.75 619.128906 223.984375 619.847656 226.203125 620.164062 C 228.203125 620.457031 230.191406 620.425781 232.175781 620.09375 L 234.640625 615.199219 C 235.714844 613.058594 237.023438 610.960938 238.5625 609.046875 C 239.996094 607.230469 241.640625 605.578125 243.484375 604.117188 L 296.558594 562.433594 C 300.492188 559.359375 297.296875 558.523438 293.640625 561.390625 L 242.582031 601.480469 C 240.730469 602.9375 239.09375 604.589844 237.652344 606.410156 C 236.121094 608.328125 234.808594 610.402344 233.730469 612.550781 L 231.273438 617.445312 C 229.285156 617.773438 227.292969 617.804688 225.296875 617.523438 C 223.085938 617.199219 220.84375 616.492188 218.597656 615.332031 L 114.195312 548.5 C 110.835938 546.355469 108.550781 543.160156 107.035156 539.378906 " fill-opacity="1" fill-rule="nonzero"/><path fill="#ffffff" d="M 92.601562 568.773438 C 93.695312 567.660156 94.785156 566.546875 95.875 565.433594 C 96.949219 564.320312 98.035156 563.207031 99.117188 562.109375 C 100.015625 561.175781 100.914062 560.257812 101.8125 559.324219 C 102.710938 558.40625 103.613281 557.488281 104.515625 556.574219 C 103.800781 557.601562 103.0625 558.636719 102.328125 559.667969 C 101.613281 560.699219 100.867188 561.75 100.152344 562.796875 C 99.28125 564.039062 98.40625 565.300781 97.523438 566.546875 C 96.636719 567.804688 95.757812 569.070312 94.867188 570.332031 C 95.964844 569.21875 97.054688 568.085938 98.152344 566.972656 C 99.230469 565.859375 100.320312 564.746094 101.402344 563.632812 C 102.3125 562.695312 103.203125 561.75 104.101562 560.828125 C 105.007812 559.898438 105.921875 558.984375 106.828125 558.0625 C 106.101562 559.09375 105.375 560.128906 104.636719 561.175781 C 103.910156 562.222656 103.171875 563.273438 102.449219 564.320312 C 101.582031 565.582031 100.691406 566.84375 99.8125 568.101562 C 98.9375 569.363281 98.046875 570.644531 97.171875 571.921875 C 98.269531 570.789062 99.355469 569.65625 100.453125 568.53125 C 101.542969 567.414062 102.632812 566.285156 103.710938 565.171875 C 104.628906 564.222656 105.53125 563.289062 106.445312 562.351562 C 107.347656 561.421875 108.25 560.488281 109.15625 559.554688 C 108.425781 560.601562 107.699219 561.652344 106.96875 562.695312 C 106.234375 563.746094 105.507812 564.8125 104.785156 565.875 C 103.910156 567.136719 103.03125 568.398438 102.140625 569.675781 C 101.265625 570.953125 100.378906 572.230469 99.476562 573.507812 C 100.589844 572.375 101.679688 571.230469 102.785156 570.101562 C 103.863281 568.972656 104.964844 567.839844 106.054688 566.710938 C 106.96875 565.761719 107.878906 564.8125 108.789062 563.878906 C 109.695312 562.941406 110.605469 561.996094 111.523438 561.074219 C 110.800781 562.125 110.066406 563.171875 109.328125 564.238281 C 108.59375 565.285156 107.871094 566.351562 107.144531 567.433594 C 106.25 568.710938 105.375 569.984375 104.5 571.261719 C 103.601562 572.542969 102.710938 573.835938 101.820312 575.132812 C 102.941406 573.984375 104.039062 572.835938 105.128906 571.691406 C 106.234375 570.5625 107.328125 569.410156 108.433594 568.285156 C 109.347656 567.335938 110.261719 566.382812 111.164062 565.433594 C 112.078125 564.484375 112.996094 563.53125 113.90625 562.601562 C 113.167969 563.664062 112.441406 564.730469 111.722656 565.777344 C 110.984375 566.859375 110.253906 567.921875 109.523438 569.003906 C 108.648438 570.300781 107.773438 571.574219 106.882812 572.867188 C 105.988281 574.164062 105.09375 575.457031 104.210938 576.769531 C 105.324219 575.617188 106.421875 574.457031 107.527344 573.3125 C 108.632812 572.167969 109.730469 571.015625 110.828125 569.871094 C 111.746094 568.902344 112.667969 567.957031 113.582031 566.988281 C 114.488281 566.054688 115.402344 565.089844 116.324219 564.140625 C 115.585938 565.222656 114.855469 566.285156 114.128906 567.351562 C 113.390625 568.429688 112.660156 569.511719 111.929688 570.609375 C 111.046875 571.890625 110.171875 573.195312 109.289062 574.492188 C 108.386719 575.800781 107.496094 577.09375 106.605469 578.421875 C 107.722656 577.257812 108.828125 576.078125 109.9375 574.933594 C 111.03125 573.765625 112.144531 572.621094 113.25 571.476562 C 114.160156 570.507812 115.085938 569.546875 116 568.578125 C 116.921875 567.613281 117.851562 566.660156 118.769531 565.714844 C 118.03125 566.792969 117.285156 567.875 116.5625 568.941406 C 115.832031 570.019531 115.085938 571.117188 114.355469 572.214844 C 113.472656 573.507812 112.589844 574.816406 111.695312 576.125 C 110.800781 577.4375 109.917969 578.75 109.035156 580.074219 C 110.132812 578.914062 111.253906 577.75 112.375 576.570312 C 113.472656 575.425781 114.59375 574.261719 115.699219 573.097656 C 116.625 572.128906 117.53125 571.152344 118.460938 570.183594 C 119.375 569.21875 120.289062 568.25 121.226562 567.296875 C 120.488281 568.378906 119.757812 569.464844 119.023438 570.546875 C 118.28125 571.640625 117.550781 572.738281 116.824219 573.835938 C 115.945312 575.164062 115.054688 576.472656 114.167969 577.78125 C 113.28125 579.125 112.382812 580.433594 111.484375 581.761719 C 112.605469 580.585938 113.710938 579.417969 114.824219 578.242188 C 115.945312 577.078125 117.050781 575.898438 118.164062 574.734375 C 119.082031 573.75 119.996094 572.773438 120.933594 571.789062 C 121.855469 570.824219 122.785156 569.855469 123.707031 568.886719 C 122.976562 569.984375 122.25 571.085938 121.503906 572.183594 C 120.777344 573.261719 120.035156 574.375 119.304688 575.488281 C 118.410156 576.816406 117.523438 578.144531 116.632812 579.46875 C 115.75 580.796875 114.847656 582.121094 113.964844 583.484375 C 115.085938 582.285156 116.207031 581.109375 117.328125 579.925781 C 118.4375 578.75 119.550781 577.570312 120.671875 576.390625 C 121.59375 575.410156 122.519531 574.410156 123.445312 573.441406 C 124.375 572.460938 125.296875 571.476562 126.226562 570.507812 C 125.492188 571.605469 124.765625 572.722656 124.027344 573.820312 C 123.292969 574.917969 122.539062 576.03125 121.816406 577.144531 C 120.933594 578.46875 120.035156 579.8125 119.144531 581.15625 C 118.253906 582.5 117.363281 583.84375 116.476562 585.203125 C 117.605469 584.003906 118.730469 582.824219 119.84375 581.617188 C 120.964844 580.433594 122.085938 579.257812 123.199219 578.058594 C 124.125 577.078125 125.058594 576.078125 125.984375 575.09375 C 126.902344 574.113281 127.839844 573.113281 128.769531 572.144531 C 128.039062 573.246094 127.308594 574.359375 126.566406 575.472656 C 125.828125 576.585938 125.082031 577.714844 124.367188 578.828125 C 123.460938 580.1875 122.578125 581.515625 121.6875 582.875 C 120.792969 584.234375 119.894531 585.578125 118.992188 586.9375 C 120.121094 585.726562 121.25 584.542969 122.378906 583.335938 C 123.5 582.140625 124.625 580.960938 125.738281 579.765625 C 126.671875 578.765625 127.617188 577.765625 128.546875 576.769531 C 129.472656 575.785156 130.421875 574.785156 131.355469 573.804688 C 130.621094 574.917969 129.882812 576.03125 129.144531 577.160156 C 128.398438 578.273438 127.65625 579.402344 126.910156 580.535156 C 126.035156 581.878906 125.148438 583.253906 124.257812 584.613281 C 123.355469 585.957031 122.453125 587.332031 121.546875 588.707031 C 122.683594 587.492188 123.8125 586.296875 124.953125 585.070312 C 126.074219 583.875 127.203125 582.660156 128.324219 581.46875 C 129.277344 580.46875 130.199219 579.453125 131.144531 578.453125 C 132.074219 577.453125 133.011719 576.453125 133.941406 575.472656 C 133.214844 576.585938 132.480469 577.714844 131.734375 578.847656 C 130.988281 579.976562 130.257812 581.109375 129.523438 582.269531 C 128.628906 583.628906 127.753906 585.003906 126.855469 586.363281 C 125.949219 587.722656 125.058594 589.113281 124.152344 590.492188 C 125.296875 589.277344 126.425781 588.070312 127.554688 586.839844 C 128.695312 585.625 129.816406 584.414062 130.957031 583.203125 C 131.886719 582.1875 132.828125 581.1875 133.761719 580.171875 C 134.699219 579.15625 135.644531 578.160156 136.589844 577.160156 C 135.851562 578.289062 135.097656 579.417969 134.371094 580.566406 C 133.632812 581.710938 132.886719 582.84375 132.140625 584.003906 C 131.257812 585.382812 130.367188 586.757812 129.472656 588.132812 C 128.570312 589.523438 127.6875 590.917969 126.769531 592.292969 C 127.910156 591.066406 129.0625 589.835938 130.191406 588.625 C 131.320312 587.394531 132.464844 586.164062 133.59375 584.953125 C 134.53125 583.921875 135.476562 582.90625 136.421875 581.894531 C 137.359375 580.878906 138.316406 579.878906 139.25 578.878906 C 138.511719 580.011719 137.773438 581.15625 137.050781 582.300781 C 136.296875 583.429688 135.539062 584.597656 134.8125 585.757812 C 133.910156 587.148438 133.019531 588.523438 132.125 589.914062 C 131.226562 591.3125 130.324219 592.71875 129.421875 594.125 C 130.574219 592.882812 131.71875 591.652344 132.863281 590.421875 C 134 589.183594 135.140625 587.953125 136.285156 586.726562 C 137.226562 585.710938 138.1875 584.675781 139.117188 583.644531 C 140.054688 582.628906 141 581.617188 141.953125 580.597656 C 141.199219 581.746094 140.460938 582.890625 139.726562 584.054688 C 138.988281 585.203125 138.25 586.378906 137.496094 587.5625 C 136.613281 588.9375 135.714844 590.34375 134.816406 591.734375 C 133.910156 593.144531 133.019531 594.554688 132.101562 595.960938 C 133.246094 594.730469 134.394531 593.472656 135.539062 592.242188 C 136.695312 590.996094 137.835938 589.753906 138.972656 588.507812 C 139.914062 587.476562 140.878906 586.449219 141.820312 585.414062 C 142.765625 584.382812 143.71875 583.367188 144.671875 582.347656 C 143.933594 583.515625 143.195312 584.660156 142.453125 585.839844 C 141.707031 586.988281 140.945312 588.167969 140.207031 589.359375 C 139.316406 590.75 138.421875 592.144531 137.527344 593.570312 C 136.621094 594.996094 135.714844 596.421875 134.816406 597.84375 C 135.96875 596.582031 137.128906 595.320312 138.265625 594.078125 C 139.414062 592.832031 140.5625 591.574219 141.707031 590.328125 C 142.652344 589.277344 143.605469 588.246094 144.546875 587.199219 C 145.5 586.164062 146.464844 585.136719 147.421875 584.105469 C 146.683594 585.28125 145.933594 586.449219 145.195312 587.625 C 144.441406 588.789062 143.710938 589.984375 142.976562 591.179688 C 142.082031 592.585938 141.175781 594.011719 140.285156 595.4375 C 139.386719 596.863281 138.480469 598.285156 137.574219 599.726562 C 138.726562 598.464844 139.878906 597.203125 141.03125 595.945312 C 142.191406 594.683594 143.34375 593.421875 144.480469 592.179688 C 145.433594 591.113281 146.398438 590.066406 147.347656 589.015625 C 148.289062 587.984375 149.25 586.9375 150.195312 585.90625 C 149.472656 587.085938 148.71875 588.246094 147.980469 589.445312 C 147.226562 590.605469 146.488281 591.816406 145.753906 593.015625 C 144.851562 594.4375 143.957031 595.878906 143.066406 597.320312 C 142.167969 598.746094 141.265625 600.1875 140.347656 601.644531 C 141.5 600.367188 142.652344 599.085938 143.820312 597.828125 C 144.964844 596.550781 146.128906 595.289062 147.285156 594.03125 C 148.226562 592.964844 149.191406 591.917969 150.148438 590.851562 C 151.097656 589.804688 152.066406 588.753906 153.039062 587.707031 C 152.285156 588.902344 151.546875 590.082031 150.796875 591.277344 C 150.042969 592.472656 149.296875 593.667969 148.574219 594.878906 C 147.667969 596.320312 146.769531 597.746094 145.863281 599.203125 C 144.957031 600.660156 144.058594 602.105469 143.160156 603.574219 C 144.320312 602.296875 145.5 601.007812 146.652344 599.726562 C 147.808594 598.464844 148.964844 597.1875 150.125 595.914062 C 151.078125 594.832031 152.039062 593.785156 153 592.71875 C 153.957031 591.652344 154.914062 590.589844 155.871094 589.542969 C 155.136719 590.734375 154.398438 591.933594 153.644531 593.125 C 152.890625 594.339844 152.164062 595.550781 151.425781 596.78125 C 150.527344 598.21875 149.625 599.679688 148.726562 601.136719 C 147.824219 602.59375 146.914062 604.066406 146.015625 605.539062 C 147.167969 604.25 148.335938 602.953125 149.503906 601.660156 C 150.664062 600.382812 151.816406 599.085938 152.984375 597.8125 C 153.949219 596.714844 154.90625 595.652344 155.871094 594.585938 C 156.832031 593.523438 157.808594 592.457031 158.773438 591.410156 C 158.03125 592.601562 157.292969 593.816406 156.550781 595.027344 C 155.796875 596.238281 155.035156 597.449219 154.304688 598.679688 C 153.398438 600.152344 152.5 601.613281 151.601562 603.085938 C 150.707031 604.558594 149.789062 606.03125 148.871094 607.523438 C 150.042969 606.214844 151.214844 604.902344 152.382812 603.609375 C 153.554688 602.3125 154.71875 601.023438 155.878906 599.726562 C 156.847656 598.648438 157.816406 597.566406 158.773438 596.46875 C 159.738281 595.40625 160.71875 594.339844 161.695312 593.277344 C 160.941406 594.488281 160.195312 595.699219 159.460938 596.925781 C 158.707031 598.140625 157.953125 599.386719 157.207031 600.609375 C 156.324219 602.085938 155.414062 603.558594 154.511719 605.050781 C 153.613281 606.539062 152.703125 608.015625 151.792969 609.519531 C 152.976562 608.210938 154.152344 606.898438 155.316406 605.59375 C 156.480469 604.28125 157.675781 602.988281 158.828125 601.675781 C 159.804688 600.578125 160.773438 599.5 161.734375 598.417969 C 162.695312 597.335938 163.667969 596.238281 164.636719 595.160156 C 163.898438 596.382812 163.160156 597.613281 162.417969 598.847656 C 161.664062 600.070312 160.917969 601.316406 160.171875 602.574219 C 159.28125 604.050781 158.371094 605.554688 157.46875 607.046875 C 156.570312 608.554688 155.660156 610.042969 154.734375 611.554688 C 155.921875 610.226562 157.09375 608.898438 158.28125 607.589844 C 159.460938 606.277344 160.632812 604.96875 161.792969 603.640625 C 162.765625 602.542969 163.742188 601.445312 164.714844 600.367188 C 165.683594 599.253906 166.664062 598.171875 167.648438 597.089844 C 166.894531 598.335938 166.152344 599.546875 165.40625 600.792969 C 164.652344 602.035156 163.898438 603.296875 163.171875 604.542969 C 162.257812 606.046875 161.359375 607.558594 160.457031 609.058594 C 159.542969 610.550781 158.640625 612.078125 157.722656 613.59375 C 158.894531 612.269531 160.089844 610.925781 161.265625 609.601562 C 162.441406 608.292969 163.617188 606.953125 164.800781 605.640625 C 165.78125 604.527344 166.773438 603.429688 167.738281 602.3125 C 168.710938 601.21875 169.679688 600.121094 170.652344 599.023438 C 169.917969 600.269531 169.179688 601.527344 168.433594 602.773438 C 167.679688 604.035156 166.925781 605.292969 166.191406 606.554688 C 165.289062 608.082031 164.386719 609.585938 163.488281 611.109375 C 162.585938 612.632812 161.664062 614.152344 160.753906 615.675781 C 161.949219 614.347656 163.117188 612.992188 164.308594 611.667969 C 165.496094 610.324219 166.664062 608.980469 167.84375 607.652344 C 168.828125 606.539062 169.808594 605.425781 170.777344 604.3125 C 171.75 603.203125 172.71875 602.085938 173.71875 600.988281 C 172.96875 602.25 172.234375 603.511719 171.480469 604.773438 C 170.730469 606.03125 169.992188 607.3125 169.246094 608.589844 C 168.34375 610.109375 167.433594 611.632812 166.542969 613.171875 C 165.636719 614.707031 164.722656 616.246094 163.808594 617.804688 C 165.003906 616.429688 166.191406 615.085938 167.386719 613.726562 C 168.558594 612.402344 169.746094 611.027344 170.914062 609.703125 C 171.914062 608.574219 172.898438 607.441406 173.863281 606.328125 C 174.839844 605.199219 175.839844 604.101562 176.816406 602.988281 C 176.082031 604.265625 175.332031 605.523438 174.574219 606.785156 C 173.824219 608.066406 173.070312 609.339844 172.320312 610.632812 C 171.4375 612.175781 170.53125 613.710938 169.621094 615.246094 C 168.710938 616.804688 167.8125 618.359375 166.910156 619.933594 C 168.109375 618.574219 169.300781 617.199219 170.492188 615.839844 C 171.667969 614.480469 172.875 613.117188 174.058594 611.761719 C 175.035156 610.632812 176.023438 609.503906 177.007812 608.375 C 178 607.246094 178.972656 606.117188 179.964844 605 C 179.226562 606.277344 178.472656 607.558594 177.722656 608.835938 C 176.976562 610.125 176.230469 611.421875 175.492188 612.714844 C 174.59375 614.269531 173.671875 615.824219 172.773438 617.375 C 171.867188 618.933594 170.953125 620.507812 170.03125 622.078125 C 171.234375 620.703125 172.441406 619.328125 173.625 617.949219 C 174.832031 616.589844 176.015625 615.230469 177.207031 613.855469 C 178.203125 612.714844 179.195312 611.570312 180.1875 610.441406 C 181.167969 609.292969 182.167969 608.175781 183.167969 607.046875 C 182.414062 608.34375 181.660156 609.636719 180.917969 610.910156 C 180.179688 612.222656 179.425781 613.515625 178.667969 614.824219 C 177.777344 616.378906 176.867188 617.949219 175.960938 619.523438 C 175.054688 621.113281 174.132812 622.683594 173.21875 624.273438 C 174.429688 622.882812 175.625 621.492188 176.828125 620.113281 C 178.023438 618.71875 179.210938 617.34375 180.394531 615.96875 C 181.398438 614.824219 182.398438 613.679688 183.375 612.519531 C 184.359375 611.386719 185.367188 610.242188 186.375 609.113281 C 185.613281 610.402344 184.878906 611.714844 184.121094 613.007812 C 183.375 614.316406 182.644531 615.625 181.886719 616.953125 C 180.996094 618.542969 180.085938 620.113281 179.179688 621.699219 C 178.269531 623.289062 177.367188 624.878906 176.433594 626.5 C 177.644531 625.09375 178.84375 623.699219 180.054688 622.292969 C 181.257812 620.898438 182.445312 619.507812 183.640625 618.132812 C 184.648438 616.953125 185.640625 615.804688 186.628906 614.644531 C 187.621094 613.480469 188.613281 612.339844 189.621094 611.191406 C 188.875 612.5 188.121094 613.808594 187.363281 615.117188 C 186.613281 616.445312 185.878906 617.789062 185.140625 619.117188 C 184.230469 620.703125 183.335938 622.292969 182.429688 623.894531 C 181.523438 625.5 180.609375 627.105469 179.695312 628.726562 C 180.902344 627.316406 182.109375 625.894531 183.3125 624.503906 C 184.535156 623.097656 185.726562 621.699219 186.925781 620.292969 C 187.921875 619.128906 188.921875 617.949219 189.921875 616.789062 C 190.902344 615.625 191.910156 614.480469 192.925781 613.316406 C 192.171875 614.644531 191.425781 615.96875 190.675781 617.28125 C 189.921875 618.605469 189.175781 619.949219 188.429688 621.292969 C 187.53125 622.898438 186.625 624.503906 185.71875 626.125 C 184.804688 627.746094 183.902344 629.367188 182.992188 631.003906 C 184.214844 629.578125 185.433594 628.152344 186.628906 626.746094 C 187.832031 625.324219 189.0625 623.914062 190.25 622.503906 C 191.265625 621.308594 192.261719 620.148438 193.261719 618.96875 C 194.261719 617.804688 195.253906 616.621094 196.265625 615.460938 C 195.515625 616.789062 194.777344 618.132812 194.03125 619.457031 C 193.277344 620.800781 192.523438 622.160156 191.789062 623.519531 C 190.894531 625.140625 189.988281 626.761719 189.078125 628.382812 C 188.160156 630.019531 187.261719 631.660156 186.332031 633.292969 C 187.546875 631.871094 188.777344 630.433594 189.988281 628.988281 C 191.1875 627.578125 192.402344 626.140625 193.613281 624.734375 C 194.621094 623.535156 195.636719 622.339844 196.636719 621.160156 C 197.632812 619.984375 198.648438 618.820312 199.65625 617.640625 C 198.910156 618.984375 198.175781 620.339844 197.421875 621.683594 C 196.667969 623.027344 195.898438 624.386719 195.167969 625.761719 C 194.269531 627.398438 193.371094 629.042969 192.460938 630.675781 C 191.542969 632.316406 190.632812 633.96875 189.726562 635.621094 C 190.957031 634.183594 192.15625 632.738281 193.378906 631.296875 C 194.589844 629.859375 195.8125 628.414062 197.019531 626.992188 C 198.035156 625.777344 199.035156 624.582031 200.050781 623.390625 C 201.050781 622.191406 202.066406 621.015625 203.089844 619.832031 C 202.335938 621.191406 201.589844 622.535156 200.835938 623.914062 C 200.082031 625.273438 199.332031 626.648438 198.601562 628.039062 C 197.6875 629.675781 196.78125 631.332031 195.882812 632.984375 C 194.976562 634.65625 194.0625 636.3125 193.164062 637.996094 C 194.382812 636.539062 195.621094 635.082031 196.839844 633.644531 C 198.050781 632.183594 199.28125 630.726562 200.484375 629.285156 C 201.5 628.074219 202.515625 626.859375 203.523438 625.648438 C 204.53125 624.453125 205.527344 623.257812 206.542969 622.0625 C 205.808594 623.4375 205.054688 624.796875 204.308594 626.15625 C 203.546875 627.546875 202.8125 628.941406 202.074219 630.332031 C 201.171875 631.988281 200.253906 633.675781 199.355469 635.328125 C 198.445312 637.011719 197.542969 638.699219 196.636719 640.390625 C 197.863281 638.914062 199.085938 637.441406 200.3125 635.980469 C 201.535156 634.507812 202.765625 633.050781 203.972656 631.609375 C 204.988281 630.382812 206.011719 629.152344 207.027344 627.945312 C 208.027344 626.730469 209.042969 625.535156 210.074219 624.320312 C 209.328125 625.714844 208.574219 627.089844 207.835938 628.464844 C 207.082031 629.859375 206.332031 631.25 205.585938 632.675781 C 204.6875 634.34375 203.785156 636.015625 202.882812 637.703125 C 201.976562 639.40625 201.058594 641.105469 200.148438 642.796875 C 201.375 641.320312 202.605469 639.832031 203.832031 638.355469 C 205.070312 636.882812 206.300781 635.425781 207.535156 633.953125 C 208.550781 632.722656 209.574219 631.496094 210.578125 630.265625 C 211.59375 629.042969 212.613281 627.824219 213.628906 626.617188 C 212.890625 628.007812 212.136719 629.398438 211.390625 630.792969 C 210.648438 632.199219 209.917969 633.609375 209.164062 635.03125 C 208.273438 636.734375 207.367188 638.421875 206.46875 640.128906 C 205.5625 641.84375 204.644531 643.546875 203.726562 645.269531 C 204.957031 643.761719 206.191406 642.273438 207.429688 640.78125 C 208.664062 639.308594 209.886719 637.800781 211.105469 636.328125 C 212.136719 635.082031 213.160156 633.835938 214.183594 632.609375 C 215.203125 631.378906 216.199219 630.136719 217.238281 628.921875 C 216.484375 630.332031 215.75 631.742188 215.011719 633.152344 C 214.257812 634.558594 213.519531 635.996094 212.785156 637.425781 C 211.882812 639.144531 210.964844 640.84375 210.074219 642.566406 C 209.164062 644.285156 208.257812 646.023438 207.34375 647.757812 C 208.589844 646.25 209.828125 644.746094 211.0625 643.238281 C 212.292969 641.734375 213.527344 640.222656 214.765625 638.75 C 215.988281 637.246094 217.195312 635.753906 218.417969 634.28125 C 221.480469 630.609375 221.308594 629.367188 218.097656 627.300781 L 104.308594 554.722656 C 103.171875 553.988281 101.964844 555.511719 100.492188 557.585938 C 99.617188 558.816406 98.746094 560.0625 97.886719 561.289062 C 97.003906 562.535156 96.136719 563.777344 95.261719 565.007812 C 94.375 566.269531 93.492188 567.527344 92.601562 568.773438 " fill-opacity="1" fill-rule="evenodd"/><path fill="#ffffff" d="M 586.804688 20.316406 C 587.742188 19.0625 588.175781 19.675781 587.25 20.9375 L 530.386719 95.125 C 529.457031 96.371094 528.511719 95.777344 529.441406 94.519531 L 586.804688 20.316406 " fill-opacity="1" fill-rule="nonzero"/><path fill="#000000" d="M 333.796875 182.382812 C 336.292969 183.640625 337.890625 186.101562 337.851562 189.21875 C 337.78125 194.40625 333.195312 199.433594 327.621094 200.449219 C 324.269531 201.054688 321.324219 200.089844 319.515625 198.109375 L 333.796875 182.382812 " fill-opacity="1" fill-rule="evenodd"/><path fill="#ffffff" d="M 336.285156 194.417969 C 334.394531 196.773438 331.558594 198.566406 328.472656 199.207031 C 326.753906 197.863281 326.074219 195.703125 326.964844 193.566406 C 328.226562 190.558594 332.089844 188.722656 335.601562 189.488281 C 336.414062 189.65625 337.144531 189.96875 337.765625 190.363281 C 337.816406 189.984375 337.839844 189.609375 337.851562 189.21875 C 337.882812 186.921875 337.015625 184.976562 335.5625 183.613281 L 425.230469 77.078125 C 426.792969 75.621094 428.863281 74.644531 431.152344 74.113281 L 345.667969 179.308594 L 434.226562 73.671875 C 437.429688 73.460938 440.789062 73.984375 443.621094 75.082031 L 485.292969 91.277344 C 488.480469 92.515625 491 93.867188 492.957031 95.308594 L 462.496094 152.496094 L 495.96875 98.074219 C 497.996094 100.464844 498.835938 103.054688 498.859375 105.75 C 498.917969 111.472656 495.375 117.84375 491.328125 124.019531 L 433.875 224.234375 C 432.105469 222.027344 429.023438 220.914062 425.492188 221.5625 C 419.914062 222.574219 415.335938 227.605469 415.265625 232.792969 C 415.207031 237.765625 419.324219 241.082031 424.59375 240.4375 L 383.617188 311.921875 L 286.726562 467.269531 C 283.8125 472.359375 281.019531 477.898438 278.644531 483.53125 C 276.476562 488.667969 274.617188 493.914062 273.296875 499.023438 L 254.359375 571.851562 C 253.691406 574.425781 252.65625 576.539062 251.335938 578.191406 C 249.726562 580.203125 247.683594 581.5625 245.402344 582.253906 C 243.089844 582.921875 240.5 582.976562 237.8125 582.367188 C 235.34375 581.808594 232.789062 580.726562 230.277344 579.125 L 113.160156 508.554688 C 111.308594 507.359375 110.320312 505.769531 109.941406 503.855469 C 109.542969 501.859375 109.777344 499.484375 110.363281 496.8125 L 148.59375 421.824219 C 150.363281 418.347656 152.269531 414.917969 154.292969 411.554688 C 156.324219 408.179688 158.492188 404.886719 160.796875 401.703125 L 265.484375 266.851562 L 321.894531 199.835938 C 323.507812 200.589844 325.484375 200.84375 327.621094 200.449219 C 331.257812 199.789062 334.472656 197.417969 336.285156 194.417969 " fill-opacity="1" fill-rule="evenodd"/><path fill="#ffffff" d="M 431.199219 225.679688 C 440.117188 224.050781 439.421875 234.84375 437.988281 237.765625 C 436.9375 239.921875 423.378906 242.605469 423.476562 234.136719 C 423.519531 231.664062 424.910156 229.257812 426.988281 227.609375 C 429.816406 227.0625 431.984375 230.058594 433.207031 234.457031 C 433.925781 230.304688 432.675781 226.964844 431.199219 225.679688 " fill-opacity="1" fill-rule="evenodd"/><path fill="#000000" d="M 161.589844 403.9375 C 160.8125 405 160.007812 406.230469 159.207031 407.488281 L 275.355469 470.875 C 276.238281 469.191406 277.152344 467.527344 278.105469 465.875 Z M 154.890625 414.597656 C 153.996094 416.070312 153.136719 417.5625 152.300781 419.050781 L 269.226562 483.914062 L 269.792969 482.597656 C 270.378906 481.171875 271.015625 479.75 271.667969 478.320312 Z M 151.300781 420.871094 C 150.640625 422.109375 149.980469 423.34375 149.34375 424.597656 L 111.359375 499.085938 C 111.054688 500.613281 110.769531 502.480469 111.0625 503.9375 C 111.207031 504.65625 111.46875 505.164062 112.015625 505.523438 L 213.480469 566.644531 L 233.902344 523.046875 L 216.09375 568.234375 L 229.128906 576.078125 C 236.882812 580.648438 243.058594 580.171875 245.300781 571.492188 L 264.242188 498.679688 C 265.371094 494.339844 266.796875 490.058594 268.449219 485.855469 L 164.09375 427.96875 L 151.703125 447.253906 L 161.566406 426.570312 L 158.339844 424.789062 L 128.824219 481.425781 L 156.550781 423.785156 L 151.300781 420.871094 " fill-opacity="1" fill-rule="evenodd"/><path fill="#ffffff" d="M 100.667969 532.011719 L 84.695312 561.945312 L 87.816406 564.058594 L 102.140625 536.890625 C 102.988281 535.285156 104.171875 525.457031 100.667969 532.011719 Z M 82.574219 560.503906 L 84.265625 557.324219 C 86.410156 553.316406 88.808594 549.597656 84.328125 553.085938 L 78.757812 557.410156 C 78.695312 557.507812 78.636719 557.640625 78.621094 557.785156 C 78.621094 557.800781 78.597656 557.785156 78.574219 557.769531 L 82.574219 560.503906 " fill-opacity="1" fill-rule="nonzero"/><path fill="#000000" d="M 220.292969 417.875 C 225.96875 418.398438 229.554688 422.871094 228.308594 427.839844 C 227.066406 432.808594 221.449219 436.414062 215.78125 435.875 C 210.101562 435.339844 206.503906 430.875 207.757812 425.914062 C 209.011719 420.9375 214.625 417.332031 220.292969 417.875 " fill-opacity="1" fill-rule="evenodd"/><path fill="#ffffff" d="M 222.355469 425.171875 C 219.230469 426.878906 217.214844 429.460938 216.585938 433.105469 C 218.769531 429.796875 221.546875 427.339844 225.082031 426.019531 C 226.988281 427.152344 228 429.167969 227.433594 431.402344 C 226.648438 434.546875 223.101562 436.8125 219.523438 436.476562 C 215.925781 436.136719 213.660156 433.316406 214.445312 430.183594 C 215.242188 427.046875 218.777344 424.835938 222.355469 425.171875 " fill-opacity="1" fill-rule="evenodd"/><path fill="#000000" d="M 253.832031 298.335938 C 265.761719 282.910156 282.035156 268.484375 300.949219 259.933594 C 315.34375 253.421875 333.535156 249.585938 348.992188 256.410156 C 350.726562 257.179688 352.386719 258.066406 353.945312 259.050781 C 355.527344 260.046875 357.011719 261.164062 358.394531 262.371094 C 370.777344 273.214844 372.96875 290.003906 371.152344 304.429688 C 368.742188 323.375 359.378906 342.160156 347.386719 357.65625 C 335.460938 373.082031 319.183594 387.507812 300.269531 396.058594 C 285.875 402.570312 267.695312 406.410156 252.222656 399.582031 C 250.496094 398.808594 248.835938 397.925781 247.277344 396.925781 C 245.703125 395.9375 244.210938 394.828125 242.835938 393.621094 C 230.453125 382.777344 228.253906 365.988281 230.070312 351.5625 C 232.488281 332.617188 241.84375 313.828125 253.832031 298.335938 " fill-opacity="1" fill-rule="evenodd"/><path fill="#ffffff" d="M 254.800781 298.402344 C 266.476562 283.304688 282.46875 269.085938 300.976562 260.71875 C 314.460938 254.625 331.9375 250.695312 346.703125 257.214844 C 348.296875 257.917969 349.835938 258.738281 351.289062 259.660156 C 352.753906 260.585938 354.128906 261.601562 355.40625 262.730469 C 367.207031 273.066406 369.089844 289.289062 367.367188 302.855469 C 365.019531 321.460938 355.730469 339.9375 344.058594 355.035156 C 332.378906 370.144531 316.386719 384.351562 297.871094 392.71875 C 284.382812 398.820312 266.902344 402.757812 252.15625 396.242188 C 250.542969 395.535156 249.019531 394.71875 247.554688 393.785156 C 246.101562 392.867188 244.71875 391.832031 243.449219 390.71875 C 231.652344 380.386719 229.761719 364.160156 231.46875 350.59375 C 233.835938 331.976562 243.105469 313.511719 254.800781 298.402344 " fill-opacity="1" fill-rule="evenodd"/><path fill="#000000" d="M 256.601562 299.550781 C 284.574219 263.371094 326.425781 246.207031 350.082031 261.226562 C 373.738281 276.226562 370.226562 317.71875 342.261719 353.90625 C 314.28125 390.066406 272.421875 407.230469 248.765625 392.230469 C 225.113281 377.21875 228.621094 335.726562 256.601562 299.550781 " fill-opacity="1" fill-rule="evenodd"/><path fill="#ffffff" d="M 267.253906 336.59375 C 269.226562 334.546875 273.691406 331.664062 276.03125 334.308594 C 278.367188 336.90625 277.253906 345.136719 274.8125 349.792969 C 273.460938 344.421875 271.882812 340.460938 271.46875 340.082031 C 271.054688 339.707031 269.039062 339.476562 267.761719 339.675781 C 266.945312 339.835938 266.675781 339.96875 266.519531 340.113281 C 266.429688 340.171875 266.394531 340.3125 266.460938 340.3125 C 266.707031 340.199219 266.992188 340.277344 267.425781 340.589844 C 269.097656 341.835938 270.5 347.125 272.46875 353.390625 C 271.714844 354.558594 271.367188 355.132812 271.660156 355.3125 C 271.890625 355.457031 272.644531 355.363281 273.144531 355.234375 C 273.566406 356.671875 273.988281 358.023438 274.425781 359.34375 C 269.007812 370.027344 267.058594 381.4375 272.691406 383.558594 C 275.863281 384.734375 280.871094 381.714844 282.863281 379.417969 C 283.125 379.125 283.371094 378.8125 283.621094 378.488281 C 284.398438 379.0625 285.527344 379.027344 286.375 378.847656 C 288.25 378.683594 290.066406 377.488281 291.925781 375.460938 C 295.597656 371.429688 299.445312 363.914062 304.1875 354.648438 C 314.382812 334.746094 335.664062 300.226562 355.035156 290.558594 C 341.140625 282.773438 305.871094 346.652344 302.210938 353.789062 C 297.535156 362.929688 293.738281 370.347656 290.222656 374.195312 C 288.644531 375.929688 287.148438 376.867188 285.679688 376.835938 C 285.550781 376.636719 285.410156 376.429688 285.261719 376.191406 C 288.054688 371.917969 290.34375 366.226562 291.527344 360.882812 C 293.378906 352.53125 293.007812 345.9375 288.824219 343.511719 C 288.40625 343.277344 287.929688 343.105469 287.464844 342.988281 C 288.125 342.296875 288.914062 341.535156 289.820312 340.738281 C 290.605469 343.339844 291.710938 345.453125 292.871094 346.191406 C 294.253906 347.058594 297.355469 346.601562 297.929688 345.878906 C 298.671875 344.894531 298.148438 339.347656 297.363281 334.644531 L 296.898438 331.84375 C 298.226562 335.527344 299.027344 337.378906 299.394531 337.839844 C 299.46875 337.925781 299.570312 338.019531 299.65625 338.070312 C 300.691406 338.855469 303.597656 338.601562 304.332031 337.640625 C 304.347656 337.625 304.371094 337.589844 304.402344 337.496094 C 304.890625 336.167969 303.792969 330.746094 302.75 326.753906 L 303.71875 328.921875 C 304.1875 329.929688 304.601562 330.664062 305.003906 331.15625 C 305.675781 331.949219 308.460938 331.695312 308.722656 331.457031 C 309.003906 331.222656 309.050781 330.917969 308.746094 330.988281 C 308.542969 330.980469 308 330.402344 307.355469 329.289062 C 305.960938 326.863281 304.679688 323.175781 304.171875 318.890625 C 303.800781 315.925781 303.804688 313.617188 304.796875 311.960938 C 305.242188 311.226562 305.921875 310.882812 306.402344 310.882812 C 306.777344 310.898438 307.175781 310.996094 307.445312 311.207031 C 307.335938 310.617188 306.546875 309.914062 306.183594 309.667969 C 304.863281 308.710938 302.933594 308.753906 302.636719 309.359375 C 302.023438 310.71875 302.644531 315.53125 303.011719 317.890625 C 303.226562 319.113281 303.480469 320.28125 303.800781 321.414062 C 302.835938 318.898438 302.058594 316.792969 301.707031 316.570312 C 301.320312 316.292969 299.253906 316.292969 298.378906 316.484375 C 297.289062 316.730469 297.339844 317.097656 297.363281 317.074219 C 297.980469 316.785156 298.796875 317.835938 299.4375 319.171875 C 299.792969 319.964844 300.5 321.570312 301.199219 323.183594 C 302.292969 328.78125 302.9375 335.390625 302.515625 335.9375 C 302.421875 336.050781 302.351562 336.019531 302.285156 335.972656 C 301.777344 335.613281 300.269531 332.710938 299.101562 328.714844 L 298.78125 327.585938 C 298.75 327.523438 298.734375 327.472656 298.671875 327.4375 C 298.433594 327.261719 297.3125 327.144531 296.40625 327.148438 C 296.578125 326.101562 296.464844 324.84375 296.039062 324.574219 C 294.300781 323.476562 291.558594 324.121094 290.035156 326.113281 C 288.636719 327.914062 288.355469 331.84375 288.808594 335.75 C 288.984375 337.3125 289.300781 338.886719 289.699219 340.320312 C 288.617188 341.128906 287.515625 342.015625 286.585938 342.835938 C 283.714844 342.621094 280.5625 344.585938 278.269531 346.601562 C 280.296875 342.03125 281.65625 336.609375 279.027344 333.933594 C 277.777344 332.617188 271.785156 330.859375 266.714844 334.53125 C 262.570312 337.542969 259.039062 342.996094 257.3125 348.230469 C 255.511719 353.660156 255.820312 358.5625 258.746094 360.535156 C 259.8125 361.242188 261.179688 361.183594 262.34375 360.75 C 263.675781 360.289062 264.578125 359.519531 265.609375 358.351562 C 265.871094 358.066406 265.714844 357.820312 265.191406 358.230469 C 263.511719 359.511719 262.496094 359.652344 261.726562 359.324219 C 259.207031 358.175781 259.621094 353.460938 260.082031 350.664062 C 260.949219 345.371094 263.59375 340.394531 267.253906 336.59375 Z M 332.074219 282.8125 C 331.699219 279.847656 331.707031 277.535156 332.707031 275.882812 C 333.140625 275.144531 333.828125 274.800781 334.304688 274.800781 C 334.6875 274.820312 335.074219 274.917969 335.351562 275.128906 C 335.246094 274.539062 334.449219 273.835938 334.089844 273.582031 C 332.765625 272.625 330.839844 272.671875 330.539062 273.277344 C 329.914062 274.640625 330.554688 279.445312 330.914062 281.8125 C 331.132812 283.035156 331.378906 284.203125 331.699219 285.332031 C 330.730469 282.828125 329.953125 280.714844 329.609375 280.484375 C 329.21875 280.214844 327.164062 280.207031 326.277344 280.402344 C 325.183594 280.652344 325.246094 281.023438 325.269531 280.992188 C 325.875 280.714844 326.695312 281.753906 327.335938 283.089844 C 327.6875 283.84375 328.324219 285.316406 328.980469 286.839844 L 328.980469 286.855469 C 329.398438 290.605469 329.246094 294.691406 328.878906 297.832031 C 328.664062 299.957031 328.210938 303.152344 327.1875 304.476562 C 326.882812 304.882812 326.484375 305.050781 326.074219 304.75 C 325.507812 304.316406 324.410156 303.109375 323.625 301.1875 C 327.148438 296.582031 327.195312 287.332031 325.753906 286.421875 C 324.28125 285.488281 321.429688 285.734375 320.25 287.265625 C 319.253906 288.542969 318.84375 290.738281 318.777344 293.324219 C 318.753906 294.675781 318.875 296.226562 319.128906 297.753906 C 318.554688 298.667969 317.699219 300 317.300781 300.679688 C 316.746094 300.074219 316.125 299.597656 315.425781 299.269531 C 313.996094 298.613281 310.679688 299.507812 309.582031 300.941406 C 308.859375 301.867188 308.335938 302.957031 308.136719 303.847656 L 304.332031 294.550781 C 304.289062 294.488281 304.257812 294.421875 304.210938 294.390625 C 303.804688 294.113281 302.167969 293.851562 300.835938 294.121094 C 299.746094 294.375 299.535156 294.914062 299.5625 294.882812 C 300.171875 294.605469 300.945312 295.4375 301.707031 296.730469 C 302.351562 297.886719 302.980469 299.074219 303.5625 300.335938 C 305.539062 304.609375 307.5 310.128906 309.648438 313.910156 C 310.121094 314.746094 310.808594 315.976562 311.355469 316.316406 C 311.484375 316.390625 311.652344 316.382812 311.890625 316.351562 C 311.839844 318.414062 312.253906 319.832031 312.953125 320.273438 C 313.585938 320.675781 314.445312 320.734375 315.617188 320.542969 C 316.925781 320.296875 318.15625 319.546875 318.777344 318.742188 C 320.582031 316.398438 320.914062 312.921875 320.742188 310.308594 C 320.605469 307.972656 319.769531 303.886719 317.808594 301.300781 C 318.15625 300.648438 318.761719 299.515625 319.277344 298.5625 C 319.589844 300.058594 320.003906 301.496094 320.554688 302.710938 C 321.265625 304.285156 322.175781 305.566406 323.222656 306.199219 C 324.65625 307.074219 328.472656 306.425781 329.398438 305.214844 C 331.128906 303.003906 331.042969 295.042969 329.929688 289.003906 L 330.414062 290.132812 L 331.625 292.835938 C 332.089844 293.851562 332.511719 294.59375 332.910156 295.078125 C 333.582031 295.878906 336.367188 295.617188 336.628906 295.378906 C 336.90625 295.144531 336.953125 294.851562 336.652344 294.898438 C 336.445312 294.890625 335.898438 294.316406 335.253906 293.210938 C 333.859375 290.785156 332.582031 287.101562 332.074219 282.8125 Z M 322.679688 287.054688 C 322.824219 286.875 322.996094 286.753906 323.257812 286.921875 C 323.601562 287.144531 324.296875 288.640625 324.4375 291.457031 C 324.574219 294.121094 324.371094 297.878906 323.289062 300.171875 C 321.871094 295.503906 321.128906 289.066406 322.679688 287.054688 Z M 310.242188 306.035156 C 310.121094 303.90625 310.425781 301.859375 311.164062 300.902344 C 311.570312 300.375 312.167969 300.039062 312.746094 300.300781 C 313.347656 300.574219 314.496094 301.933594 315.488281 303.984375 C 313.519531 307.964844 312.554688 311.160156 312.109375 313.796875 C 310.875 310.996094 310.367188 308.539062 310.242188 306.035156 Z M 315.863281 319.511719 C 315.4375 320.054688 315.050781 319.941406 314.828125 319.789062 C 314.214844 319.398438 312.585938 315.109375 315.125 307.34375 C 315.28125 306.871094 315.472656 306.402344 315.996094 305.167969 C 316.328125 306.050781 316.617188 307.019531 316.84375 308.058594 C 317.5 311.160156 317.761719 314.65625 316.96875 317.292969 C 316.6875 318.160156 316.371094 318.859375 315.863281 319.511719 Z M 294.800781 327.785156 C 296.890625 329.414062 296.578125 343.71875 295.84375 344.667969 C 295.699219 344.847656 295.570312 344.792969 295.492188 344.742188 C 294.515625 344.109375 292.886719 339.59375 292.027344 334.808594 C 291.433594 331.476562 291.34375 328.136719 292.3125 326.015625 C 292.394531 325.769531 292.542969 325.53125 292.703125 325.328125 C 292.992188 324.949219 293.386719 324.71875 293.949219 324.933594 C 294.574219 325.179688 295.269531 325.917969 295.761719 327.203125 C 295.300781 327.246094 295.183594 327.277344 295.070312 327.324219 C 294.441406 327.523438 294.5 327.785156 294.523438 327.761719 C 294.636719 327.714844 294.746094 327.753906 294.800781 327.785156 Z M 287.921875 359.914062 C 286.898438 364.335938 285.527344 369.070312 283.597656 373.226562 C 281.601562 369.429688 279.503906 364.574219 278.34375 361.195312 C 277.9375 360.035156 277.507812 358.867188 277.121094 357.699219 C 278.882812 354.207031 280.78125 351.1875 283.09375 348.203125 C 284.015625 346.992188 285.027344 345.765625 286.097656 344.546875 C 288.636719 346.378906 289.617188 352.382812 287.921875 359.914062 Z M 278.488281 381.023438 C 277.707031 381.792969 276.179688 382.875 275.035156 382.53125 C 272.230469 381.648438 271.160156 374.570312 274.089844 365.335938 C 274.453125 364.222656 274.847656 363.042969 275.320312 361.855469 C 277.238281 366.84375 279.320312 371.726562 282 376.292969 C 280.972656 378.078125 279.816406 379.691406 278.488281 381.023438 Z M 276.457031 355.65625 C 276.070312 354.445312 275.730469 353.214844 275.410156 351.972656 C 276.1875 350.628906 276.691406 349.828125 277.261719 349.074219 C 279.429688 346.265625 282.984375 343.6875 285.210938 344.179688 C 283.707031 345.800781 282.222656 347.550781 280.832031 349.355469 C 279.242188 351.398438 277.761719 353.535156 276.457031 355.65625 " fill-opacity="1" fill-rule="evenodd"/><path fill="#000000" d="M 250.371094 379.75 C 256.050781 380.289062 259.636719 384.742188 258.394531 389.722656 C 257.140625 394.683594 251.523438 398.285156 245.855469 397.746094 C 240.175781 397.222656 236.582031 392.753906 237.835938 387.789062 C 239.085938 382.8125 244.703125 379.226562 250.371094 379.75 " fill-opacity="1" fill-rule="evenodd"/><path fill="#ffffff" d="M 248.898438 378.675781 C 249.664062 378.75 250.394531 378.902344 251.058594 379.125 C 246.800781 381.5 244.351562 385.21875 241.820312 390.238281 C 245.285156 385.789062 249.953125 382.761719 254.375 381.320312 C 255.707031 382.875 256.265625 384.957031 255.71875 387.140625 C 254.652344 391.359375 249.886719 394.421875 245.070312 393.960938 C 240.25 393.515625 237.191406 389.722656 238.257812 385.496094 C 239.316406 381.269531 244.089844 378.222656 248.898438 378.675781 " fill-opacity="1" fill-rule="evenodd"/><path fill="#000000" d="M 347.410156 254.25 C 353.085938 254.789062 356.675781 259.242188 355.4375 264.222656 C 354.183594 269.183594 348.566406 272.789062 342.890625 272.25 C 337.214844 271.722656 333.625 267.253906 334.878906 262.292969 C 336.121094 257.3125 341.738281 253.726562 347.410156 254.25 " fill-opacity="1" fill-rule="evenodd"/><path fill="#ffffff" d="M 345.949219 253.183594 C 346.710938 253.25 347.4375 253.40625 348.109375 253.644531 C 343.835938 256 341.386719 259.71875 338.863281 264.738281 C 342.328125 260.292969 346.988281 257.261719 351.410156 255.824219 C 352.753906 257.375 353.300781 259.457031 352.761719 261.640625 C 351.695312 265.863281 346.929688 268.921875 342.105469 268.464844 C 337.292969 268.015625 334.230469 264.222656 335.300781 259.996094 C 336.351562 255.78125 341.125 252.726562 345.949219 253.183594 " fill-opacity="1" fill-rule="evenodd"/></svg>