<svg xmlns="http://www.w3.org/2000/svg" xmlns:xlink="http://www.w3.org/1999/xlink" width="100" zoomAndPan="magnify" viewBox="0 0 675 675.000002" height="100" preserveAspectRatio="xMidYMid meet" version="1.0"><defs><clipPath id="26dda2845c"><path d="M 249.351562 9.007812 L 425.339844 9.007812 L 425.339844 664 L 249.351562 664 Z M 249.351562 9.007812 " clip-rule="nonzero"/></clipPath></defs><path fill="#ffffff" d="M 272.824219 548.226562 C 273.382812 548.289062 273.945312 548.359375 274.511719 548.421875 L 274.511719 199.894531 C 271.476562 200.234375 268.445312 200.59375 265.417969 200.988281 L 265.417969 547.324219 C 265.890625 547.382812 266.355469 547.449219 266.828125 547.511719 L 269.820312 224.007812 L 272.824219 548.226562 " fill-opacity="1" fill-rule="nonzero"/><path fill="#ffffff" d="M 408.082031 547.511719 C 408.546875 547.449219 409.019531 547.382812 409.484375 547.324219 L 409.484375 200.988281 C 406.460938 200.59375 403.429688 200.234375 400.394531 199.894531 L 400.394531 548.421875 C 400.957031 548.359375 401.523438 548.289062 402.082031 548.226562 L 405.085938 224.007812 L 408.082031 547.511719 " fill-opacity="1" fill-rule="nonzero"/><path fill="#ffffff" d="M 318.753906 654.847656 C 318.753906 654.847656 327.574219 651.277344 337.726562 642.203125 C 326.109375 641.5 314.585938 639.875 303.3125 637.300781 C 316.171875 638.828125 329.09375 639.113281 341.855469 638.265625 C 342.980469 637.117188 344.113281 635.886719 345.234375 634.597656 C 327.035156 633.945312 308.964844 631.597656 291.339844 627.574219 C 310.976562 629.902344 330.71875 630.160156 350.140625 628.421875 C 351.734375 626.226562 353.28125 623.878906 354.753906 621.351562 C 348.988281 621.515625 343.21875 621.597656 337.453125 621.597656 C 317.574219 621.597656 297.691406 620.632812 277.878906 618.726562 C 286.933594 642.832031 310.214844 660.046875 337.453125 660.046875 C 364.691406 660.046875 387.976562 642.832031 397.027344 618.726562 C 395.910156 618.832031 394.796875 618.929688 393.679688 619.03125 C 381.957031 648.371094 349.492188 664.289062 318.753906 654.847656 " fill-opacity="1" fill-rule="nonzero"/><path fill="#ffffff" d="M 391.75 305.773438 C 392.003906 315.519531 392.113281 325.265625 392.234375 335.015625 C 393.597656 332.953125 394.828125 330.824219 395.882812 328.597656 L 395.882812 284.769531 C 394.628906 287.421875 393.121094 289.941406 391.429688 292.363281 C 391.542969 296.832031 391.65625 301.300781 391.75 305.773438 " fill-opacity="1" fill-rule="nonzero"/><path fill="#ffffff" d="M 395.882812 548.921875 L 395.882812 547.726562 C 395.679688 548.15625 395.449219 548.566406 395.234375 548.988281 C 395.449219 548.964844 395.667969 548.945312 395.882812 548.921875 " fill-opacity="1" fill-rule="nonzero"/><path fill="#ffffff" d="M 390.308594 513.0625 C 392.46875 510.164062 394.355469 507.132812 395.882812 503.902344 C 395.882812 503.902344 395.882812 503.902344 395.882812 503.898438 L 395.882812 460.074219 C 394.695312 462.589844 393.269531 464.984375 391.691406 467.285156 C 391.359375 482.542969 390.917969 497.800781 390.308594 513.0625 " fill-opacity="1" fill-rule="nonzero"/><path fill="#ffffff" d="M 392.582031 385.089844 L 392.394531 422.429688 C 393.695312 420.441406 394.871094 418.386719 395.882812 416.25 L 395.882812 372.421875 C 394.910156 374.480469 393.789062 376.464844 392.546875 378.382812 L 392.582031 385.089844 " fill-opacity="1" fill-rule="nonzero"/><path fill="#000000" d="M 388.824219 543.726562 C 388.289062 534.667969 387.867188 525.609375 387.488281 516.554688 C 384.9375 519.507812 382.101562 522.3125 379.007812 524.980469 C 374.214844 529.113281 368.84375 532.945312 363.140625 536.605469 C 361.714844 537.519531 360.265625 538.421875 358.804688 539.320312 C 356.609375 540.664062 354.371094 541.988281 352.117188 543.296875 C 349.101562 545.046875 346.042969 546.769531 342.96875 548.492188 C 340.886719 549.65625 338.800781 550.816406 336.714844 551.980469 C 336.960938 551.980469 337.207031 551.988281 337.453125 551.988281 C 356.742188 551.988281 376.023438 550.976562 395.234375 548.988281 C 395.449219 548.566406 395.679688 548.15625 395.882812 547.726562 L 395.882812 503.902344 C 394.355469 507.132812 392.46875 510.164062 390.308594 513.0625 C 389.898438 523.28125 389.429688 533.503906 388.824219 543.726562 " fill-opacity="1" fill-rule="nonzero"/><path fill="#000000" d="M 375.726562 440.027344 C 371.808594 443.148438 367.578125 446.101562 363.140625 448.953125 C 361.714844 449.867188 360.265625 450.769531 358.804688 451.667969 C 356.609375 453.011719 354.371094 454.332031 352.117188 455.644531 C 349.101562 457.390625 346.042969 459.117188 342.96875 460.835938 C 340.664062 462.125 338.347656 463.414062 336.042969 464.707031 C 332.617188 466.613281 329.207031 468.535156 325.84375 470.484375 L 325.84375 514.308594 C 329.207031 512.359375 332.617188 510.441406 336.042969 508.53125 C 338.347656 507.242188 340.664062 505.953125 342.96875 504.667969 C 346.042969 502.945312 349.101562 501.21875 352.117188 499.472656 C 354.371094 498.160156 356.609375 496.835938 358.804688 495.492188 C 360.265625 494.597656 361.714844 493.691406 363.140625 492.777344 C 367.953125 489.6875 372.507812 486.460938 376.703125 483.050781 C 376.390625 473.066406 376.144531 463.078125 375.949219 453.09375 C 375.839844 448.734375 375.785156 444.382812 375.726562 440.027344 " fill-opacity="1" fill-rule="nonzero"/><path fill="#000000" d="M 392.386719 424.75 C 392.175781 437.96875 392.109375 451.1875 391.761719 464.410156 C 391.738281 465.367188 391.714844 466.324219 391.691406 467.285156 C 393.269531 464.984375 394.695312 462.589844 395.882812 460.074219 L 395.882812 416.25 C 394.871094 418.386719 393.695312 420.441406 392.394531 422.429688 L 392.386719 424.75 " fill-opacity="1" fill-rule="nonzero"/><path fill="#000000" d="M 385.355469 431.261719 C 384.953125 431.6875 384.5625 432.125 384.148438 432.542969 C 383.121094 433.582031 382.042969 434.59375 380.945312 435.597656 C 380.875 441.429688 380.789062 447.261719 380.648438 453.09375 C 380.46875 462.15625 380.242188 471.222656 379.972656 480.289062 C 382.15625 478.355469 384.21875 476.355469 386.125 474.277344 C 386.046875 470.988281 385.960938 467.695312 385.890625 464.410156 C 385.597656 453.359375 385.503906 442.308594 385.355469 431.261719 " fill-opacity="1" fill-rule="nonzero"/><path fill="#000000" d="M 305.09375 527.636719 L 305.09375 483.808594 C 302.324219 485.859375 299.683594 487.976562 297.199219 490.1875 C 296.824219 501.9375 296.347656 513.691406 295.714844 525.445312 C 295.132812 514.574219 294.691406 503.707031 294.328125 492.835938 C 291.917969 495.167969 289.695312 497.601562 287.679688 500.148438 C 287.195312 514.410156 286.585938 528.667969 285.753906 542.929688 C 285.023438 530.390625 284.460938 517.851562 284.007812 505.316406 C 281.996094 508.507812 280.3125 511.878906 279.023438 515.46875 L 279.023438 548.921875 C 280.632812 549.089844 282.242188 549.242188 283.851562 549.394531 C 289.03125 541.09375 296.457031 534.027344 305.09375 527.636719 " fill-opacity="1" fill-rule="nonzero"/><path fill="#ffffff" d="M 381.144531 419.09375 C 381.066406 424.59375 381.011719 430.09375 380.945312 435.597656 C 382.042969 434.59375 383.121094 433.582031 384.148438 432.542969 C 384.5625 432.125 384.953125 431.6875 385.355469 431.261719 C 385.328125 429.09375 385.300781 426.921875 385.265625 424.75 L 385.082031 387.726562 C 383.863281 389.003906 382.597656 390.253906 381.273438 391.472656 L 381.144531 419.09375 " fill-opacity="1" fill-rule="nonzero"/><path fill="#000000" d="M 282.816406 462.503906 C 282.472656 449.101562 282.398438 435.695312 282.195312 422.292969 L 282.183594 420.792969 C 280.964844 423.042969 279.898438 425.375 279.023438 427.816406 L 279.023438 471.640625 C 280.054688 468.773438 281.335938 466.039062 282.839844 463.425781 C 282.835938 463.117188 282.824219 462.8125 282.816406 462.503906 " fill-opacity="1" fill-rule="nonzero"/><path fill="#000000" d="M 375.449219 352.601562 C 371.609375 355.640625 367.472656 358.519531 363.140625 361.300781 C 361.714844 362.214844 360.265625 363.117188 358.804688 364.015625 C 356.609375 365.355469 354.371094 366.679688 352.117188 367.992188 C 349.101562 369.742188 346.042969 371.464844 342.96875 373.1875 C 340.664062 374.476562 338.347656 375.761719 336.042969 377.050781 C 332.617188 378.960938 329.207031 380.882812 325.84375 382.832031 L 325.84375 426.65625 C 329.207031 424.710938 332.617188 422.789062 336.042969 420.878906 C 338.347656 419.589844 340.664062 418.300781 342.96875 417.011719 C 346.042969 415.292969 349.101562 413.566406 352.117188 411.820312 C 354.371094 410.507812 356.609375 409.1875 358.804688 407.839844 C 360.265625 406.945312 361.714844 406.039062 363.140625 405.125 C 367.433594 402.371094 371.535156 399.519531 375.34375 396.515625 L 375.292969 385.089844 L 375.449219 352.601562 " fill-opacity="1" fill-rule="nonzero"/><path fill="#000000" d="M 392.375 345.433594 L 392.546875 378.382812 C 393.789062 376.464844 394.910156 374.480469 395.882812 372.421875 L 395.882812 328.597656 C 394.828125 330.824219 393.597656 332.953125 392.234375 335.015625 C 392.277344 338.488281 392.320312 341.957031 392.375 345.433594 " fill-opacity="1" fill-rule="nonzero"/><path fill="#000000" d="M 292.808594 406.699219 C 291.613281 407.914062 290.464844 409.15625 289.371094 410.433594 L 289.3125 422.292969 C 289.144531 433.160156 289.058594 444.023438 288.851562 454.890625 C 290.238281 453.226562 291.722656 451.613281 293.285156 450.050781 C 293.097656 440.089844 293.011719 430.136719 292.871094 420.179688 L 292.808594 406.699219 " fill-opacity="1" fill-rule="nonzero"/><path fill="#000000" d="M 381.136719 351.085938 L 381.300781 385.089844 L 381.273438 391.472656 C 382.597656 390.253906 383.863281 389.003906 385.082031 387.726562 L 385.070312 385.089844 L 385.273438 345.433594 C 385.285156 344.84375 385.292969 344.253906 385.300781 343.671875 C 383.964844 345.082031 382.5625 346.460938 381.101562 347.804688 C 381.109375 348.898438 381.121094 349.992188 381.136719 351.085938 " fill-opacity="1" fill-rule="nonzero"/><path fill="#000000" d="M 298.566406 420.179688 C 298.445312 428.605469 298.355469 437.03125 298.230469 445.457031 C 300.410156 443.574219 302.703125 441.753906 305.09375 439.984375 L 305.09375 396.15625 C 302.859375 397.8125 300.707031 399.515625 298.652344 401.273438 L 298.566406 420.179688 " fill-opacity="1" fill-rule="nonzero"/><path fill="#ffffff" d="M 380.359375 304.636719 C 380.457031 308.789062 380.554688 312.9375 380.636719 317.085938 C 380.886719 327.324219 380.964844 337.5625 381.101562 347.804688 C 382.5625 346.460938 383.964844 345.082031 385.300781 343.671875 C 385.484375 331.039062 385.570312 318.40625 385.902344 305.773438 C 385.949219 303.523438 386.011719 301.28125 386.0625 299.035156 C 385.4375 299.71875 384.804688 300.394531 384.148438 301.0625 C 382.941406 302.285156 381.664062 303.46875 380.359375 304.636719 " fill-opacity="1" fill-rule="nonzero"/><path fill="#000000" d="M 289.304688 341.871094 L 289.433594 366.539062 C 290.507812 365.285156 291.640625 364.0625 292.816406 362.867188 L 292.875 350 C 293.023438 339.511719 293.105469 329.027344 293.316406 318.535156 C 291.824219 320.035156 290.398438 321.570312 289.058594 323.152344 C 289.140625 329.394531 289.207031 335.632812 289.304688 341.871094 " fill-opacity="1" fill-rule="nonzero"/><path fill="#000000" d="M 384.148438 301.0625 C 384.804688 300.394531 385.4375 299.71875 386.0625 299.035156 C 386.40625 283.886719 386.859375 268.738281 387.492188 253.585938 C 384.945312 256.546875 382.105469 259.347656 379.007812 262.023438 C 378.984375 262.042969 378.957031 262.0625 378.929688 262.085938 C 379.574219 276.269531 380.027344 290.453125 380.359375 304.636719 C 381.664062 303.46875 382.941406 302.285156 384.148438 301.0625 " fill-opacity="1" fill-rule="nonzero"/><path fill="#000000" d="M 282.203125 341.871094 C 282.246094 338.875 282.285156 335.878906 282.324219 332.886719 C 281.046875 335.214844 279.929688 337.632812 279.023438 340.160156 L 279.023438 383.988281 C 279.859375 381.660156 280.867188 379.429688 282.019531 377.269531 L 282.203125 341.871094 " fill-opacity="1" fill-rule="nonzero"/><path fill="#000000" d="M 363.140625 273.648438 C 361.714844 274.5625 360.265625 275.464844 358.804688 276.363281 C 356.609375 277.703125 354.371094 279.027344 352.117188 280.339844 C 349.101562 282.085938 346.042969 283.8125 342.96875 285.53125 C 340.664062 286.820312 338.347656 288.105469 336.042969 289.398438 C 332.617188 291.308594 329.207031 293.230469 325.84375 295.175781 L 325.84375 339.003906 C 329.207031 337.054688 332.617188 335.136719 336.042969 333.226562 C 338.347656 331.933594 340.664062 330.648438 342.96875 329.359375 C 346.042969 327.640625 349.101562 325.914062 352.117188 324.167969 C 354.371094 322.855469 356.609375 321.53125 358.804688 320.1875 C 360.265625 319.292969 361.714844 318.386719 363.140625 317.472656 C 367.746094 314.519531 372.117188 311.441406 376.15625 308.195312 C 376.488281 293.1875 376.9375 278.179688 377.613281 263.171875 C 373.171875 266.863281 368.304688 270.328125 363.140625 273.648438 " fill-opacity="1" fill-rule="nonzero"/><path fill="#000000" d="M 391.429688 292.363281 C 393.121094 289.941406 394.628906 287.421875 395.882812 284.769531 L 395.882812 240.945312 C 394.292969 244.304688 392.308594 247.457031 390.027344 250.460938 C 390.636719 264.429688 391.085938 278.394531 391.429688 292.363281 " fill-opacity="1" fill-rule="nonzero"/><path fill="#000000" d="M 298.054688 314.914062 C 298.332031 326.609375 298.394531 338.304688 298.558594 350 L 298.59375 357.496094 C 300.667969 355.722656 302.835938 354.003906 305.09375 352.328125 L 305.09375 308.503906 C 302.632812 310.328125 300.277344 312.203125 298.039062 314.144531 C 298.042969 314.398438 298.050781 314.652344 298.054688 314.914062 " fill-opacity="1" fill-rule="nonzero"/><path fill="#ffffff" d="M 305.09375 220.851562 L 305.09375 264.675781 C 302.207031 266.816406 299.453125 269.03125 296.878906 271.34375 C 296.550781 262.476562 296.1875 253.605469 295.714844 244.734375 C 295.207031 254.34375 294.816406 263.957031 294.476562 273.570312 C 292.207031 275.753906 290.09375 278.027344 288.171875 280.40625 C 287.792969 266.445312 287.300781 252.492188 286.644531 238.535156 C 291.558594 231.960938 297.90625 226.171875 305.09375 220.851562 Z M 305.09375 352.328125 C 302.835938 354.003906 300.667969 355.722656 298.59375 357.496094 L 298.558594 350 C 298.394531 338.304688 298.332031 326.609375 298.054688 314.914062 C 298.050781 314.652344 298.042969 314.398438 298.039062 314.144531 C 300.277344 312.203125 302.632812 310.328125 305.09375 308.503906 Z M 305.09375 439.984375 C 302.703125 441.753906 300.410156 443.574219 298.230469 445.457031 C 298.355469 437.03125 298.445312 428.605469 298.566406 420.179688 L 298.652344 401.273438 C 300.707031 399.515625 302.859375 397.8125 305.09375 396.15625 Z M 292.875 350 L 292.816406 362.867188 C 291.640625 364.0625 290.507812 365.285156 289.433594 366.539062 L 289.304688 341.871094 C 289.207031 335.632812 289.140625 329.394531 289.058594 323.152344 C 290.398438 321.570312 291.824219 320.035156 293.316406 318.535156 C 293.105469 329.027344 293.023438 339.511719 292.875 350 Z M 288.851562 454.890625 C 289.058594 444.023438 289.144531 433.160156 289.3125 422.292969 L 289.371094 410.433594 C 290.464844 409.15625 291.613281 407.914062 292.808594 406.699219 L 292.871094 420.179688 C 293.011719 430.136719 293.097656 440.089844 293.285156 450.050781 C 291.722656 451.613281 290.238281 453.226562 288.851562 454.890625 Z M 285.753906 542.929688 C 286.585938 528.667969 287.195312 514.410156 287.679688 500.148438 C 289.695312 497.601562 291.917969 495.167969 294.328125 492.835938 C 294.691406 503.707031 295.132812 514.574219 295.714844 525.445312 C 296.347656 513.691406 296.824219 501.9375 297.199219 490.1875 C 299.683594 487.976562 302.324219 485.859375 305.09375 483.808594 L 305.09375 527.636719 C 296.457031 534.027344 289.03125 541.09375 283.851562 549.394531 C 301.4375 551.085938 319.074219 551.957031 336.714844 551.980469 C 338.800781 550.816406 340.886719 549.65625 342.96875 548.492188 C 346.042969 546.769531 349.101562 545.046875 352.117188 543.296875 C 354.371094 541.988281 356.609375 540.664062 358.804688 539.320312 C 360.265625 538.421875 361.714844 537.519531 363.140625 536.605469 C 368.84375 532.945312 374.214844 529.113281 379.007812 524.980469 C 382.101562 522.3125 384.9375 519.507812 387.488281 516.554688 C 386.894531 502.464844 386.460938 488.367188 386.125 474.277344 C 384.21875 476.355469 382.15625 478.355469 379.972656 480.289062 C 379.570312 493.894531 379.046875 507.496094 378.296875 521.097656 C 377.59375 508.417969 377.09375 495.734375 376.703125 483.050781 C 372.507812 486.460938 367.953125 489.6875 363.140625 492.777344 C 361.714844 493.691406 360.265625 494.597656 358.804688 495.492188 C 356.609375 496.835938 354.371094 498.160156 352.117188 499.472656 C 349.101562 501.21875 346.042969 502.945312 342.96875 504.667969 C 340.664062 505.953125 338.347656 507.242188 336.042969 508.53125 C 332.617188 510.441406 329.207031 512.359375 325.84375 514.308594 L 325.84375 470.484375 C 329.207031 468.535156 332.617188 466.613281 336.042969 464.707031 C 338.347656 463.414062 340.664062 462.125 342.96875 460.835938 C 346.042969 459.117188 349.101562 457.390625 352.117188 455.644531 C 354.371094 454.332031 356.609375 453.011719 358.804688 451.667969 C 360.265625 450.769531 361.714844 449.867188 363.140625 448.953125 C 367.578125 446.101562 371.808594 443.148438 375.726562 440.027344 C 375.628906 433.050781 375.550781 426.070312 375.449219 419.09375 L 375.34375 396.515625 C 371.535156 399.519531 367.433594 402.371094 363.140625 405.125 C 361.714844 406.039062 360.265625 406.945312 358.804688 407.839844 C 356.609375 409.1875 354.371094 410.507812 352.117188 411.820312 C 349.101562 413.566406 346.042969 415.292969 342.96875 417.011719 C 340.664062 418.300781 338.347656 419.589844 336.042969 420.878906 C 332.617188 422.789062 329.207031 424.710938 325.84375 426.65625 L 325.84375 382.832031 C 329.207031 380.882812 332.617188 378.960938 336.042969 377.050781 C 338.347656 375.761719 340.664062 374.476562 342.96875 373.1875 C 346.042969 371.464844 349.101562 369.742188 352.117188 367.992188 C 354.371094 366.679688 356.609375 365.355469 358.804688 364.015625 C 360.265625 363.117188 361.714844 362.214844 363.140625 361.300781 C 367.472656 358.519531 371.609375 355.640625 375.449219 352.601562 L 375.457031 351.085938 C 375.621094 339.753906 375.683594 328.417969 375.957031 317.085938 C 376.019531 314.121094 376.09375 311.160156 376.15625 308.195312 C 372.117188 311.441406 367.746094 314.519531 363.140625 317.472656 C 361.714844 318.386719 360.265625 319.292969 358.804688 320.1875 C 356.609375 321.53125 354.371094 322.855469 352.117188 324.167969 C 349.101562 325.914062 346.042969 327.640625 342.96875 329.359375 C 340.664062 330.648438 338.347656 331.933594 336.042969 333.226562 C 332.617188 335.136719 329.207031 337.054688 325.84375 339.003906 L 325.84375 295.175781 C 329.207031 293.230469 332.617188 291.308594 336.042969 289.398438 C 338.347656 288.105469 340.664062 286.820312 342.96875 285.53125 C 346.042969 283.8125 349.101562 282.085938 352.117188 280.339844 C 354.371094 279.027344 356.609375 277.703125 358.804688 276.363281 C 360.265625 275.464844 361.714844 274.5625 363.140625 273.648438 C 368.304688 270.328125 373.171875 266.863281 377.613281 263.171875 C 377.820312 258.472656 378.039062 253.777344 378.296875 249.082031 C 378.535156 253.417969 378.734375 257.75 378.929688 262.085938 C 378.957031 262.0625 378.984375 262.042969 379.007812 262.023438 C 382.105469 259.347656 384.945312 256.546875 387.492188 253.585938 C 387.875 244.546875 388.292969 235.5 388.824219 226.457031 C 389.296875 234.457031 389.679688 242.460938 390.027344 250.460938 C 392.308594 247.457031 394.292969 244.304688 395.882812 240.945312 L 395.882812 213.785156 C 393.054688 212.460938 390.125 211.273438 387.109375 210.210938 C 384.660156 213.003906 381.945312 215.660156 379.007812 218.195312 C 374.214844 222.328125 368.84375 226.160156 363.140625 229.820312 C 361.714844 230.734375 360.265625 231.636719 358.804688 232.535156 C 356.609375 233.875 354.371094 235.203125 352.117188 236.515625 C 349.101562 238.261719 346.042969 239.988281 342.96875 241.707031 C 340.664062 242.996094 338.347656 244.28125 336.042969 245.574219 C 332.617188 247.484375 329.207031 249.402344 325.84375 251.351562 L 325.84375 207.527344 C 329.011719 205.691406 332.226562 203.882812 335.445312 202.082031 C 310.835938 201.617188 288.859375 204.804688 279.953125 206.308594 C 279.625 207.09375 279.308594 207.878906 279.023438 208.683594 L 279.023438 252.511719 C 280.457031 248.511719 282.394531 244.785156 284.722656 241.273438 C 284.019531 256.710938 283.539062 272.152344 283.160156 287.589844 C 281.519531 290.363281 280.125 293.269531 279.023438 296.335938 L 279.023438 340.160156 C 279.929688 337.632812 281.046875 335.214844 282.324219 332.886719 C 282.285156 335.878906 282.246094 338.875 282.203125 341.871094 L 282.019531 377.269531 C 280.867188 379.429688 279.859375 381.660156 279.023438 383.988281 L 279.023438 427.816406 C 279.898438 425.375 280.964844 423.042969 282.183594 420.792969 L 282.195312 422.292969 C 282.398438 435.695312 282.472656 449.101562 282.816406 462.503906 C 282.824219 462.8125 282.835938 463.117188 282.839844 463.425781 C 281.335938 466.039062 280.054688 468.773438 279.023438 471.640625 L 279.023438 515.46875 C 280.3125 511.878906 281.996094 508.507812 284.007812 505.316406 C 284.460938 517.851562 285.023438 530.390625 285.753906 542.929688 " fill-opacity="1" fill-rule="nonzero"/><path fill="#000000" d="M 284.722656 241.273438 C 282.394531 244.785156 280.457031 248.511719 279.023438 252.511719 L 279.023438 296.335938 C 280.125 293.269531 281.519531 290.363281 283.160156 287.589844 C 283.539062 272.152344 284.019531 256.710938 284.722656 241.273438 " fill-opacity="1" fill-rule="nonzero"/><path fill="#000000" d="M 294.476562 273.570312 C 294.816406 263.957031 295.207031 254.34375 295.714844 244.734375 C 296.1875 253.605469 296.550781 262.476562 296.878906 271.34375 C 299.453125 269.03125 302.207031 266.816406 305.09375 264.675781 L 305.09375 220.851562 C 297.90625 226.171875 291.558594 231.960938 286.644531 238.535156 C 287.300781 252.492188 287.792969 266.445312 288.171875 280.40625 C 290.09375 278.027344 292.207031 275.753906 294.476562 273.570312 " fill-opacity="1" fill-rule="nonzero"/><path fill="#000000" d="M 325.84375 251.351562 C 329.207031 249.402344 332.617188 247.484375 336.042969 245.574219 C 338.347656 244.28125 340.664062 242.996094 342.96875 241.707031 C 346.042969 239.988281 349.101562 238.261719 352.117188 236.515625 C 354.371094 235.203125 356.609375 233.875 358.804688 232.535156 C 360.265625 231.636719 361.714844 230.734375 363.140625 229.820312 C 368.84375 226.160156 374.214844 222.328125 379.007812 218.195312 C 381.945312 215.660156 384.660156 213.003906 387.109375 210.210938 C 371 204.523438 352.601562 202.402344 335.445312 202.082031 C 332.226562 203.882812 329.011719 205.691406 325.84375 207.527344 L 325.84375 251.351562 " fill-opacity="1" fill-rule="nonzero"/><path fill="#000000" d="M 279.023438 206.46875 L 279.023438 208.683594 C 279.308594 207.878906 279.625 207.09375 279.953125 206.308594 C 279.636719 206.367188 279.304688 206.417969 279.023438 206.46875 " fill-opacity="1" fill-rule="nonzero"/><path fill="#ffffff" d="M 271.875 62.734375 C 273.894531 59.035156 276.621094 56.628906 277.960938 57.359375 C 279.300781 58.09375 278.746094 61.6875 276.71875 65.386719 C 274.695312 69.085938 271.96875 71.492188 270.628906 70.761719 C 269.292969 70.027344 269.847656 66.433594 271.875 62.734375 Z M 288.921875 38.949219 C 295.296875 33.171875 302.164062 30.347656 304.253906 32.65625 C 306.347656 34.964844 302.875 41.523438 296.503906 47.304688 C 290.125 53.085938 283.261719 55.902344 281.171875 53.59375 C 279.078125 51.292969 282.550781 44.730469 288.921875 38.949219 Z M 337.453125 126.605469 C 340.675781 126.605469 343.894531 126.640625 347.113281 126.699219 C 351.992188 123.289062 356.867188 119.285156 361.632812 114.519531 C 388.273438 87.878906 390.027344 59.558594 389.402344 47.777344 C 388.472656 46.691406 387.527344 45.625 386.535156 44.597656 C 380.207031 38.070312 372.632812 32.703125 364.257812 28.960938 C 355.902344 25.164062 346.761719 23.042969 337.453125 22.535156 C 346.769531 22.058594 356.246094 23.601562 365.09375 26.945312 C 373.929688 30.320312 382.128906 35.503906 388.984375 42.144531 C 395.878906 48.75 401.351562 56.835938 405.125 65.644531 C 408.871094 74.472656 410.769531 84.078125 410.824219 93.671875 C 410.777344 103.273438 408.871094 112.875 405.128906 121.707031 C 403.878906 124.628906 402.421875 127.460938 400.804688 130.195312 C 402.597656 130.398438 404.386719 130.601562 406.171875 130.820312 C 412.171875 119.769531 415.582031 107.113281 415.582031 93.671875 C 415.582031 50.597656 380.53125 15.546875 337.453125 15.546875 C 294.371094 15.546875 259.324219 50.597656 259.324219 93.671875 C 259.324219 107.113281 262.738281 119.769531 268.734375 130.820312 C 291.554688 128.015625 314.503906 126.605469 337.453125 126.605469 " fill-opacity="1" fill-rule="nonzero"/><path fill="#000000" d="M 296.503906 47.304688 C 302.875 41.523438 306.347656 34.964844 304.253906 32.65625 C 302.164062 30.347656 295.296875 33.171875 288.921875 38.949219 C 282.550781 44.730469 279.078125 51.292969 281.171875 53.59375 C 283.261719 55.902344 290.125 53.085938 296.503906 47.304688 " fill-opacity="1" fill-rule="nonzero"/><path fill="#000000" d="M 270.628906 70.761719 C 271.96875 71.492188 274.695312 69.085938 276.71875 65.386719 C 278.746094 61.6875 279.300781 58.09375 277.960938 57.359375 C 276.621094 56.628906 273.894531 59.035156 271.875 62.734375 C 269.847656 66.433594 269.292969 70.027344 270.628906 70.761719 " fill-opacity="1" fill-rule="nonzero"/><path fill="#ffffff" d="M 296.648438 135.625 C 301.824219 135.246094 307 134.9375 312.179688 134.703125 C 312.179688 139.769531 312.179688 144.839844 312.179688 149.902344 C 316 149.734375 319.824219 149.601562 323.644531 149.507812 C 323.644531 144.441406 323.644531 139.375 323.644531 134.316406 C 324.808594 134.289062 325.980469 134.253906 327.144531 134.230469 C 327.144531 139.292969 327.144531 144.351562 327.144531 149.414062 C 328.632812 149.386719 330.125 149.382812 331.617188 149.367188 C 331.617188 144.304688 331.617188 139.238281 331.617188 134.175781 C 333.5625 134.152344 335.507812 134.128906 337.453125 134.128906 C 354.59375 134.128906 371.730469 134.917969 388.816406 136.480469 C 388.816406 141.546875 388.816406 146.609375 388.816406 151.675781 C 390.300781 151.808594 391.785156 151.960938 393.269531 152.109375 C 393.269531 147.046875 393.269531 141.976562 393.269531 136.917969 C 394.460938 137.035156 395.648438 137.152344 396.835938 137.277344 C 396.835938 142.339844 396.835938 147.398438 396.835938 152.457031 C 400.007812 152.796875 403.175781 153.160156 406.34375 153.550781 C 406.34375 148.488281 406.34375 143.425781 406.34375 138.363281 C 406.640625 138.398438 406.929688 138.429688 407.226562 138.464844 C 409.121094 138.703125 410.667969 140.453125 410.667969 142.359375 C 410.667969 146.277344 410.667969 150.199219 410.667969 154.113281 C 411.667969 154.246094 412.664062 154.378906 413.664062 154.515625 C 413.664062 150.597656 413.664062 146.679688 413.664062 142.757812 C 413.664062 141.867188 413.488281 140.992188 413.15625 140.175781 C 412.402344 138.277344 410.855469 136.71875 408.957031 135.941406 C 408.40625 135.714844 407.832031 135.535156 407.226562 135.457031 C 384.058594 132.566406 360.757812 131.117188 337.453125 131.117188 C 314.148438 131.117188 290.847656 132.566406 267.679688 135.457031 C 264.117188 135.898438 261.242188 139.183594 261.242188 142.757812 C 261.242188 146.679688 261.242188 150.597656 261.242188 154.515625 C 273.011719 152.90625 284.820312 151.660156 296.648438 150.804688 C 296.648438 145.746094 296.648438 140.679688 296.648438 135.625 " fill-opacity="1" fill-rule="nonzero"/><path fill="#ffffff" d="M 413.691406 162.039062 C 414.800781 162.191406 415.90625 162.324219 417.011719 162.480469 C 417.613281 162.566406 418.097656 163.125 418.097656 163.730469 C 418.097656 173.664062 418.097656 183.597656 418.097656 193.535156 C 418.101562 194.136719 417.613281 194.5625 417.011719 194.472656 C 415.90625 194.316406 414.800781 194.179688 413.691406 194.027344 C 413.691406 183.367188 413.691406 172.703125 413.691406 162.039062 Z M 403.515625 192.730469 C 402.242188 192.582031 400.96875 192.433594 399.695312 192.292969 C 399.695312 181.628906 399.695312 170.964844 399.695312 160.300781 C 400.96875 160.445312 402.242188 160.59375 403.515625 160.742188 C 403.515625 171.40625 403.515625 182.070312 403.515625 192.730469 Z M 394.921875 191.78125 C 375.816406 189.820312 356.632812 188.824219 337.453125 188.824219 C 336.171875 188.824219 334.894531 188.851562 333.613281 188.859375 C 333.613281 178.195312 333.613281 167.53125 333.613281 156.871094 C 334.894531 156.859375 336.171875 156.835938 337.453125 156.835938 C 356.632812 156.835938 375.816406 157.832031 394.921875 159.792969 C 394.921875 170.453125 394.921875 181.117188 394.921875 191.78125 Z M 328.820312 188.902344 C 327.566406 188.921875 326.316406 188.949219 325.070312 188.976562 C 325.070312 178.3125 325.070312 167.652344 325.070312 156.988281 C 326.316406 156.960938 327.566406 156.929688 328.820312 156.914062 C 328.820312 167.574219 328.820312 178.238281 328.820312 188.902344 Z M 312.773438 189.390625 C 307.21875 189.628906 301.671875 189.949219 296.121094 190.355469 C 296.121094 179.691406 296.121094 169.027344 296.121094 158.363281 C 301.671875 157.960938 307.21875 157.644531 312.773438 157.398438 C 312.773438 168.058594 312.773438 178.726562 312.773438 189.390625 Z M 420.394531 196.164062 C 420.835938 195.574219 421.09375 194.828125 421.09375 193.976562 C 421.09375 184.042969 421.09375 174.105469 421.09375 164.171875 C 421.09375 161.90625 419.265625 159.792969 417.011719 159.472656 C 390.628906 155.707031 364.039062 153.828125 337.453125 153.828125 C 310.867188 153.828125 284.277344 155.707031 257.894531 159.472656 C 256.046875 159.738281 254.503906 161.210938 254 162.972656 C 253.890625 163.363281 253.8125 163.761719 253.8125 164.171875 C 253.8125 174.105469 253.8125 184.042969 253.8125 193.976562 C 253.8125 196.242188 255.640625 197.800781 257.894531 197.480469 C 284.277344 193.71875 310.867188 191.835938 337.453125 191.835938 C 364.039062 191.835938 390.628906 193.71875 417.011719 197.480469 C 418.421875 197.679688 419.660156 197.144531 420.394531 196.164062 " fill-opacity="1" fill-rule="nonzero"/><g clip-path="url(#26dda2845c)"><path fill="#000000" d="M 337.453125 191.835938 C 310.867188 191.835938 284.277344 193.71875 257.894531 197.480469 C 255.640625 197.800781 253.8125 196.242188 253.8125 193.976562 C 253.8125 184.042969 253.8125 174.105469 253.8125 164.171875 C 253.8125 163.761719 253.890625 163.363281 254 162.972656 C 254.503906 161.210938 256.046875 159.738281 257.894531 159.472656 C 284.277344 155.707031 310.867188 153.828125 337.453125 153.828125 C 364.039062 153.828125 390.628906 155.707031 417.011719 159.472656 C 419.265625 159.792969 421.09375 161.90625 421.09375 164.171875 C 421.09375 174.105469 421.09375 184.042969 421.09375 193.976562 C 421.09375 194.828125 420.835938 195.574219 420.394531 196.164062 C 419.660156 197.144531 418.421875 197.679688 417.011719 197.480469 C 390.628906 193.71875 364.039062 191.835938 337.453125 191.835938 Z M 400.394531 548.421875 L 400.394531 199.894531 C 403.429688 200.234375 406.460938 200.59375 409.484375 200.988281 L 409.484375 547.324219 C 409.019531 547.382812 408.546875 547.449219 408.082031 547.511719 L 405.085938 224.007812 L 402.082031 548.226562 C 401.523438 548.289062 400.957031 548.359375 400.394531 548.421875 Z M 279.023438 515.46875 L 279.023438 206.46875 C 279.304688 206.417969 279.636719 206.367188 279.953125 206.308594 C 288.859375 204.804688 310.835938 201.617188 335.445312 202.082031 C 352.601562 202.402344 371 204.523438 387.109375 210.210938 C 390.125 211.273438 393.054688 212.460938 395.882812 213.785156 L 395.882812 503.898438 C 395.882812 503.902344 395.882812 503.902344 395.882812 503.902344 L 395.882812 548.921875 C 395.667969 548.945312 395.449219 548.964844 395.234375 548.988281 C 376.023438 550.976562 356.742188 551.988281 337.453125 551.988281 C 337.207031 551.988281 336.960938 551.980469 336.714844 551.980469 C 319.074219 551.957031 301.4375 551.085938 283.851562 549.394531 C 282.242188 549.242188 280.632812 549.089844 279.023438 548.921875 Z M 265.417969 547.324219 L 265.417969 200.988281 C 268.445312 200.59375 271.476562 200.234375 274.511719 199.894531 L 274.511719 548.421875 C 273.945312 548.359375 273.382812 548.289062 272.824219 548.226562 L 269.820312 224.007812 L 266.828125 547.511719 C 266.355469 547.449219 265.890625 547.382812 265.417969 547.324219 Z M 417.011719 550.386719 C 417.628906 550.296875 418.210938 550.359375 418.738281 550.535156 C 419.121094 550.65625 419.472656 550.84375 419.777344 551.085938 C 419.816406 551.113281 419.859375 551.132812 419.894531 551.160156 C 420.265625 551.480469 420.566406 551.878906 420.769531 552.335938 C 420.976562 552.796875 421.089844 553.316406 421.089844 553.882812 C 421.089844 563.820312 421.089844 573.753906 421.089844 583.691406 C 421.089844 585.953125 419.265625 588.066406 417.011719 588.390625 C 410.414062 589.335938 403.804688 590.164062 397.1875 590.875 C 390.566406 591.582031 383.9375 592.175781 377.308594 592.648438 C 367.355469 593.359375 357.394531 593.796875 347.421875 593.976562 C 344.097656 594.035156 340.777344 594.0625 337.453125 594.0625 C 334.128906 594.0625 330.808594 594.035156 327.484375 593.976562 C 317.710938 593.800781 307.941406 593.371094 298.183594 592.683594 C 291.007812 592.179688 283.84375 591.535156 276.6875 590.753906 C 270.414062 590.070312 264.152344 589.285156 257.894531 588.390625 C 255.640625 588.066406 253.816406 585.953125 253.816406 583.691406 C 253.816406 573.753906 253.816406 563.820312 253.816406 553.882812 C 253.816406 553.578125 253.855469 553.285156 253.917969 553.003906 C 254.253906 551.539062 255.425781 550.53125 256.921875 550.375 C 256.972656 550.367188 257.019531 550.351562 257.074219 550.347656 C 257.339844 550.332031 257.613281 550.34375 257.894531 550.386719 C 264.152344 551.28125 270.414062 552.0625 276.6875 552.746094 C 283.84375 553.523438 291.007812 554.171875 298.183594 554.675781 C 307.941406 555.359375 317.710938 555.796875 327.484375 555.96875 C 330.808594 556.03125 334.128906 556.058594 337.453125 556.058594 C 340.777344 556.058594 344.097656 556.03125 347.421875 555.96875 C 370.683594 555.554688 393.921875 553.695312 417.011719 550.386719 Z M 413.695312 605.925781 C 413.695312 608.859375 411.738281 611.546875 409.066406 612.648438 C 408.488281 612.886719 407.882812 613.074219 407.25 613.148438 C 404.351562 613.480469 401.453125 613.785156 398.546875 614.070312 C 392.953125 614.625 387.351562 615.097656 381.746094 615.496094 C 378.355469 615.742188 374.964844 615.953125 371.574219 616.140625 C 366.128906 616.4375 360.683594 616.667969 355.234375 616.828125 C 352.222656 616.914062 349.207031 616.980469 346.191406 617.023438 C 343.28125 617.0625 340.367188 617.085938 337.453125 617.085938 C 331.625 617.085938 325.804688 617.003906 319.976562 616.839844 C 314.152344 616.671875 308.328125 616.429688 302.511719 616.101562 C 299.605469 615.9375 296.695312 615.75 293.789062 615.546875 C 287.976562 615.136719 282.164062 614.644531 276.355469 614.070312 C 273.453125 613.785156 270.554688 613.480469 267.65625 613.148438 C 267.210938 613.101562 266.777344 613.003906 266.355469 612.871094 C 263.417969 611.929688 261.210938 609.050781 261.210938 605.925781 C 261.210938 601.585938 261.210938 597.25 261.210938 592.910156 C 272.988281 594.523438 284.804688 595.777344 296.644531 596.644531 C 296.644531 602 296.644531 607.359375 296.644531 612.722656 C 301.820312 613.0625 307 613.34375 312.179688 613.554688 C 312.179688 608.21875 312.179688 602.882812 312.179688 597.542969 C 316 597.71875 319.824219 597.847656 323.644531 597.945312 C 323.644531 603.269531 323.644531 608.585938 323.644531 613.910156 C 324.808594 613.933594 325.980469 613.960938 327.144531 613.984375 C 327.144531 608.667969 327.144531 603.355469 327.144531 598.039062 C 328.632812 598.066406 330.125 598.070312 331.617188 598.085938 C 331.617188 603.398438 331.617188 608.714844 331.617188 614.035156 C 333.5625 614.054688 335.507812 614.074219 337.453125 614.074219 C 354.59375 614.074219 371.730469 613.363281 388.824219 611.941406 C 388.824219 606.550781 388.824219 601.160156 388.824219 595.765625 C 390.3125 595.628906 391.796875 595.476562 393.285156 595.328125 C 393.285156 600.734375 393.285156 606.140625 393.285156 611.546875 C 394.476562 611.4375 395.664062 611.335938 396.855469 611.21875 C 396.855469 605.804688 396.855469 600.390625 396.855469 594.980469 C 400.027344 594.640625 403.199219 594.269531 406.367188 593.878906 C 406.367188 599.332031 406.367188 604.78125 406.367188 610.238281 C 406.660156 610.203125 406.957031 610.175781 407.25 610.140625 C 409.148438 609.929688 410.695312 608.191406 410.695312 606.292969 C 410.695312 601.964844 410.695312 597.636719 410.695312 593.308594 C 411.695312 593.179688 412.695312 593.042969 413.695312 592.910156 C 413.695312 597.25 413.695312 601.585938 413.695312 605.925781 Z M 337.453125 660.046875 C 310.214844 660.046875 286.933594 642.832031 277.878906 618.726562 C 297.691406 620.632812 317.574219 621.597656 337.453125 621.597656 C 343.21875 621.597656 348.988281 621.515625 354.753906 621.351562 C 353.28125 623.878906 351.734375 626.226562 350.140625 628.421875 C 330.71875 630.160156 310.976562 629.902344 291.339844 627.574219 C 308.964844 631.597656 327.035156 633.945312 345.234375 634.597656 C 344.113281 635.886719 342.980469 637.117188 341.855469 638.265625 C 329.09375 639.113281 316.171875 638.828125 303.3125 637.300781 C 314.585938 639.875 326.109375 641.5 337.726562 642.203125 C 327.574219 651.277344 318.753906 654.847656 318.753906 654.847656 C 349.492188 664.289062 381.957031 648.371094 393.679688 619.03125 C 394.796875 618.929688 395.910156 618.832031 397.027344 618.726562 C 387.976562 642.832031 364.691406 660.046875 337.453125 660.046875 Z M 261.242188 142.757812 C 261.242188 139.183594 264.117188 135.898438 267.679688 135.457031 C 290.847656 132.566406 314.148438 131.117188 337.453125 131.117188 C 360.757812 131.117188 384.058594 132.566406 407.226562 135.457031 C 407.832031 135.535156 408.40625 135.714844 408.957031 135.941406 C 410.855469 136.71875 412.402344 138.277344 413.15625 140.175781 C 413.488281 140.992188 413.664062 141.867188 413.664062 142.757812 C 413.664062 146.679688 413.664062 150.597656 413.664062 154.515625 C 412.664062 154.378906 411.667969 154.246094 410.667969 154.113281 C 410.667969 150.199219 410.667969 146.277344 410.667969 142.359375 C 410.667969 140.453125 409.121094 138.703125 407.226562 138.464844 C 406.929688 138.429688 406.640625 138.398438 406.34375 138.363281 C 406.34375 143.425781 406.34375 148.488281 406.34375 153.550781 C 403.175781 153.160156 400.007812 152.796875 396.835938 152.457031 C 396.835938 147.398438 396.835938 142.339844 396.835938 137.277344 C 395.648438 137.152344 394.460938 137.035156 393.269531 136.917969 C 393.269531 141.976562 393.269531 147.046875 393.269531 152.109375 C 391.785156 151.960938 390.300781 151.808594 388.816406 151.675781 C 388.816406 146.609375 388.816406 141.546875 388.816406 136.480469 C 371.730469 134.917969 354.59375 134.128906 337.453125 134.128906 C 335.507812 134.128906 333.5625 134.152344 331.617188 134.175781 C 331.617188 139.238281 331.617188 144.304688 331.617188 149.367188 C 330.125 149.382812 328.632812 149.386719 327.144531 149.414062 C 327.144531 144.351562 327.144531 139.292969 327.144531 134.230469 C 325.980469 134.253906 324.808594 134.289062 323.644531 134.316406 C 323.644531 139.375 323.644531 144.441406 323.644531 149.507812 C 319.824219 149.601562 316 149.734375 312.179688 149.902344 C 312.179688 144.839844 312.179688 139.769531 312.179688 134.703125 C 307 134.9375 301.824219 135.246094 296.648438 135.625 C 296.648438 140.679688 296.648438 145.746094 296.648438 150.804688 C 284.820312 151.660156 273.011719 152.90625 261.242188 154.515625 C 261.242188 150.597656 261.242188 146.679688 261.242188 142.757812 Z M 259.324219 93.671875 C 259.324219 50.597656 294.371094 15.546875 337.453125 15.546875 C 380.53125 15.546875 415.582031 50.597656 415.582031 93.671875 C 415.582031 107.113281 412.171875 119.769531 406.171875 130.820312 C 404.386719 130.601562 402.597656 130.398438 400.804688 130.195312 C 402.421875 127.460938 403.878906 124.628906 405.128906 121.707031 C 408.871094 112.875 410.777344 103.273438 410.824219 93.671875 C 410.769531 84.078125 408.871094 74.472656 405.125 65.644531 C 401.351562 56.835938 395.878906 48.75 388.984375 42.144531 C 382.128906 35.503906 373.929688 30.320312 365.09375 26.945312 C 356.246094 23.601562 346.769531 22.058594 337.453125 22.535156 C 346.761719 23.042969 355.902344 25.164062 364.257812 28.960938 C 372.632812 32.703125 380.207031 38.070312 386.535156 44.597656 C 387.527344 45.625 388.472656 46.691406 389.402344 47.777344 C 390.027344 59.558594 388.273438 87.878906 361.632812 114.519531 C 356.867188 119.285156 351.992188 123.289062 347.113281 126.699219 C 343.894531 126.640625 340.675781 126.605469 337.453125 126.605469 C 314.503906 126.605469 291.554688 128.015625 268.734375 130.820312 C 262.738281 119.769531 259.324219 107.113281 259.324219 93.671875 Z M 417.011719 201.992188 C 421.738281 202.664062 425.582031 199.417969 425.578125 194.671875 C 425.578125 184.734375 425.578125 174.796875 425.578125 164.863281 C 425.582031 160.507812 422.34375 156.382812 418.160156 155.210938 C 418.160156 151.269531 418.160156 147.332031 418.160156 143.390625 C 418.160156 139.023438 415.597656 134.875 411.902344 132.617188 C 418.011719 120.976562 421.480469 107.734375 421.480469 93.671875 C 421.480469 47.269531 383.859375 9.648438 337.453125 9.648438 C 291.046875 9.648438 253.425781 47.269531 253.425781 93.671875 C 253.425781 107.734375 256.898438 120.976562 263 132.617188 C 259.308594 134.875 256.746094 139.027344 256.746094 143.390625 C 256.746094 147.332031 256.746094 151.269531 256.746094 155.210938 C 252.566406 156.382812 249.328125 160.507812 249.328125 164.863281 C 249.328125 174.796875 249.328125 184.734375 249.328125 194.671875 C 249.328125 199.417969 253.167969 202.664062 257.894531 201.992188 C 258.394531 201.921875 258.902344 201.863281 259.40625 201.789062 L 259.40625 546.515625 C 258.902344 546.449219 258.398438 546.382812 257.894531 546.3125 C 253.40625 545.671875 249.769531 548.75 249.769531 553.257812 C 249.769531 563.195312 249.769531 573.128906 249.769531 583.0625 C 249.769531 587.164062 252.789062 591.042969 256.710938 592.195312 C 256.710938 596.582031 256.710938 600.96875 256.710938 605.355469 C 256.710938 611.402344 261.613281 616.980469 267.65625 617.660156 C 269.652344 617.886719 271.644531 618.089844 273.640625 618.296875 C 282.726562 644.816406 307.855469 663.890625 337.453125 663.890625 C 367.050781 663.890625 392.183594 644.816406 401.265625 618.296875 C 403.261719 618.089844 405.257812 617.886719 407.25 617.660156 C 413.289062 616.980469 418.195312 611.402344 418.195312 605.355469 C 418.195312 600.96875 418.195312 596.582031 418.195312 592.195312 C 422.117188 591.042969 425.140625 587.164062 425.140625 583.0625 C 425.140625 573.128906 425.140625 563.195312 425.140625 553.257812 C 425.140625 548.75 421.496094 545.671875 417.011719 546.3125 C 416.507812 546.382812 416.003906 546.449219 415.5 546.515625 L 415.5 201.789062 C 416.003906 201.863281 416.511719 201.921875 417.011719 201.992188 " fill-opacity="1" fill-rule="nonzero"/></g><path fill="#000000" d="M 399.695312 192.292969 C 400.96875 192.433594 402.242188 192.582031 403.515625 192.730469 C 403.515625 182.070312 403.515625 171.40625 403.515625 160.742188 C 402.242188 160.59375 400.96875 160.445312 399.695312 160.300781 C 399.695312 170.964844 399.695312 181.628906 399.695312 192.292969 " fill-opacity="1" fill-rule="nonzero"/><path fill="#000000" d="M 418.097656 193.535156 C 418.097656 183.597656 418.097656 173.664062 418.097656 163.730469 C 418.097656 163.125 417.613281 162.566406 417.011719 162.480469 C 415.90625 162.324219 414.800781 162.191406 413.691406 162.039062 C 413.691406 172.703125 413.691406 183.367188 413.691406 194.027344 C 414.800781 194.179688 415.90625 194.316406 417.011719 194.472656 C 417.613281 194.5625 418.101562 194.136719 418.097656 193.535156 " fill-opacity="1" fill-rule="nonzero"/><path fill="#000000" d="M 333.613281 156.871094 C 333.613281 167.53125 333.613281 178.195312 333.613281 188.859375 C 334.894531 188.851562 336.171875 188.824219 337.453125 188.824219 C 356.632812 188.824219 375.816406 189.820312 394.921875 191.78125 C 394.921875 181.117188 394.921875 170.453125 394.921875 159.792969 C 375.816406 157.832031 356.632812 156.835938 337.453125 156.835938 C 336.171875 156.835938 334.894531 156.859375 333.613281 156.871094 " fill-opacity="1" fill-rule="nonzero"/><path fill="#000000" d="M 296.121094 190.355469 C 301.671875 189.949219 307.21875 189.628906 312.773438 189.390625 C 312.773438 178.726562 312.773438 168.058594 312.773438 157.398438 C 307.21875 157.644531 301.671875 157.960938 296.121094 158.363281 C 296.121094 169.027344 296.121094 179.691406 296.121094 190.355469 " fill-opacity="1" fill-rule="nonzero"/><path fill="#000000" d="M 325.070312 188.976562 C 326.316406 188.949219 327.566406 188.921875 328.820312 188.902344 C 328.820312 178.238281 328.820312 167.574219 328.820312 156.914062 C 327.566406 156.929688 326.316406 156.960938 325.070312 156.988281 C 325.070312 167.652344 325.070312 178.3125 325.070312 188.976562 " fill-opacity="1" fill-rule="nonzero"/><path fill="#ffffff" d="M 410.695312 606.292969 C 410.695312 608.191406 409.148438 609.929688 407.25 610.140625 C 406.957031 610.175781 406.660156 610.203125 406.367188 610.238281 C 406.367188 604.78125 406.367188 599.332031 406.367188 593.878906 C 403.199219 594.269531 400.027344 594.640625 396.855469 594.980469 C 396.855469 600.390625 396.855469 605.804688 396.855469 611.21875 C 395.664062 611.335938 394.476562 611.4375 393.285156 611.546875 C 393.285156 606.140625 393.285156 600.734375 393.285156 595.328125 C 391.796875 595.476562 390.3125 595.628906 388.824219 595.765625 C 388.824219 601.160156 388.824219 606.550781 388.824219 611.941406 C 371.730469 613.363281 354.59375 614.074219 337.453125 614.074219 C 335.507812 614.074219 333.5625 614.054688 331.617188 614.035156 C 331.617188 608.714844 331.617188 603.398438 331.617188 598.085938 C 330.125 598.070312 328.632812 598.066406 327.144531 598.039062 C 327.144531 603.355469 327.144531 608.667969 327.144531 613.984375 C 325.980469 613.960938 324.808594 613.933594 323.644531 613.910156 C 323.644531 608.585938 323.644531 603.269531 323.644531 597.945312 C 319.824219 597.847656 316 597.71875 312.179688 597.542969 C 312.179688 602.882812 312.179688 608.21875 312.179688 613.554688 C 307 613.34375 301.820312 613.0625 296.644531 612.722656 C 296.644531 607.359375 296.644531 602 296.644531 596.644531 C 284.804688 595.777344 272.988281 594.523438 261.210938 592.910156 C 261.210938 597.25 261.210938 601.585938 261.210938 605.925781 C 261.210938 609.050781 263.417969 611.929688 266.355469 612.871094 C 266.777344 613.003906 267.210938 613.101562 267.65625 613.148438 C 270.554688 613.480469 273.453125 613.785156 276.355469 614.070312 C 282.164062 614.644531 287.976562 615.136719 293.789062 615.546875 C 296.695312 615.75 299.605469 615.9375 302.511719 616.101562 C 308.328125 616.429688 314.152344 616.671875 319.976562 616.839844 C 325.804688 617.003906 331.625 617.085938 337.453125 617.085938 C 340.367188 617.085938 343.28125 617.0625 346.191406 617.023438 C 349.207031 616.980469 352.222656 616.914062 355.234375 616.828125 C 360.683594 616.667969 366.128906 616.4375 371.574219 616.140625 C 374.964844 615.953125 378.355469 615.742188 381.746094 615.496094 C 387.351562 615.097656 392.953125 614.625 398.546875 614.070312 C 401.453125 613.785156 404.351562 613.480469 407.25 613.148438 C 407.882812 613.074219 408.488281 612.886719 409.066406 612.648438 C 411.738281 611.546875 413.695312 608.859375 413.695312 605.925781 C 413.695312 601.585938 413.695312 597.25 413.695312 592.910156 C 412.695312 593.042969 411.695312 593.179688 410.695312 593.308594 C 410.695312 597.636719 410.695312 601.964844 410.695312 606.292969 " fill-opacity="1" fill-rule="nonzero"/><path fill="#000000" d="M 418.390625 584.089844 C 418.390625 574.15625 418.390625 564.222656 418.390625 554.285156 C 418.390625 553.523438 417.769531 552.988281 417.011719 553.101562 C 415.90625 553.257812 414.800781 553.394531 413.691406 553.542969 C 413.691406 564.40625 413.691406 575.261719 413.691406 586.121094 C 414.800781 585.96875 415.90625 585.835938 417.011719 585.675781 C 417.769531 585.566406 418.390625 584.851562 418.390625 584.089844 " fill-opacity="1" fill-rule="nonzero"/><path fill="#000000" d="M 403.515625 554.847656 C 402.238281 555 400.96875 555.148438 399.691406 555.289062 C 399.691406 566.148438 399.691406 577.007812 399.691406 587.867188 C 400.96875 587.726562 402.238281 587.574219 403.515625 587.425781 C 403.515625 576.566406 403.515625 565.707031 403.515625 554.847656 " fill-opacity="1" fill-rule="nonzero"/><path fill="#000000" d="M 333.613281 558.738281 C 333.613281 569.597656 333.613281 580.457031 333.613281 591.316406 C 334.894531 591.324219 336.171875 591.351562 337.453125 591.351562 C 356.632812 591.351562 375.816406 590.351562 394.921875 588.382812 C 394.921875 577.519531 394.921875 566.664062 394.921875 555.804688 C 375.816406 557.773438 356.632812 558.773438 337.453125 558.773438 C 336.171875 558.773438 334.894531 558.75 333.613281 558.738281 " fill-opacity="1" fill-rule="nonzero"/><path fill="#000000" d="M 296.121094 589.816406 C 301.671875 590.226562 307.21875 590.539062 312.773438 590.785156 C 312.773438 579.925781 312.773438 569.066406 312.773438 558.207031 C 307.21875 557.960938 301.671875 557.648438 296.121094 557.234375 C 296.121094 568.09375 296.121094 578.957031 296.121094 589.816406 " fill-opacity="1" fill-rule="nonzero"/><path fill="#000000" d="M 325.070312 591.195312 C 326.316406 591.226562 327.566406 591.253906 328.820312 591.273438 C 328.820312 580.410156 328.820312 569.554688 328.820312 558.695312 C 327.566406 558.679688 326.316406 558.648438 325.070312 558.621094 C 325.070312 569.476562 325.070312 580.335938 325.070312 591.195312 " fill-opacity="1" fill-rule="nonzero"/><path fill="#ffffff" d="M 394.921875 588.382812 C 375.816406 590.351562 356.632812 591.351562 337.453125 591.351562 C 336.171875 591.351562 334.894531 591.324219 333.613281 591.316406 C 333.613281 580.457031 333.613281 569.597656 333.613281 558.738281 C 334.894531 558.75 336.171875 558.773438 337.453125 558.773438 C 356.632812 558.773438 375.816406 557.773438 394.921875 555.804688 C 394.921875 566.664062 394.921875 577.519531 394.921875 588.382812 Z M 328.820312 591.273438 C 327.566406 591.253906 326.316406 591.226562 325.070312 591.195312 C 325.070312 580.335938 325.070312 569.476562 325.070312 558.621094 C 326.316406 558.648438 327.566406 558.679688 328.820312 558.695312 C 328.820312 569.554688 328.820312 580.410156 328.820312 591.273438 Z M 312.773438 590.785156 C 307.21875 590.539062 301.671875 590.226562 296.121094 589.816406 C 296.121094 578.957031 296.121094 568.09375 296.121094 557.234375 C 301.671875 557.648438 307.21875 557.960938 312.773438 558.207031 C 312.773438 569.066406 312.773438 579.925781 312.773438 590.785156 Z M 399.691406 555.289062 C 400.96875 555.148438 402.238281 555 403.515625 554.847656 C 403.515625 565.707031 403.515625 576.566406 403.515625 587.425781 C 402.238281 587.574219 400.96875 587.726562 399.691406 587.867188 C 399.691406 577.007812 399.691406 566.148438 399.691406 555.289062 Z M 413.691406 553.542969 C 414.800781 553.394531 415.90625 553.257812 417.011719 553.101562 C 417.769531 552.988281 418.390625 553.523438 418.390625 554.285156 C 418.390625 564.222656 418.390625 574.15625 418.390625 584.089844 C 418.390625 584.851562 417.769531 585.566406 417.011719 585.675781 C 415.90625 585.835938 414.800781 585.96875 413.691406 586.121094 C 413.691406 575.261719 413.691406 564.40625 413.691406 553.542969 Z M 337.453125 556.058594 C 334.128906 556.058594 330.808594 556.03125 327.484375 555.96875 C 317.710938 555.796875 307.941406 555.359375 298.183594 554.675781 C 291.007812 554.171875 283.84375 553.523438 276.6875 552.746094 C 270.414062 552.0625 264.152344 551.28125 257.894531 550.386719 C 257.613281 550.34375 257.339844 550.332031 257.074219 550.347656 C 257.019531 550.351562 256.972656 550.367188 256.921875 550.375 C 255.425781 550.53125 254.253906 551.539062 253.917969 553.003906 C 253.855469 553.285156 253.816406 553.578125 253.816406 553.882812 C 253.816406 563.820312 253.816406 573.753906 253.816406 583.691406 C 253.816406 585.953125 255.640625 588.066406 257.894531 588.390625 C 264.152344 589.285156 270.414062 590.070312 276.6875 590.753906 C 283.84375 591.535156 291.007812 592.179688 298.183594 592.683594 C 307.941406 593.371094 317.710938 593.800781 327.484375 593.976562 C 330.808594 594.035156 334.128906 594.0625 337.453125 594.0625 C 340.777344 594.0625 344.097656 594.035156 347.421875 593.976562 C 357.394531 593.796875 367.355469 593.359375 377.308594 592.648438 C 383.9375 592.175781 390.566406 591.582031 397.1875 590.875 C 403.804688 590.164062 410.414062 589.335938 417.011719 588.390625 C 419.265625 588.066406 421.089844 585.953125 421.089844 583.691406 C 421.089844 573.753906 421.089844 563.820312 421.089844 553.882812 C 421.089844 553.316406 420.976562 552.796875 420.769531 552.335938 C 420.566406 551.878906 420.265625 551.480469 419.894531 551.160156 C 419.859375 551.132812 419.816406 551.113281 419.777344 551.085938 C 419.472656 550.84375 419.121094 550.65625 418.738281 550.535156 C 418.210938 550.359375 417.628906 550.296875 417.011719 550.386719 C 393.921875 553.695312 370.683594 555.554688 347.421875 555.96875 C 344.097656 556.03125 340.777344 556.058594 337.453125 556.058594 " fill-opacity="1" fill-rule="nonzero"/><path fill="#000000" d="M 390.308594 513.0625 C 390.917969 497.800781 391.359375 482.542969 391.691406 467.285156 C 391.714844 466.324219 391.738281 465.367188 391.761719 464.410156 C 392.109375 451.1875 392.175781 437.96875 392.386719 424.75 L 392.394531 422.429688 L 392.582031 385.089844 L 392.546875 378.382812 L 392.375 345.433594 C 392.320312 341.957031 392.277344 338.488281 392.234375 335.015625 C 392.113281 325.265625 392.003906 315.519531 391.75 305.773438 C 391.65625 301.300781 391.542969 296.832031 391.429688 292.363281 C 391.085938 278.394531 390.636719 264.429688 390.027344 250.460938 C 389.679688 242.460938 389.296875 234.457031 388.824219 226.457031 C 388.292969 235.5 387.875 244.546875 387.492188 253.585938 C 386.859375 268.738281 386.40625 283.886719 386.0625 299.035156 C 386.011719 301.28125 385.949219 303.523438 385.902344 305.773438 C 385.570312 318.40625 385.484375 331.039062 385.300781 343.671875 C 385.292969 344.253906 385.285156 344.84375 385.273438 345.433594 L 385.070312 385.089844 L 385.082031 387.726562 L 385.265625 424.75 C 385.300781 426.921875 385.328125 429.09375 385.355469 431.261719 C 385.503906 442.308594 385.597656 453.359375 385.890625 464.410156 C 385.960938 467.695312 386.046875 470.988281 386.125 474.277344 C 386.460938 488.367188 386.894531 502.464844 387.488281 516.554688 C 387.867188 525.609375 388.289062 534.667969 388.824219 543.726562 C 389.429688 533.503906 389.898438 523.28125 390.308594 513.0625 " fill-opacity="1" fill-rule="nonzero"/><path fill="#000000" d="M 380.945312 435.597656 C 381.011719 430.09375 381.066406 424.59375 381.144531 419.09375 L 381.273438 391.472656 L 381.300781 385.089844 L 381.136719 351.085938 C 381.121094 349.992188 381.109375 348.898438 381.101562 347.804688 C 380.964844 337.5625 380.886719 327.324219 380.636719 317.085938 C 380.554688 312.9375 380.457031 308.789062 380.359375 304.636719 C 380.027344 290.453125 379.574219 276.269531 378.929688 262.085938 C 378.734375 257.75 378.535156 253.417969 378.296875 249.082031 C 378.039062 253.777344 377.820312 258.472656 377.613281 263.171875 C 376.9375 278.179688 376.488281 293.1875 376.15625 308.195312 C 376.09375 311.160156 376.019531 314.121094 375.957031 317.085938 C 375.683594 328.417969 375.621094 339.753906 375.457031 351.085938 L 375.449219 352.601562 L 375.292969 385.089844 L 375.34375 396.515625 L 375.449219 419.09375 C 375.550781 426.070312 375.628906 433.050781 375.726562 440.027344 C 375.785156 444.382812 375.839844 448.734375 375.949219 453.09375 C 376.144531 463.078125 376.390625 473.066406 376.703125 483.050781 C 377.09375 495.734375 377.59375 508.417969 378.296875 521.097656 C 379.046875 507.496094 379.570312 493.894531 379.972656 480.289062 C 380.242188 471.222656 380.46875 462.15625 380.648438 453.09375 C 380.789062 447.261719 380.875 441.429688 380.945312 435.597656 " fill-opacity="1" fill-rule="nonzero"/></svg>