<svg xmlns="http://www.w3.org/2000/svg" xmlns:xlink="http://www.w3.org/1999/xlink" width="600" zoomAndPan="magnify" viewBox="0 0 450 449.999984" height="600" preserveAspectRatio="xMidYMid meet" version="1.0"><defs><g/><clipPath id="882ccc2473"><path d="M 210 73.453125 L 226 73.453125 L 226 88 L 210 88 Z M 210 73.453125 " clip-rule="nonzero"/></clipPath><clipPath id="d65cec8ffd"><path d="M 77 306 L 373 306 L 373 429.703125 L 77 429.703125 Z M 77 306 " clip-rule="nonzero"/></clipPath></defs><path fill="#ffbd59" d="M 280.820312 297.097656 C 277.53125 296.316406 274.40625 295.101562 271.449219 293.460938 L 267.609375 294.503906 C 270.898438 296.570312 274.390625 298.203125 278.085938 299.402344 C 281.863281 300.382812 284.210938 300.035156 284.210938 298.832031 C 284.210938 297.628906 283.964844 297.363281 280.820312 297.097656 Z M 280.820312 297.097656 " fill-opacity="1" fill-rule="nonzero"/><path fill="#ffbd59" d="M 273.695312 288.132812 C 273.628906 287.683594 273.476562 287.265625 273.238281 286.878906 C 273 286.492188 272.699219 286.167969 272.328125 285.902344 C 271.960938 285.640625 271.554688 285.457031 271.109375 285.359375 C 270.667969 285.261719 270.222656 285.253906 269.773438 285.335938 C 269.773438 285.335938 241.800781 287.785156 223.488281 288.96875 C 205.171875 290.15625 169.355469 284.886719 169.355469 284.886719 C 161.597656 283.5 160.292969 287.4375 160.292969 287.4375 C 157.984375 293.5625 163.476562 294.953125 163.476562 294.953125 C 176.484375 299.035156 192.777344 300.058594 218.097656 299.933594 C 243.414062 299.8125 270.46875 292.238281 270.46875 292.238281 C 270.46875 292.238281 274.105469 291.421875 273.695312 288.132812 Z M 167.070312 292.359375 C 166.773438 292.359375 166.484375 292.300781 166.210938 292.1875 C 165.9375 292.074219 165.691406 291.914062 165.480469 291.703125 C 165.273438 291.492188 165.109375 291.25 164.996094 290.972656 C 164.882812 290.699219 164.824219 290.410156 164.824219 290.113281 C 164.824219 289.816406 164.882812 289.53125 164.996094 289.253906 C 165.109375 288.980469 165.273438 288.734375 165.480469 288.527344 C 165.691406 288.316406 165.9375 288.152344 166.210938 288.039062 C 166.484375 287.925781 166.773438 287.867188 167.070312 287.867188 C 167.367188 287.867188 167.65625 287.925781 167.929688 288.039062 C 168.203125 288.152344 168.449219 288.316406 168.660156 288.527344 C 168.867188 288.734375 169.03125 288.980469 169.144531 289.253906 C 169.257812 289.53125 169.316406 289.816406 169.316406 290.113281 C 169.3125 290.410156 169.253906 290.695312 169.140625 290.96875 C 169.023438 291.242188 168.863281 291.484375 168.652344 291.695312 C 168.441406 291.90625 168.199219 292.070312 167.925781 292.183594 C 167.652344 292.296875 167.367188 292.355469 167.070312 292.359375 Z M 264.957031 290.808594 C 264.742188 290.808594 264.535156 290.765625 264.339844 290.683594 C 264.140625 290.601562 263.96875 290.488281 263.816406 290.335938 C 263.664062 290.183594 263.546875 290.011719 263.464844 289.8125 C 263.382812 289.613281 263.34375 289.410156 263.34375 289.195312 C 263.34375 288.980469 263.382812 288.773438 263.464844 288.578125 C 263.546875 288.378906 263.664062 288.207031 263.816406 288.054688 C 263.96875 287.902344 264.140625 287.785156 264.339844 287.703125 C 264.535156 287.621094 264.742188 287.582031 264.957031 287.582031 C 265.171875 287.582031 265.375 287.621094 265.574219 287.703125 C 265.769531 287.785156 265.945312 287.902344 266.097656 288.054688 C 266.25 288.207031 266.363281 288.378906 266.445312 288.578125 C 266.527344 288.773438 266.570312 288.980469 266.570312 289.195312 C 266.570312 289.410156 266.527344 289.613281 266.445312 289.8125 C 266.363281 290.011719 266.25 290.183594 266.097656 290.335938 C 265.945312 290.488281 265.769531 290.601562 265.574219 290.683594 C 265.375 290.765625 265.171875 290.808594 264.957031 290.808594 Z M 264.957031 290.808594 " fill-opacity="1" fill-rule="nonzero"/><path fill="#ffbd59" d="M 182.8125 254.605469 L 225.425781 277.636719 C 226.410156 278.171875 227.464844 278.480469 228.578125 278.566406 C 229.695312 278.648438 230.78125 278.503906 231.835938 278.128906 L 235.453125 276.863281 C 236.378906 276.535156 237.273438 276.617188 238.125 277.105469 L 253.277344 285.804688 L 263.34375 284.96875 L 188.816406 243.355469 C 188.671875 243.273438 188.515625 243.21875 188.351562 243.195312 C 188.183594 243.171875 188.019531 243.179688 187.859375 243.214844 C 187.695312 243.253906 187.546875 243.320312 187.40625 243.414062 C 187.269531 243.507812 187.152344 243.625 187.058594 243.765625 L 181.996094 251.257812 C 181.632812 251.84375 181.535156 252.46875 181.710938 253.136719 C 181.863281 253.785156 182.234375 254.277344 182.8125 254.605469 Z M 187.835938 245.335938 C 187.941406 245.160156 188.09375 245.046875 188.292969 244.996094 C 188.492188 244.945312 188.679688 244.96875 188.855469 245.070312 L 234.226562 269.960938 L 229.816406 276.453125 L 232.550781 270.511719 L 188.652344 246.398438 L 185.101562 249.683594 Z M 187.835938 245.335938 " fill-opacity="1" fill-rule="nonzero"/><path fill="#ffbd59" d="M 156.800781 89.625 L 158.535156 94.996094 L 164.210938 94.996094 L 159.617188 98.324219 L 161.375 103.714844 L 156.800781 100.386719 L 152.207031 103.714844 L 153.960938 98.324219 L 149.386719 94.996094 L 155.042969 94.996094 Z M 156.800781 89.625 " fill-opacity="1" fill-rule="nonzero"/><path fill="#ffbd59" d="M 187.488281 79.640625 L 189.222656 85.03125 L 194.902344 85.03125 L 190.304688 88.339844 L 192.0625 93.730469 L 187.488281 90.402344 L 182.894531 93.730469 L 184.652344 88.339844 L 180.078125 85.03125 L 185.734375 85.03125 Z M 187.488281 79.640625 " fill-opacity="1" fill-rule="nonzero"/><g clip-path="url(#882ccc2473)"><path fill="#ffbd59" d="M 218.175781 73.453125 L 219.914062 78.84375 L 225.589844 78.84375 L 220.996094 82.171875 L 222.75 87.542969 L 218.175781 84.214844 L 213.582031 87.542969 L 215.339844 82.171875 L 210.765625 78.84375 L 216.421875 78.84375 Z M 218.175781 73.453125 " fill-opacity="1" fill-rule="nonzero"/></g><path fill="#ffbd59" d="M 248.867188 79.640625 L 250.601562 85.03125 L 256.277344 85.03125 L 251.683594 88.339844 L 253.441406 93.730469 L 248.867188 90.402344 L 244.273438 93.730469 L 246.027344 88.339844 L 241.453125 85.03125 L 247.109375 85.03125 Z M 248.867188 79.640625 " fill-opacity="1" fill-rule="nonzero"/><path fill="#ffbd59" d="M 279.554688 89.625 L 281.292969 94.996094 L 286.96875 94.996094 L 282.375 98.324219 L 284.128906 103.714844 L 279.554688 100.386719 L 274.980469 103.714844 L 276.71875 98.324219 L 272.144531 94.996094 L 277.800781 94.996094 Z M 279.554688 89.625 " fill-opacity="1" fill-rule="nonzero"/><path fill="#ffbd59" d="M 173.339844 356.78125 L 180.628906 360.679688 C 180.292969 356.261719 179.246094 352.023438 177.484375 347.960938 C 172.5 336.175781 162.230469 324.640625 150.777344 316.839844 C 150.683594 320.660156 151.070312 324.433594 151.941406 328.152344 C 152.558594 331.179688 153.5 334.101562 154.765625 336.921875 C 156.03125 339.738281 157.589844 342.386719 159.4375 344.859375 C 161.285156 347.335938 163.382812 349.578125 165.730469 351.589844 C 168.074219 353.597656 170.609375 355.328125 173.339844 356.78125 Z M 173.339844 356.78125 " fill-opacity="1" fill-rule="nonzero"/><path fill="#ffbd59" d="M 276.695312 356.78125 L 269.386719 360.679688 C 269.742188 356.269531 270.789062 352.027344 272.53125 347.960938 C 277.515625 336.175781 287.804688 324.640625 299.257812 316.839844 C 299.34375 320.660156 298.957031 324.429688 298.09375 328.152344 C 297.476562 331.179688 296.535156 334.101562 295.269531 336.921875 C 294.003906 339.738281 292.449219 342.386719 290.597656 344.859375 C 288.75 347.335938 286.652344 349.578125 284.304688 351.589844 C 281.960938 353.597656 279.425781 355.328125 276.695312 356.78125 Z M 276.695312 356.78125 " fill-opacity="1" fill-rule="nonzero"/><path fill="#ffbd59" d="M 163.660156 373.03125 C 167.960938 372.316406 172.042969 370.957031 175.910156 368.949219 C 168.828125 364.867188 167.746094 364.191406 165.703125 363.046875 C 163.734375 361.9375 161.667969 361.042969 159.511719 360.367188 C 157.355469 359.691406 155.148438 359.246094 152.898438 359.03125 C 150.648438 358.816406 148.398438 358.835938 146.152344 359.09375 C 143.90625 359.351562 141.710938 359.839844 139.566406 360.558594 C 133.835938 362.289062 128.507812 364.855469 123.578125 368.253906 C 132.0625 371.550781 140.847656 373.421875 149.9375 373.871094 C 154.542969 374.089844 159.117188 373.808594 163.660156 373.03125 Z M 163.660156 373.03125 " fill-opacity="1" fill-rule="nonzero"/><path fill="#ffbd59" d="M 286.355469 373.03125 C 282.058594 372.3125 277.972656 370.953125 274.105469 368.949219 C 281.1875 364.867188 282.269531 364.191406 284.3125 363.046875 C 286.28125 361.9375 288.347656 361.042969 290.503906 360.367188 C 292.660156 359.691406 294.867188 359.246094 297.117188 359.03125 C 299.367188 358.816406 301.617188 358.835938 303.863281 359.09375 C 306.109375 359.351562 308.304688 359.839844 310.449219 360.558594 C 316.175781 362.296875 321.503906 364.863281 326.4375 368.253906 C 317.972656 371.535156 309.203125 373.402344 300.136719 373.851562 C 295.511719 374.078125 290.917969 373.804688 286.355469 373.03125 Z M 286.355469 373.03125 " fill-opacity="1" fill-rule="nonzero"/><path fill="#ffbd59" d="M 147.898438 353.023438 L 141.976562 349.734375 C 140.609375 348.980469 139.207031 348.304688 137.761719 347.710938 C 136.320312 347.117188 134.84375 346.605469 133.34375 346.183594 C 131.839844 345.757812 130.320312 345.421875 128.777344 345.171875 C 127.238281 344.921875 125.6875 344.761719 124.128906 344.691406 C 122.566406 344.621094 121.011719 344.640625 119.453125 344.75 C 117.894531 344.859375 116.347656 345.054688 114.816406 345.34375 C 113.28125 345.628906 111.769531 346.003906 110.277344 346.464844 C 108.785156 346.925781 107.324219 347.472656 105.898438 348.101562 C 102.761719 349.4375 99.78125 351.058594 96.953125 352.960938 C 110.492188 358.78125 133.398438 361.355469 147.898438 353.023438 Z M 147.898438 353.023438 " fill-opacity="1" fill-rule="nonzero"/><path fill="#ffbd59" d="M 302.179688 353.023438 L 308.101562 349.734375 C 309.46875 348.980469 310.871094 348.304688 312.316406 347.710938 C 313.761719 347.117188 315.234375 346.605469 316.738281 346.183594 C 318.242188 345.757812 319.765625 345.421875 321.304688 345.171875 C 322.847656 344.921875 324.398438 344.761719 325.960938 344.691406 C 327.519531 344.621094 329.078125 344.640625 330.636719 344.75 C 332.195312 344.859375 333.742188 345.054688 335.277344 345.34375 C 336.8125 345.628906 338.324219 346.003906 339.816406 346.464844 C 341.308594 346.925781 342.769531 347.472656 344.199219 348.101562 C 347.332031 349.441406 350.316406 351.0625 353.144531 352.960938 C 339.546875 358.78125 316.613281 361.355469 302.179688 353.023438 Z M 302.179688 353.023438 " fill-opacity="1" fill-rule="nonzero"/><path fill="#ffbd59" d="M 139.6875 339.34375 L 151.941406 345.609375 C 151.125 334.074219 143.179688 317.820312 123.046875 303.550781 C 122.496094 308.226562 124.234375 317.128906 127.132812 325.027344 C 127.683594 326.5625 128.375 328.03125 129.203125 329.433594 C 130.03125 330.835938 130.980469 332.148438 132.054688 333.375 C 133.128906 334.597656 134.308594 335.710938 135.59375 336.714844 C 136.875 337.71875 138.242188 338.59375 139.6875 339.34375 Z M 139.6875 339.34375 " fill-opacity="1" fill-rule="nonzero"/><path fill="#ffbd59" d="M 310.347656 339.34375 L 298.09375 345.609375 C 298.890625 334.074219 306.835938 317.820312 326.96875 303.550781 C 327.539062 308.226562 325.78125 317.128906 322.882812 325.027344 C 322.332031 326.558594 321.640625 328.027344 320.816406 329.429688 C 319.988281 330.832031 319.039062 332.144531 317.964844 333.371094 C 316.894531 334.59375 315.71875 335.707031 314.4375 336.710938 C 313.15625 337.714844 311.792969 338.59375 310.347656 339.34375 Z M 310.347656 339.34375 " fill-opacity="1" fill-rule="nonzero"/><path fill="#ffbd59" d="M 115.921875 327.355469 L 122.273438 330.542969 C 121.351562 316.984375 109.492188 299.914062 99.8125 290.09375 C 99.570312 290.976562 99.363281 291.867188 99.195312 292.765625 C 99.027344 293.664062 98.898438 294.570312 98.804688 295.480469 C 98.714844 296.390625 98.664062 297.304688 98.648438 298.21875 C 98.636719 299.136719 98.660156 300.050781 98.722656 300.960938 C 98.789062 301.875 98.890625 302.785156 99.03125 303.6875 C 99.171875 304.59375 99.351562 305.488281 99.570312 306.378906 C 99.785156 307.265625 100.039062 308.144531 100.332031 309.011719 C 100.621094 309.878906 100.949219 310.734375 101.316406 311.574219 C 101.679688 312.414062 102.078125 313.238281 102.511719 314.042969 C 102.945312 314.847656 103.414062 315.632812 103.914062 316.402344 C 104.414062 317.167969 104.945312 317.910156 105.507812 318.632812 C 106.070312 319.351562 106.664062 320.046875 107.289062 320.71875 C 107.910156 321.390625 108.558594 322.035156 109.238281 322.648438 C 109.914062 323.265625 110.617188 323.851562 111.34375 324.40625 C 112.070312 324.964844 112.820312 325.488281 113.589844 325.980469 C 114.363281 326.472656 115.152344 326.929688 115.964844 327.355469 Z M 115.921875 327.355469 " fill-opacity="1" fill-rule="nonzero"/><path fill="#ffbd59" d="M 334.09375 327.355469 L 327.761719 330.542969 C 328.683594 316.984375 340.546875 299.914062 350.222656 290.09375 C 350.984375 292.832031 351.378906 295.621094 351.40625 298.464844 C 351.441406 299.945312 351.371094 301.425781 351.195312 302.898438 C 351.019531 304.371094 350.742188 305.820312 350.363281 307.253906 C 349.984375 308.6875 349.507812 310.089844 348.929688 311.453125 C 348.355469 312.820312 347.683594 314.140625 346.921875 315.410156 C 346.160156 316.683594 345.3125 317.894531 344.378906 319.046875 C 343.449219 320.199219 342.4375 321.28125 341.351562 322.292969 C 340.269531 323.300781 339.117188 324.230469 337.902344 325.082031 C 336.6875 325.929688 335.417969 326.6875 334.09375 327.355469 Z M 334.09375 327.355469 " fill-opacity="1" fill-rule="nonzero"/><path fill="#ffbd59" d="M 118.863281 337.074219 C 110.839844 332.707031 106.140625 330.214844 100.75 326.867188 C 92.238281 326.113281 74.085938 329.398438 67.0625 332.460938 C 79.925781 341.488281 102.894531 346.691406 118.863281 337.074219 Z M 118.863281 337.074219 " fill-opacity="1" fill-rule="nonzero"/><path fill="#ffbd59" d="M 331.152344 337.074219 C 339.175781 332.707031 343.875 330.214844 349.285156 326.867188 C 357.777344 326.113281 375.929688 329.398438 382.976562 332.460938 C 370.113281 341.488281 347.101562 346.691406 331.152344 337.074219 Z M 331.152344 337.074219 " fill-opacity="1" fill-rule="nonzero"/><path fill="#ffbd59" d="M 86.847656 310.082031 C 88.886719 311.613281 91.234375 313.167969 93.890625 314.921875 C 94.585938 304.714844 90.214844 291.6875 85.722656 282.457031 C 85.316406 281.625 84.886719 280.808594 84.4375 280.007812 C 83.988281 279.230469 83.578125 278.414062 83.128906 277.636719 C 82.679688 276.863281 82.191406 276.128906 81.699219 275.414062 C 81.210938 274.699219 80.761719 273.941406 80.25 273.25 C 79.234375 275.277344 78.433594 277.386719 77.839844 279.578125 C 77.125 282.257812 76.65625 284.980469 76.433594 287.746094 C 76.285156 289.894531 76.40625 292.03125 76.800781 294.148438 C 77.195312 296.269531 77.847656 298.304688 78.757812 300.257812 C 79.667969 302.210938 80.808594 304.019531 82.179688 305.683594 C 83.546875 307.347656 85.105469 308.8125 86.847656 310.082031 Z M 86.847656 310.082031 " fill-opacity="1" fill-rule="nonzero"/><path fill="#ffbd59" d="M 363.167969 310.082031 C 361.128906 311.613281 358.777344 313.167969 356.144531 314.921875 C 355.449219 304.714844 359.800781 291.6875 364.3125 282.457031 C 364.722656 281.621094 365.128906 280.804688 365.578125 280.007812 C 366.027344 279.210938 366.4375 278.414062 366.90625 277.636719 C 367.375 276.863281 367.824219 276.128906 368.316406 275.414062 C 368.804688 274.699219 369.253906 273.941406 369.765625 273.25 C 370.789062 275.273438 371.59375 277.382812 372.171875 279.578125 C 372.890625 282.257812 373.359375 284.980469 373.582031 287.746094 C 373.730469 289.894531 373.609375 292.03125 373.214844 294.148438 C 372.820312 296.269531 372.167969 298.304688 371.257812 300.257812 C 370.347656 302.210938 369.207031 304.019531 367.835938 305.683594 C 366.46875 307.347656 364.910156 308.8125 363.167969 310.082031 Z M 363.167969 310.082031 " fill-opacity="1" fill-rule="nonzero"/><path fill="#ffbd59" d="M 90.378906 320.191406 C 89.234375 319.394531 88.171875 318.636719 87.171875 317.902344 C 84.226562 315.761719 81.121094 313.894531 77.84375 312.296875 C 74.570312 310.703125 71.183594 309.410156 67.679688 308.414062 C 64.179688 307.417969 60.617188 306.734375 56.992188 306.367188 C 53.371094 306 49.742188 305.953125 46.113281 306.222656 C 44.519531 306.324219 42.941406 306.523438 41.375 306.816406 C 55.117188 320.742188 76.515625 326.640625 90.378906 320.191406 Z M 90.378906 320.191406 " fill-opacity="1" fill-rule="nonzero"/><path fill="#ffbd59" d="M 359.65625 320.191406 L 362.84375 317.902344 C 365.785156 315.761719 368.894531 313.894531 372.171875 312.296875 C 375.445312 310.703125 378.832031 309.410156 382.335938 308.414062 C 385.835938 307.417969 389.398438 306.734375 393.023438 306.367188 C 396.644531 306 400.273438 305.953125 403.902344 306.222656 C 405.5 306.324219 407.085938 306.523438 408.660156 306.816406 C 394.980469 320.742188 373.5 326.640625 359.65625 320.191406 Z M 359.65625 320.191406 " fill-opacity="1" fill-rule="nonzero"/><path fill="#ffbd59" d="M 60.300781 285.519531 L 61.445312 286.867188 C 62.609375 288.175781 66.304688 292.359375 69.410156 295.339844 C 70.25 292.105469 70.648438 288.820312 70.613281 285.480469 C 70.578125 280.078125 70.007812 274.734375 68.902344 269.445312 C 67.796875 264.160156 66.175781 259.035156 64.039062 254.074219 C 62.074219 256.621094 60.449219 259.371094 59.171875 262.320312 C 57.890625 265.273438 56.996094 268.335938 56.484375 271.511719 C 56.289062 272.738281 56.222656 273.972656 56.289062 275.214844 C 56.359375 276.457031 56.554688 277.675781 56.882812 278.875 C 57.210938 280.074219 57.660156 281.222656 58.234375 282.328125 C 58.804688 283.429688 59.488281 284.460938 60.28125 285.417969 Z M 60.300781 285.519531 " fill-opacity="1" fill-rule="nonzero"/><path fill="#ffbd59" d="M 389.714844 285.519531 L 388.589844 286.867188 C 387.425781 288.175781 383.730469 292.359375 380.625 295.339844 C 379.78125 292.109375 379.371094 288.820312 379.402344 285.480469 C 379.441406 280.078125 380.015625 274.734375 381.125 269.445312 C 382.234375 264.160156 383.859375 259.035156 385.996094 254.074219 C 387.964844 256.636719 389.589844 259.398438 390.867188 262.363281 C 392.148438 265.328125 393.042969 268.40625 393.550781 271.59375 C 393.746094 272.820312 393.808594 274.058594 393.738281 275.296875 C 393.667969 276.539062 393.46875 277.757812 393.140625 278.957031 C 392.8125 280.15625 392.359375 281.308594 391.785156 282.410156 C 391.210938 283.511719 390.527344 284.542969 389.734375 285.5 Z M 389.714844 285.519531 " fill-opacity="1" fill-rule="nonzero"/><path fill="#ffbd59" d="M 65.671875 299.117188 C 63.285156 296.667969 60.300781 293.300781 57.339844 289.625 C 55.464844 287.28125 53.28125 285.273438 50.785156 283.597656 C 48.289062 281.925781 45.601562 280.667969 42.722656 279.824219 C 36.347656 277.894531 29.839844 276.667969 23.203125 276.148438 C 32.65625 292.136719 51.871094 302.628906 65.671875 299.117188 Z M 65.671875 299.117188 " fill-opacity="1" fill-rule="nonzero"/><path fill="#ffbd59" d="M 384.363281 299.117188 C 386.753906 296.667969 389.734375 293.300781 392.671875 289.625 C 394.550781 287.277344 396.742188 285.265625 399.238281 283.59375 C 401.738281 281.921875 404.429688 280.664062 407.3125 279.824219 C 413.679688 277.890625 420.179688 276.667969 426.8125 276.148438 C 417.296875 292.136719 398.144531 302.628906 384.363281 299.117188 Z M 384.363281 299.117188 " fill-opacity="1" fill-rule="nonzero"/><path fill="#ffbd59" d="M 45.214844 263.632812 C 46.5 265.898438 47.847656 268.164062 48.96875 270 C 54.09375 261.304688 57.339844 242.375 54.238281 229.511719 C 51.878906 231.429688 49.800781 233.617188 48.007812 236.074219 C 46.214844 238.53125 44.765625 241.175781 43.660156 244.007812 C 43.066406 245.601562 42.652344 247.238281 42.414062 248.925781 C 42.179688 250.609375 42.128906 252.296875 42.261719 253.992188 C 42.398438 255.6875 42.714844 257.347656 43.210938 258.972656 C 43.707031 260.597656 44.375 262.152344 45.214844 263.632812 Z M 45.214844 263.632812 " fill-opacity="1" fill-rule="nonzero"/><path fill="#ffbd59" d="M 404.824219 263.632812 C 403.535156 265.898438 402.1875 268.164062 401.066406 270 C 395.921875 261.304688 392.695312 242.375 395.777344 229.511719 C 398.136719 231.429688 400.214844 233.617188 402.007812 236.074219 C 403.800781 238.53125 405.25 241.175781 406.355469 244.007812 C 406.949219 245.601562 407.367188 247.238281 407.605469 248.921875 C 407.84375 250.605469 407.894531 252.292969 407.761719 253.988281 C 407.628906 255.683594 407.316406 257.34375 406.820312 258.972656 C 406.324219 260.597656 405.660156 262.152344 404.824219 263.632812 Z M 404.824219 263.632812 " fill-opacity="1" fill-rule="nonzero"/><path fill="#ffbd59" d="M 41.191406 264.609375 C 38.925781 260.148438 35.796875 256.410156 31.796875 253.402344 C 24.992188 248.339844 17.503906 244.667969 9.335938 242.375 C 15.730469 261.570312 33.085938 272.820312 45.417969 272.289062 C 43.253906 268.570312 42.109375 266.449219 41.191406 264.609375 Z M 41.191406 264.609375 " fill-opacity="1" fill-rule="nonzero"/><path fill="#ffbd59" d="M 408.84375 264.609375 C 411.101562 260.148438 414.226562 256.414062 418.21875 253.402344 C 425.027344 248.347656 432.515625 244.671875 440.675781 242.375 C 434.265625 261.570312 416.929688 272.820312 404.597656 272.289062 C 406.761719 268.570312 407.90625 266.449219 408.84375 264.609375 Z M 408.84375 264.609375 " fill-opacity="1" fill-rule="nonzero"/><path fill="#ffbd59" d="M 35.332031 241.621094 C 42.355469 234.332031 49.234375 217.34375 48.335938 204.070312 C 47.582031 204.519531 46.851562 205.003906 46.136719 205.515625 C 45.425781 206.027344 44.734375 206.570312 44.070312 207.144531 C 43.402344 207.714844 42.761719 208.3125 42.148438 208.941406 C 41.535156 209.566406 40.945312 210.21875 40.386719 210.894531 C 39.828125 211.574219 39.296875 212.273438 38.796875 212.992188 C 38.300781 213.714844 37.832031 214.457031 37.394531 215.21875 C 36.960938 215.980469 36.554688 216.761719 36.1875 217.558594 C 35.816406 218.355469 35.480469 219.164062 35.183594 219.988281 C 34.882812 220.8125 34.617188 221.652344 34.386719 222.5 C 34.160156 223.347656 33.964844 224.203125 33.8125 225.066406 C 33.65625 225.929688 33.535156 226.796875 33.453125 227.671875 C 33.375 228.546875 33.328125 229.421875 33.324219 230.300781 C 33.316406 231.179688 33.347656 232.054688 33.414062 232.929688 C 33.484375 233.804688 33.589844 234.675781 33.730469 235.542969 C 33.875 236.410156 34.054688 237.269531 34.269531 238.121094 C 34.484375 238.96875 34.738281 239.808594 35.023438 240.640625 C 35.105469 240.988281 35.226562 241.292969 35.332031 241.621094 Z M 35.332031 241.621094 " fill-opacity="1" fill-rule="nonzero"/><path fill="#ffbd59" d="M 414.683594 241.621094 C 407.660156 234.332031 400.800781 217.34375 401.679688 204.070312 C 402.433594 204.519531 403.167969 205 403.878906 205.511719 C 404.59375 206.027344 405.28125 206.566406 405.949219 207.140625 C 406.617188 207.710938 407.257812 208.308594 407.871094 208.9375 C 408.488281 209.5625 409.074219 210.214844 409.636719 210.890625 C 410.195312 211.566406 410.726562 212.265625 411.226562 212.988281 C 411.726562 213.710938 412.195312 214.453125 412.628906 215.214844 C 413.066406 215.976562 413.46875 216.757812 413.839844 217.550781 C 414.210938 218.347656 414.542969 219.160156 414.84375 219.984375 C 415.144531 220.808594 415.410156 221.648438 415.636719 222.496094 C 415.867188 223.34375 416.058594 224.199219 416.214844 225.0625 C 416.371094 225.925781 416.488281 226.796875 416.570312 227.671875 C 416.652344 228.546875 416.695312 229.421875 416.703125 230.300781 C 416.707031 231.179688 416.675781 232.054688 416.609375 232.929688 C 416.539062 233.804688 416.433594 234.675781 416.289062 235.542969 C 416.144531 236.410156 415.964844 237.269531 415.75 238.121094 C 415.53125 238.96875 415.28125 239.808594 414.992188 240.640625 C 414.910156 240.988281 414.808594 241.292969 414.683594 241.621094 Z M 414.683594 241.621094 " fill-opacity="1" fill-rule="nonzero"/><path fill="#ffbd59" d="M 32.289062 242.742188 C 31.574219 240.515625 30.816406 237.863281 30.246094 235.515625 C 29.347656 232.113281 27.910156 228.953125 25.9375 226.039062 C 22.917969 221.570312 18.710938 217.097656 10.113281 211.746094 C 8.167969 210.484375 6.152344 209.339844 4.070312 208.316406 C 4.65625 212.953125 5.957031 217.375 7.96875 221.589844 C 12.238281 231.042969 22.121094 241.273438 32.289062 242.742188 Z M 32.289062 242.742188 " fill-opacity="1" fill-rule="nonzero"/><path fill="#ffbd59" d="M 417.726562 242.742188 C 418.441406 240.515625 419.199219 237.863281 419.769531 235.515625 C 420.667969 232.113281 422.105469 228.953125 424.078125 226.039062 C 427.121094 221.570312 431.324219 217.097656 439.902344 211.746094 C 441.839844 210.519531 443.839844 209.402344 445.90625 208.398438 C 445.324219 213.03125 444.03125 217.457031 442.023438 221.671875 C 437.738281 231.042969 427.894531 241.273438 417.726562 242.742188 Z M 417.726562 242.742188 " fill-opacity="1" fill-rule="nonzero"/><path fill="#ffbd59" d="M 25.773438 211.21875 C 24.671875 201.703125 24.691406 188.757812 4.683594 174.667969 C 3.867188 193.167969 16.136719 208.214844 25.773438 211.21875 Z M 25.773438 211.21875 " fill-opacity="1" fill-rule="nonzero"/><path fill="#ffbd59" d="M 424.242188 211.21875 C 425.34375 201.703125 425.324219 188.757812 445.351562 174.667969 C 446.171875 193.167969 433.878906 208.214844 424.242188 211.21875 Z M 424.242188 211.21875 " fill-opacity="1" fill-rule="nonzero"/><path fill="#ffbd59" d="M 46.4375 177.34375 C 44.886719 178.019531 43.398438 178.8125 41.972656 179.730469 C 40.546875 180.648438 39.207031 181.671875 37.949219 182.804688 C 36.691406 183.941406 35.535156 185.167969 34.476562 186.492188 C 33.417969 187.8125 32.472656 189.210938 31.644531 190.6875 C 30.8125 192.164062 30.105469 193.695312 29.523438 195.285156 C 28.941406 196.875 28.492188 198.503906 28.171875 200.167969 C 27.855469 201.828125 27.671875 203.507812 27.625 205.199219 C 27.578125 206.894531 27.671875 208.578125 27.898438 210.257812 C 27.898438 210.460938 27.898438 210.625 27.898438 210.746094 C 36.066406 205.480469 45.765625 190.453125 46.722656 177.097656 Z M 46.4375 177.34375 " fill-opacity="1" fill-rule="nonzero"/><path fill="#ffbd59" d="M 403.597656 177.34375 C 405.148438 178.019531 406.636719 178.816406 408.058594 179.730469 C 409.484375 180.648438 410.824219 181.675781 412.078125 182.808594 C 413.335938 183.945312 414.492188 185.171875 415.550781 186.496094 C 416.605469 187.816406 417.550781 189.214844 418.378906 190.691406 C 419.210938 192.167969 419.917969 193.699219 420.5 195.289062 C 421.078125 196.878906 421.527344 198.507812 421.847656 200.167969 C 422.164062 201.832031 422.347656 203.511719 422.390625 205.203125 C 422.4375 206.894531 422.34375 208.578125 422.117188 210.257812 C 422.117188 210.460938 422.117188 210.625 422.117188 210.746094 C 413.949219 205.480469 404.269531 190.453125 403.292969 177.097656 Z M 403.597656 177.34375 " fill-opacity="1" fill-rule="nonzero"/><path fill="#ffbd59" d="M 26.324219 179.058594 C 32.859375 176.527344 46.191406 164.90625 49.175781 149.757812 C 32.410156 154.738281 26.652344 165.335938 26.324219 179.058594 Z M 26.324219 179.058594 " fill-opacity="1" fill-rule="nonzero"/><path fill="#ffbd59" d="M 423.6875 179.058594 C 417.175781 176.527344 403.84375 164.90625 400.839844 149.757812 C 417.625 154.738281 423.382812 165.335938 423.6875 179.058594 Z M 423.6875 179.058594 " fill-opacity="1" fill-rule="nonzero"/><path fill="#ffbd59" d="M 25.121094 179.140625 C 25.9375 165.621094 23.507812 154.636719 10.03125 142.019531 C 6.539062 159.621094 17.054688 175.421875 25.121094 179.140625 Z M 25.121094 179.140625 " fill-opacity="1" fill-rule="nonzero"/><path fill="#ffbd59" d="M 424.914062 179.140625 C 424.078125 165.621094 426.507812 154.636719 440.003906 142.019531 C 443.476562 159.621094 432.960938 175.421875 424.914062 179.140625 Z M 424.914062 179.140625 " fill-opacity="1" fill-rule="nonzero"/><path fill="#ffbd59" d="M 37.535156 116.636719 C 25.753906 124.5 18.503906 142.570312 27.980469 152.941406 C 40.210938 146.46875 40.824219 130.09375 37.535156 116.636719 Z M 37.535156 116.636719 " fill-opacity="1" fill-rule="nonzero"/><path fill="#ffbd59" d="M 412.4375 116.636719 C 424.242188 124.5625 431.46875 142.570312 421.996094 152.941406 C 409.824219 146.46875 409.152344 130.09375 412.4375 116.636719 Z M 412.4375 116.636719 " fill-opacity="1" fill-rule="nonzero"/><path fill="#ffbd59" d="M 201.332031 371.992188 C 203.539062 373.21875 205.234375 374.175781 210.886719 377.402344 C 210.234375 363.457031 201.046875 350.082031 191.019531 340.28125 C 187.757812 337.085938 184.265625 334.15625 180.546875 331.5 C 180.417969 336.671875 181.023438 341.757812 182.363281 346.753906 C 182.980469 349.402344 183.863281 351.957031 185.011719 354.421875 C 186.160156 356.882812 187.554688 359.199219 189.1875 361.375 C 190.820312 363.546875 192.660156 365.527344 194.707031 367.316406 C 196.75 369.105469 198.960938 370.664062 201.332031 371.992188 Z M 201.332031 371.992188 " fill-opacity="1" fill-rule="nonzero"/><path fill="#ffbd59" d="M 248.683594 371.992188 C 246.476562 373.21875 244.804688 374.175781 239.148438 377.402344 C 239.78125 363.457031 248.96875 350.082031 259.015625 340.28125 C 262.269531 337.074219 265.761719 334.148438 269.488281 331.5 C 269.597656 336.671875 268.984375 341.757812 267.652344 346.753906 C 267.039062 349.402344 266.15625 351.957031 265.007812 354.421875 C 263.859375 356.886719 262.46875 359.207031 260.835938 361.378906 C 259.203125 363.550781 257.363281 365.53125 255.3125 367.320312 C 253.265625 369.109375 251.054688 370.664062 248.683594 371.992188 Z M 248.683594 371.992188 " fill-opacity="1" fill-rule="nonzero"/><path fill="#ffbd59" d="M 196.371094 380.894531 C 194.046875 379.496094 191.597656 378.371094 189.027344 377.515625 C 186.453125 376.664062 183.816406 376.105469 181.117188 375.835938 C 178.421875 375.570312 175.726562 375.605469 173.035156 375.9375 C 170.34375 376.269531 167.722656 376.894531 165.171875 377.8125 C 160.3125 379.378906 155.796875 381.625 151.613281 384.550781 C 166.96875 390.574219 189.285156 394.1875 205.394531 386.425781 C 200.085938 383.140625 198.371094 382.097656 196.371094 380.894531 Z M 196.371094 380.894531 " fill-opacity="1" fill-rule="nonzero"/><path fill="#ffbd59" d="M 253.664062 380.894531 C 255.984375 379.496094 258.433594 378.371094 261.003906 377.515625 C 263.578125 376.664062 266.210938 376.105469 268.90625 375.835938 C 271.601562 375.570312 274.296875 375.605469 276.984375 375.9375 C 279.675781 376.269531 282.292969 376.894531 284.84375 377.8125 C 289.703125 379.375 294.222656 381.621094 298.402344 384.550781 C 283.046875 390.574219 260.730469 394.1875 244.621094 386.425781 C 249.96875 383.140625 251.644531 382.097656 253.664062 380.894531 Z M 253.664062 380.894531 " fill-opacity="1" fill-rule="nonzero"/><g clip-path="url(#d65cec8ffd)"><path fill="#ffbd59" d="M 225.019531 388.960938 L 220.710938 386.40625 L 217.136719 384.367188 C 168.722656 355.1875 103.488281 328.335938 77.207031 306.773438 C 96.871094 324.152344 109.449219 328.683594 166.621094 360.863281 C 177.503906 366.988281 202.988281 381.933594 214.664062 389.449219 L 219.300781 392.492188 C 194.574219 407.519531 190.714844 412.03125 182.078125 429.46875 C 195.796875 417.6875 210.089844 406.644531 224.957031 396.351562 C 239.820312 406.648438 254.113281 417.6875 267.835938 429.46875 C 259.28125 412.03125 255.339844 407.519531 230.613281 392.492188 C 232.183594 391.449219 233.738281 390.449219 235.269531 389.449219 C 246.925781 381.855469 272.429688 366.847656 283.292969 360.863281 C 340.464844 328.683594 353.0625 324.109375 372.703125 306.773438 C 346.425781 328.417969 281.210938 355.269531 232.796875 384.367188 L 229.222656 386.40625 Z M 225.019531 388.960938 " fill-opacity="1" fill-rule="nonzero"/></g><g fill="#ffbd59" fill-opacity="1"><g transform="translate(94.640406, 215.158199)"><g><path d="M 26.625 0.4375 C 23.28125 0.4375 19.503906 0.144531 15.296875 -0.4375 C 12.992188 -0.71875 11.410156 -1.316406 10.546875 -2.234375 C 9.679688 -3.160156 9.304688 -4.660156 9.421875 -6.734375 C 9.828125 -12.441406 10.773438 -19.488281 12.265625 -27.875 C 13.765625 -36.257812 15.582031 -44.335938 17.71875 -52.109375 C 18.125 -53.546875 18.929688 -54.550781 20.140625 -55.125 C 21.347656 -55.707031 22.929688 -56 24.890625 -56 C 28.398438 -56 30.15625 -55.019531 30.15625 -53.0625 C 30.15625 -52.257812 29.984375 -51.335938 29.640625 -50.296875 C 28.140625 -45.691406 26.640625 -39.515625 25.140625 -31.765625 C 23.648438 -24.015625 22.585938 -16.625 21.953125 -9.59375 C 23.679688 -9.414062 25.640625 -9.328125 27.828125 -9.328125 C 37.910156 -9.328125 45.441406 -12.378906 50.421875 -18.484375 C 55.410156 -24.597656 57.90625 -32.753906 57.90625 -42.953125 C 57.90625 -49.804688 55.945312 -55.101562 52.03125 -58.84375 C 48.113281 -62.59375 42.582031 -64.46875 35.4375 -64.46875 C 30.820312 -64.46875 26.253906 -63.75 21.734375 -62.3125 C 17.210938 -60.875 13.132812 -58.972656 9.5 -56.609375 C 8.757812 -56.085938 7.957031 -55.828125 7.09375 -55.828125 C 6.113281 -55.828125 5.332031 -56.242188 4.75 -57.078125 C 4.175781 -57.910156 3.890625 -58.9375 3.890625 -60.15625 C 3.890625 -61.53125 4.117188 -62.664062 4.578125 -63.5625 C 5.035156 -64.457031 5.8125 -65.28125 6.90625 -66.03125 C 10.882812 -68.738281 15.550781 -70.796875 20.90625 -72.203125 C 26.269531 -73.617188 31.429688 -74.328125 36.390625 -74.328125 C 43.410156 -74.328125 49.484375 -73.101562 54.609375 -70.65625 C 59.742188 -68.207031 63.691406 -64.617188 66.453125 -59.890625 C 69.222656 -55.160156 70.609375 -49.457031 70.609375 -42.78125 C 70.609375 -34.082031 68.878906 -26.488281 65.421875 -20 C 61.960938 -13.519531 56.921875 -8.492188 50.296875 -4.921875 C 43.671875 -1.347656 35.78125 0.4375 26.625 0.4375 Z M 26.625 0.4375 "/></g></g></g><g fill="#ffbd59" fill-opacity="1"><g transform="translate(166.885704, 215.158199)"><g><path d="M 15.46875 -45.96875 C 13.050781 -45.96875 11.234375 -46.53125 10.015625 -47.65625 C 8.804688 -48.78125 8.203125 -50.351562 8.203125 -52.375 C 8.203125 -54.382812 8.992188 -56.066406 10.578125 -57.421875 C 12.171875 -58.773438 14.144531 -59.453125 16.5 -59.453125 C 18.632812 -59.453125 20.363281 -58.929688 21.6875 -57.890625 C 23.007812 -56.859375 23.671875 -55.394531 23.671875 -53.5 C 23.671875 -51.1875 22.921875 -49.351562 21.421875 -48 C 19.929688 -46.644531 17.945312 -45.96875 15.46875 -45.96875 Z M 14.78125 0.4375 C 11.03125 0.4375 8.304688 -0.882812 6.609375 -3.53125 C 4.910156 -6.1875 4.0625 -9.707031 4.0625 -14.09375 C 4.0625 -16.675781 4.390625 -20 5.046875 -24.0625 C 5.710938 -28.125 6.566406 -31.914062 7.609375 -35.4375 C 8.128906 -37.28125 8.816406 -38.546875 9.671875 -39.234375 C 10.535156 -39.921875 11.921875 -40.265625 13.828125 -40.265625 C 16.765625 -40.265625 18.234375 -39.285156 18.234375 -37.328125 C 18.234375 -35.890625 17.6875 -32.550781 16.59375 -27.3125 C 15.207031 -20.96875 14.515625 -16.675781 14.515625 -14.4375 C 14.515625 -12.707031 14.742188 -11.378906 15.203125 -10.453125 C 15.671875 -9.535156 16.453125 -9.078125 17.546875 -9.078125 C 18.578125 -9.078125 19.867188 -9.796875 21.421875 -11.234375 C 22.984375 -12.671875 25.0625 -14.945312 27.65625 -18.0625 C 28.34375 -18.863281 29.117188 -19.265625 29.984375 -19.265625 C 30.734375 -19.265625 31.320312 -18.921875 31.75 -18.234375 C 32.1875 -17.546875 32.40625 -16.597656 32.40625 -15.390625 C 32.40625 -13.078125 31.859375 -11.289062 30.765625 -10.03125 C 25.054688 -3.050781 19.726562 0.4375 14.78125 0.4375 Z M 14.78125 0.4375 "/></g></g></g><g fill="#ffbd59" fill-opacity="1"><g transform="translate(188.144476, 215.158199)"><g><path d="M 54.09375 -19.265625 C 54.84375 -19.265625 55.429688 -18.921875 55.859375 -18.234375 C 56.296875 -17.546875 56.515625 -16.597656 56.515625 -15.390625 C 56.515625 -13.078125 55.96875 -11.289062 54.875 -10.03125 C 52.28125 -6.851562 49.65625 -4.3125 47 -2.40625 C 44.351562 -0.507812 41.21875 0.4375 37.59375 0.4375 C 33.15625 0.4375 29.582031 -0.828125 26.875 -3.359375 C 24.164062 -5.898438 22.8125 -9.273438 22.8125 -13.484375 C 22.8125 -15.734375 23.960938 -17.347656 26.265625 -18.328125 C 28.804688 -19.421875 30.625 -20.582031 31.71875 -21.8125 C 32.8125 -23.050781 33.359375 -24.566406 33.359375 -26.359375 C 33.359375 -27.398438 33.140625 -28.175781 32.703125 -28.6875 C 32.273438 -29.207031 31.742188 -29.46875 31.109375 -29.46875 C 29.554688 -29.46875 27.84375 -28.34375 25.96875 -26.09375 C 24.09375 -23.851562 22.347656 -20.957031 20.734375 -17.40625 C 19.128906 -13.863281 17.863281 -10.222656 16.9375 -6.484375 C 16.300781 -3.773438 15.566406 -1.941406 14.734375 -0.984375 C 13.898438 -0.0351562 12.585938 0.4375 10.796875 0.4375 C 9.015625 0.4375 7.707031 -0.207031 6.875 -1.5 C 6.039062 -2.800781 5.476562 -4.804688 5.1875 -7.515625 C 4.894531 -10.222656 4.75 -14.195312 4.75 -19.4375 C 4.75 -28.3125 5.65625 -37.5625 7.46875 -47.1875 C 9.289062 -56.8125 11.972656 -64.890625 15.515625 -71.421875 C 19.054688 -77.960938 23.304688 -81.234375 28.265625 -81.234375 C 30.910156 -81.234375 33.050781 -80.09375 34.6875 -77.8125 C 36.332031 -75.539062 37.15625 -72.59375 37.15625 -68.96875 C 37.15625 -63.144531 35.457031 -57.109375 32.0625 -50.859375 C 28.664062 -44.609375 23.132812 -37.304688 15.46875 -28.953125 C 15.289062 -25.953125 15.203125 -22.867188 15.203125 -19.703125 C 17.972656 -26.898438 21.144531 -32.125 24.71875 -35.375 C 28.289062 -38.632812 31.628906 -40.265625 34.734375 -40.265625 C 37.617188 -40.265625 39.9375 -39.285156 41.6875 -37.328125 C 43.445312 -35.367188 44.328125 -32.953125 44.328125 -30.078125 C 44.328125 -26.910156 43.519531 -24 41.90625 -21.34375 C 40.300781 -18.695312 37.539062 -16.335938 33.625 -14.265625 C 33.851562 -12.703125 34.554688 -11.445312 35.734375 -10.5 C 36.910156 -9.550781 38.335938 -9.078125 40.015625 -9.078125 C 41.796875 -9.078125 43.519531 -9.765625 45.1875 -11.140625 C 46.863281 -12.523438 49.054688 -14.832031 51.765625 -18.0625 C 52.453125 -18.863281 53.226562 -19.265625 54.09375 -19.265625 Z M 26.4375 -72.6875 C 25.40625 -72.6875 24.253906 -71.203125 22.984375 -68.234375 C 21.722656 -65.265625 20.5 -61.257812 19.3125 -56.21875 C 18.132812 -51.175781 17.171875 -45.6875 16.421875 -39.75 C 19.992188 -43.957031 22.945312 -48.535156 25.28125 -53.484375 C 27.613281 -58.441406 28.78125 -62.941406 28.78125 -66.984375 C 28.78125 -68.828125 28.578125 -70.238281 28.171875 -71.21875 C 27.765625 -72.195312 27.1875 -72.6875 26.4375 -72.6875 Z M 26.4375 -72.6875 "/></g></g></g><g fill="#ffbd59" fill-opacity="1"><g transform="translate(233.513826, 215.158199)"><g><path d="M 14.78125 0.4375 C 11.207031 0.4375 8.351562 -0.859375 6.21875 -3.453125 C 4.09375 -6.046875 3.03125 -9.445312 3.03125 -13.65625 C 3.03125 -18.257812 4.09375 -22.617188 6.21875 -26.734375 C 8.351562 -30.859375 11.191406 -34.175781 14.734375 -36.6875 C 18.273438 -39.195312 22.035156 -40.453125 26.015625 -40.453125 C 27.285156 -40.453125 28.132812 -40.203125 28.5625 -39.703125 C 28.988281 -39.210938 29.347656 -38.335938 29.640625 -37.078125 C 30.847656 -37.304688 32.113281 -37.421875 33.4375 -37.421875 C 36.269531 -37.421875 37.6875 -36.410156 37.6875 -34.390625 C 37.6875 -33.179688 37.253906 -30.300781 36.390625 -25.75 C 35.054688 -19.125 34.390625 -14.515625 34.390625 -11.921875 C 34.390625 -11.054688 34.601562 -10.363281 35.03125 -9.84375 C 35.46875 -9.332031 36.035156 -9.078125 36.734375 -9.078125 C 37.828125 -9.078125 39.148438 -9.78125 40.703125 -11.1875 C 42.253906 -12.601562 44.359375 -14.894531 47.015625 -18.0625 C 47.703125 -18.863281 48.476562 -19.265625 49.34375 -19.265625 C 50.09375 -19.265625 50.679688 -18.921875 51.109375 -18.234375 C 51.546875 -17.546875 51.765625 -16.597656 51.765625 -15.390625 C 51.765625 -13.078125 51.21875 -11.289062 50.125 -10.03125 C 47.757812 -7.09375 45.25 -4.613281 42.59375 -2.59375 C 39.945312 -0.570312 37.390625 0.4375 34.921875 0.4375 C 33.015625 0.4375 31.269531 -0.207031 29.6875 -1.5 C 28.101562 -2.800781 26.90625 -4.578125 26.09375 -6.828125 C 23.101562 -1.984375 19.332031 0.4375 14.78125 0.4375 Z M 17.890625 -8.296875 C 19.160156 -8.296875 20.367188 -9.046875 21.515625 -10.546875 C 22.671875 -12.046875 23.507812 -14.03125 24.03125 -16.5 L 27.21875 -32.40625 C 24.800781 -32.351562 22.566406 -31.445312 20.515625 -29.6875 C 18.472656 -27.925781 16.847656 -25.601562 15.640625 -22.71875 C 14.429688 -19.84375 13.828125 -16.789062 13.828125 -13.5625 C 13.828125 -11.78125 14.1875 -10.457031 14.90625 -9.59375 C 15.625 -8.726562 16.617188 -8.296875 17.890625 -8.296875 Z M 17.890625 -8.296875 "/></g></g></g><g fill="#ffbd59" fill-opacity="1"><g transform="translate(274.130187, 215.158199)"><g><path d="M 10.28125 0.4375 C 8.09375 0.4375 6.550781 -0.710938 5.65625 -3.015625 C 4.769531 -5.328125 4.328125 -9.019531 4.328125 -14.09375 C 4.328125 -21.582031 5.390625 -28.695312 7.515625 -35.4375 C 8.035156 -37.101562 8.882812 -38.320312 10.0625 -39.09375 C 11.25 -39.875 12.90625 -40.265625 15.03125 -40.265625 C 16.1875 -40.265625 16.992188 -40.117188 17.453125 -39.828125 C 17.921875 -39.546875 18.15625 -39.003906 18.15625 -38.203125 C 18.15625 -37.273438 17.722656 -35.195312 16.859375 -31.96875 C 16.273438 -29.664062 15.8125 -27.648438 15.46875 -25.921875 C 15.125 -24.191406 14.835938 -22.0625 14.609375 -19.53125 C 16.503906 -24.488281 18.632812 -28.519531 21 -31.625 C 23.363281 -34.738281 25.679688 -36.957031 27.953125 -38.28125 C 30.234375 -39.601562 32.320312 -40.265625 34.21875 -40.265625 C 37.96875 -40.265625 39.84375 -38.394531 39.84375 -34.65625 C 39.84375 -33.90625 39.582031 -32.085938 39.0625 -29.203125 C 38.601562 -26.898438 38.375 -25.460938 38.375 -24.890625 C 38.375 -22.867188 39.09375 -21.859375 40.53125 -21.859375 C 42.144531 -21.859375 44.21875 -23.128906 46.75 -25.671875 C 47.5 -26.421875 48.28125 -26.796875 49.09375 -26.796875 C 49.84375 -26.796875 50.429688 -26.460938 50.859375 -25.796875 C 51.285156 -25.128906 51.5 -24.25 51.5 -23.15625 C 51.5 -21.03125 50.925781 -19.363281 49.78125 -18.15625 C 48.164062 -16.476562 46.273438 -15.046875 44.109375 -13.859375 C 41.953125 -12.679688 39.664062 -12.09375 37.25 -12.09375 C 34.195312 -12.09375 31.878906 -12.867188 30.296875 -14.421875 C 28.710938 -15.984375 27.921875 -18.085938 27.921875 -20.734375 C 27.921875 -21.597656 28.003906 -22.460938 28.171875 -23.328125 C 28.285156 -24.484375 28.34375 -25.265625 28.34375 -25.671875 C 28.34375 -26.585938 28.023438 -27.046875 27.390625 -27.046875 C 26.523438 -27.046875 25.382812 -26.082031 23.96875 -24.15625 C 22.5625 -22.226562 21.164062 -19.675781 19.78125 -16.5 C 18.40625 -13.332031 17.285156 -9.992188 16.421875 -6.484375 C 15.785156 -3.773438 15.050781 -1.941406 14.21875 -0.984375 C 13.382812 -0.0351562 12.070312 0.4375 10.28125 0.4375 Z M 10.28125 0.4375 "/></g></g></g><g fill="#ffbd59" fill-opacity="1"><g transform="translate(313.45029, 215.158199)"><g><path d="M 36.90625 -19.265625 C 37.65625 -19.265625 38.242188 -18.921875 38.671875 -18.234375 C 39.109375 -17.546875 39.328125 -16.597656 39.328125 -15.390625 C 39.328125 -13.078125 38.78125 -11.289062 37.6875 -10.03125 C 35.207031 -6.96875 32.507812 -4.457031 29.59375 -2.5 C 26.6875 -0.539062 23.390625 0.4375 19.703125 0.4375 C 14.628906 0.4375 10.867188 -1.863281 8.421875 -6.46875 C 5.972656 -11.082031 4.75 -17.050781 4.75 -24.375 C 4.75 -31.40625 5.65625 -39.410156 7.46875 -48.390625 C 9.289062 -57.378906 11.972656 -65.097656 15.515625 -71.546875 C 19.054688 -78.003906 23.273438 -81.234375 28.171875 -81.234375 C 30.941406 -81.234375 33.117188 -79.953125 34.703125 -77.390625 C 36.285156 -74.828125 37.078125 -71.15625 37.078125 -66.375 C 37.078125 -59.519531 35.175781 -51.566406 31.375 -42.515625 C 27.570312 -33.472656 22.414062 -24.515625 15.90625 -15.640625 C 16.300781 -13.273438 16.957031 -11.585938 17.875 -10.578125 C 18.800781 -9.578125 20.015625 -9.078125 21.515625 -9.078125 C 23.878906 -9.078125 25.953125 -9.753906 27.734375 -11.109375 C 29.523438 -12.460938 31.800781 -14.78125 34.5625 -18.0625 C 35.257812 -18.863281 36.039062 -19.265625 36.90625 -19.265625 Z M 26.265625 -72.6875 C 24.941406 -72.6875 23.441406 -70.289062 21.765625 -65.5 C 20.097656 -60.71875 18.628906 -54.785156 17.359375 -47.703125 C 16.097656 -40.617188 15.410156 -33.820312 15.296875 -27.3125 C 19.390625 -34.050781 22.644531 -40.804688 25.0625 -47.578125 C 27.476562 -54.347656 28.6875 -60.523438 28.6875 -66.109375 C 28.6875 -70.492188 27.878906 -72.6875 26.265625 -72.6875 Z M 26.265625 -72.6875 "/></g></g></g><g fill="#ffbd59" fill-opacity="1"><g transform="translate(149.294772, 51.152919)"><g><path d="M 13.644531 -12.667969 L 0.589844 -12.667969 L 0.589844 -12.539062 L 0.882812 -12.539062 C 2.15625 -12.539062 2.578125 -12.171875 2.578125 -10.441406 L 2.578125 -2.226562 C 2.578125 -0.496094 2.15625 -0.128906 0.882812 -0.128906 L 0.589844 -0.128906 L 0.589844 0 L 9.335938 0 L 9.335938 -0.128906 L 9.042969 -0.128906 C 7.21875 -0.128906 6.609375 -0.496094 6.609375 -2.226562 L 6.609375 -6.242188 C 8.542969 -6.1875 9.667969 -4.859375 9.960938 -2.871094 L 10.074219 -2.871094 L 10.074219 -9.925781 L 9.960938 -9.925781 C 9.667969 -7.84375 8.542969 -6.425781 6.609375 -6.371094 L 6.609375 -12.539062 L 6.980469 -12.539062 C 10.035156 -12.539062 13.183594 -10.238281 13.71875 -7.238281 L 13.828125 -7.238281 Z M 13.644531 -12.667969 "/></g></g></g><g fill="#ffbd59" fill-opacity="1"><g transform="translate(163.454986, 51.152919)"><g><path d="M 3.148438 -9.28125 C 4.273438 -9.28125 5.191406 -10.203125 5.191406 -11.34375 C 5.191406 -12.464844 4.273438 -13.386719 3.148438 -13.386719 C 2.007812 -13.386719 1.085938 -12.464844 1.085938 -11.34375 C 1.085938 -10.203125 2.007812 -9.28125 3.148438 -9.28125 Z M 6.167969 -0.128906 C 5.597656 -0.128906 5.175781 -0.351562 5.175781 -1.363281 L 5.175781 -8.914062 L 5.101562 -8.914062 C 4.199219 -8.011719 2.726562 -7.457031 0.257812 -7.382812 L 0.257812 -7.253906 C 1.179688 -7.292969 1.363281 -6.867188 1.363281 -5.691406 L 1.363281 -1.363281 C 1.363281 -0.351562 0.9375 -0.128906 0.367188 -0.128906 L 0.222656 -0.128906 L 0.222656 0 L 6.316406 0 L 6.316406 -0.128906 Z M 6.167969 -0.128906 "/></g></g></g><g fill="#ffbd59" fill-opacity="1"><g transform="translate(169.936644, 51.152919)"><g><path d="M 12.335938 -0.128906 C 11.765625 -0.128906 11.34375 -0.351562 11.34375 -1.363281 L 11.34375 -5.597656 C 11.34375 -7.789062 10.21875 -8.800781 8.378906 -8.800781 C 6.554688 -8.800781 5.46875 -8.046875 5.175781 -6.5 L 5.175781 -8.914062 L 5.101562 -8.914062 C 4.199219 -8.011719 2.726562 -7.457031 0.257812 -7.382812 L 0.257812 -7.253906 C 1.179688 -7.292969 1.363281 -6.867188 1.363281 -5.691406 L 1.363281 -1.363281 C 1.363281 -0.351562 0.9375 -0.128906 0.367188 -0.128906 L 0.222656 -0.128906 L 0.222656 0 L 6.132812 0 L 6.132812 -0.128906 L 5.984375 -0.128906 C 5.449219 -0.128906 5.175781 -0.351562 5.175781 -1.363281 L 5.175781 -5.542969 C 5.175781 -6.921875 5.890625 -8.195312 6.722656 -8.195312 C 7.347656 -8.195312 7.53125 -7.714844 7.53125 -6.777344 L 7.53125 -1.363281 C 7.53125 -0.351562 7.253906 -0.128906 6.722656 -0.128906 L 6.574219 -0.128906 L 6.574219 0 L 12.484375 0 L 12.484375 -0.128906 Z M 12.335938 -0.128906 "/></g></g></g><g fill="#ffbd59" fill-opacity="1"><g transform="translate(182.586927, 51.152919)"><g><path d="M 6.222656 0.0742188 C 4.730469 0.0742188 4.472656 -1.050781 4.472656 -4.089844 L 10.074219 -4.105469 C 10.074219 -7.640625 8.984375 -8.800781 5.746094 -8.800781 C 2.890625 -8.800781 0.515625 -7.511719 0.515625 -4.21875 C 0.515625 -0.996094 2.285156 0.292969 5.652344 0.292969 C 7.863281 0.292969 9.207031 -0.644531 9.796875 -2.15625 L 9.667969 -2.191406 C 9.28125 -1.125 8.101562 0.0742188 6.222656 0.0742188 Z M 5.707031 -8.65625 C 6.371094 -8.65625 6.554688 -7.550781 6.554688 -4.234375 L 4.472656 -4.234375 L 4.472656 -4.253906 C 4.472656 -7.550781 4.804688 -8.65625 5.707031 -8.65625 Z M 5.707031 -8.65625 "/></g></g></g><g fill="#ffbd59" fill-opacity="1"><g transform="translate(193.10121, 51.152919)"><g><path d="M 4.070312 0.164062 C 5.027344 0.164062 5.503906 -0.222656 5.503906 -0.882812 C 5.503906 -1.804688 4.859375 -2.136719 3.242188 -2.652344 C 1.511719 -3.242188 0.625 -4.234375 0.625 -6.039062 C 0.625 -7.882812 2.136719 -8.800781 4.308594 -8.800781 C 5.394531 -8.800781 5.949219 -8.359375 6.738281 -8.359375 C 7.050781 -8.359375 7.199219 -8.488281 7.292969 -8.726562 L 7.382812 -8.726562 L 7.605469 -5.433594 L 7.476562 -5.433594 C 6.792969 -7.253906 5.820312 -8.65625 4.328125 -8.65625 C 3.683594 -8.65625 3.257812 -8.230469 3.257812 -7.625 C 3.257812 -6.5 3.886719 -6.1875 5.191406 -5.726562 C 6.980469 -5.136719 8.082031 -4.328125 8.082031 -2.523438 C 8.082031 -0.480469 6.5 0.292969 4.070312 0.292969 C 2.890625 0.292969 2.320312 -0.183594 1.582031 -0.183594 C 1.253906 -0.183594 1.03125 0 0.957031 0.222656 L 0.867188 0.222656 L 0.644531 -3.09375 L 0.773438 -3.09375 C 1.878906 -0.609375 2.523438 0.164062 4.070312 0.164062 Z M 4.070312 0.164062 "/></g></g></g><g fill="#ffbd59" fill-opacity="1"><g transform="translate(201.77411, 51.152919)"><g><path d="M 7.714844 -3.128906 C 7.566406 -0.679688 6.59375 -0.148438 6.019531 -0.148438 C 5.449219 -0.148438 5.210938 -0.625 5.210938 -1.75 L 5.210938 -8.378906 L 7.457031 -8.378906 L 7.457031 -8.507812 L 5.210938 -8.507812 L 5.210938 -12.320312 L 5.101562 -12.320312 C 4.804688 -9.945312 3.222656 -9.335938 1.398438 -9.335938 L 1.398438 -8.507812 L 0.277344 -8.507812 L 0.277344 -8.378906 L 1.398438 -8.378906 L 1.398438 -3.039062 C 1.398438 -0.625 2.394531 0.292969 4.695312 0.292969 C 7.144531 0.292969 7.660156 -0.867188 7.84375 -3.113281 Z M 7.714844 -3.128906 "/></g></g></g><g fill="#ffbd59" fill-opacity="1"><g transform="translate(209.71046, 51.152919)"><g/></g></g><g fill="#ffbd59" fill-opacity="1"><g transform="translate(214.129776, 51.152919)"><g><path d="M 14.253906 1.066406 C 14.253906 2.15625 13.773438 2.523438 12.910156 2.523438 C 10.789062 2.523438 9.058594 0.9375 6.277344 0.9375 C 6.132812 0.9375 5.929688 0.957031 5.691406 0.996094 C 6.59375 0.738281 7.898438 0.460938 8.855469 0.277344 C 12.78125 0.0742188 15.265625 -1.859375 15.265625 -6.390625 C 15.265625 -10.902344 12.484375 -12.964844 8.140625 -12.964844 C 3.792969 -12.964844 1.011719 -10.902344 1.011719 -6.390625 C 1.011719 -1.65625 3.71875 0.238281 7.953125 0.292969 C 5.046875 0.828125 3.316406 1.492188 3.316406 3.019531 C 3.316406 3.886719 3.847656 4.363281 4.789062 4.363281 C 5.800781 4.363281 6.519531 3.886719 6.519531 3.058594 C 6.519531 1.582031 5.101562 1.953125 5.101562 1.417969 C 5.101562 1.253906 5.265625 1.105469 5.652344 1.105469 C 7.476562 1.105469 7.640625 5.375 11.378906 5.375 C 13 5.375 14.785156 4.546875 14.382812 1.066406 Z M 5.210938 -6.335938 C 5.210938 -10.828125 5.671875 -12.796875 8.140625 -12.796875 C 10.605469 -12.796875 11.066406 -10.828125 11.066406 -6.335938 C 11.066406 -1.546875 10.605469 0.128906 8.140625 0.128906 C 5.671875 0.128906 5.210938 -1.546875 5.210938 -6.335938 Z M 5.210938 -6.335938 "/></g></g></g><g fill="#ffbd59" fill-opacity="1"><g transform="translate(230.407576, 51.152919)"><g><path d="M 11.121094 -2.226562 L 11.121094 -8.914062 L 11.046875 -8.914062 C 10.21875 -8.140625 8.765625 -7.550781 6.390625 -7.550781 L 6.390625 -7.421875 C 7.164062 -7.457031 7.308594 -7.035156 7.308594 -5.855469 L 7.308594 -2.964844 C 7.308594 -1.582031 6.574219 -0.3125 5.761719 -0.3125 C 5.191406 -0.3125 5.027344 -0.792969 5.027344 -1.730469 L 5.027344 -8.914062 L 4.953125 -8.914062 C 4.050781 -8.011719 2.578125 -7.457031 0.109375 -7.382812 L 0.109375 -7.253906 C 1.03125 -7.292969 1.214844 -6.867188 1.214844 -5.691406 L 1.214844 -2.910156 C 1.214844 -0.71875 2.339844 0.292969 4.179688 0.292969 C 5.929688 0.292969 7.015625 -0.460938 7.308594 -2.007812 L 7.308594 0.238281 L 7.382812 0.238281 C 8.15625 -0.148438 9.558594 -0.535156 12.117188 -0.535156 L 12.117188 -0.664062 C 11.289062 -0.625 11.121094 -1.050781 11.121094 -2.226562 Z M 11.121094 -2.226562 "/></g></g></g><g fill="#ffbd59" fill-opacity="1"><g transform="translate(242.763237, 51.152919)"><g><path d="M 10.828125 -1.308594 C 10.734375 -0.792969 10.496094 -0.535156 10.144531 -0.535156 C 9.851562 -0.535156 9.742188 -0.792969 9.742188 -1.214844 L 9.742188 -5.046875 C 9.742188 -8.15625 8.066406 -8.800781 4.75 -8.800781 C 2.191406 -8.800781 0.996094 -7.566406 0.996094 -6.277344 C 0.996094 -5.523438 1.527344 -4.933594 2.578125 -4.933594 C 3.644531 -4.933594 4.53125 -5.433594 4.53125 -6.554688 C 4.53125 -8.011719 3.09375 -7.9375 3.09375 -8.285156 C 3.09375 -8.46875 3.480469 -8.671875 4.402344 -8.671875 C 5.597656 -8.671875 5.929688 -8.027344 5.929688 -6.1875 L 5.929688 -4.898438 L 4.472656 -4.675781 C 1.640625 -4.253906 0.480469 -3.445312 0.480469 -1.878906 C 0.480469 -0.589844 1.269531 0.222656 2.890625 0.222656 C 4.640625 0.222656 5.632812 -0.40625 5.949219 -1.988281 C 6.09375 -0.367188 6.851562 0.222656 8.414062 0.222656 C 10.054688 0.222656 10.808594 -0.277344 10.992188 -1.269531 Z M 4.769531 -0.589844 C 4.234375 -0.589844 4.125 -1.269531 4.125 -2.339844 C 4.125 -3.480469 4.328125 -4.492188 5.503906 -4.695312 L 5.929688 -4.769531 L 5.929688 -2.910156 C 5.929688 -1.675781 5.449219 -0.589844 4.769531 -0.589844 Z M 4.769531 -0.589844 "/></g></g></g><g fill="#ffbd59" fill-opacity="1"><g transform="translate(253.848348, 51.152919)"><g><path d="M 6.148438 -0.128906 C 5.578125 -0.128906 5.15625 -0.351562 5.15625 -1.363281 L 5.15625 -14.34375 L 5.082031 -14.34375 C 4.179688 -13.441406 2.707031 -12.890625 0.238281 -12.816406 L 0.238281 -12.6875 C 1.160156 -12.722656 1.34375 -12.300781 1.34375 -11.121094 L 1.34375 -1.363281 C 1.34375 -0.351562 0.921875 -0.128906 0.351562 -0.128906 L 0.203125 -0.128906 L 0.203125 0 L 6.296875 0 L 6.296875 -0.128906 Z M 6.148438 -0.128906 "/></g></g></g><g fill="#ffbd59" fill-opacity="1"><g transform="translate(260.330004, 51.152919)"><g><path d="M 3.148438 -9.28125 C 4.273438 -9.28125 5.191406 -10.203125 5.191406 -11.34375 C 5.191406 -12.464844 4.273438 -13.386719 3.148438 -13.386719 C 2.007812 -13.386719 1.085938 -12.464844 1.085938 -11.34375 C 1.085938 -10.203125 2.007812 -9.28125 3.148438 -9.28125 Z M 6.167969 -0.128906 C 5.597656 -0.128906 5.175781 -0.351562 5.175781 -1.363281 L 5.175781 -8.914062 L 5.101562 -8.914062 C 4.199219 -8.011719 2.726562 -7.457031 0.257812 -7.382812 L 0.257812 -7.253906 C 1.179688 -7.292969 1.363281 -6.867188 1.363281 -5.691406 L 1.363281 -1.363281 C 1.363281 -0.351562 0.9375 -0.128906 0.367188 -0.128906 L 0.222656 -0.128906 L 0.222656 0 L 6.316406 0 L 6.316406 -0.128906 Z M 6.167969 -0.128906 "/></g></g></g><g fill="#ffbd59" fill-opacity="1"><g transform="translate(266.81166, 51.152919)"><g><path d="M 7.714844 -3.128906 C 7.566406 -0.679688 6.59375 -0.148438 6.019531 -0.148438 C 5.449219 -0.148438 5.210938 -0.625 5.210938 -1.75 L 5.210938 -8.378906 L 7.457031 -8.378906 L 7.457031 -8.507812 L 5.210938 -8.507812 L 5.210938 -12.320312 L 5.101562 -12.320312 C 4.804688 -9.945312 3.222656 -9.335938 1.398438 -9.335938 L 1.398438 -8.507812 L 0.277344 -8.507812 L 0.277344 -8.378906 L 1.398438 -8.378906 L 1.398438 -3.039062 C 1.398438 -0.625 2.394531 0.292969 4.695312 0.292969 C 7.144531 0.292969 7.660156 -0.867188 7.84375 -3.113281 Z M 7.714844 -3.128906 "/></g></g></g><g fill="#ffbd59" fill-opacity="1"><g transform="translate(274.74801, 51.152919)"><g><path d="M 7.808594 -8.507812 L 7.808594 -8.378906 L 7.953125 -8.378906 C 9.152344 -8.378906 10.035156 -6.390625 8.929688 -3.609375 L 7.992188 -1.125 L 6.039062 -6.207031 C 5.339844 -8.011719 6.316406 -8.378906 7.089844 -8.378906 L 7.238281 -8.378906 L 7.238281 -8.507812 L -0.0195312 -8.507812 L -0.0195312 -8.378906 L 0.128906 -8.378906 C 0.773438 -8.378906 1.195312 -7.863281 1.511719 -7.050781 L 4.234375 0 L 7.585938 0 C 6.792969 2.042969 5.503906 2.835938 4.234375 3.113281 C 3.628906 3.242188 3.515625 3.113281 3.515625 2.945312 C 3.515625 2.558594 4.199219 2.355469 4.199219 1.417969 C 4.199219 0.496094 3.664062 -0.128906 2.613281 -0.128906 C 1.363281 -0.128906 0.773438 0.625 0.773438 1.582031 C 0.773438 2.523438 1.492188 3.371094 3.09375 3.371094 C 4.988281 3.371094 6.738281 2.558594 7.695312 0.0546875 L 7.714844 0 L 8.433594 0 L 8.066406 -0.9375 L 9.703125 -5.191406 C 10.589844 -7.625 11.492188 -8.378906 12.152344 -8.378906 L 12.246094 -8.378906 L 12.246094 -8.507812 Z M 7.808594 -8.507812 "/></g></g></g></svg>