<svg xmlns="http://www.w3.org/2000/svg" xmlns:xlink="http://www.w3.org/1999/xlink" width="600" zoomAndPan="magnify" viewBox="0 0 450 449.999984" height="600" preserveAspectRatio="xMidYMid meet" version="1.0"><path fill="#ffffff" d="M 213.398438 217.417969 C 213.398438 217.285156 213.527344 217.285156 213.527344 217.15625 C 201.003906 205.421875 196.917969 192.234375 207.992188 177.203125 L 224.339844 155.054688 C 225 154.132812 224.867188 152.945312 223.945312 152.285156 C 223.023438 151.625 221.703125 151.757812 221.042969 152.679688 L 181.488281 203.441406 C 181.09375 203.96875 180.304688 204.101562 179.777344 203.707031 C 179.25 203.3125 179.117188 202.519531 179.511719 201.992188 L 218.671875 148.988281 C 218.933594 148.59375 218.804688 148.066406 218.539062 147.800781 C 218.144531 147.539062 217.617188 147.539062 217.351562 147.933594 L 176.875 200.015625 C 176.480469 200.542969 175.6875 200.675781 175.160156 200.277344 C 174.632812 199.882812 174.5 199.089844 174.898438 198.5625 L 214.054688 145.5625 C 214.320312 145.164062 214.1875 144.636719 213.925781 144.375 C 213.527344 144.109375 213 144.109375 212.738281 144.507812 L 172.261719 196.453125 C 171.863281 196.980469 171.074219 197.113281 170.546875 196.71875 C 170.019531 196.324219 169.886719 195.53125 170.28125 195.003906 L 209.441406 142 C 209.707031 141.605469 209.574219 141.078125 209.308594 140.816406 C 208.914062 140.550781 208.386719 140.550781 208.125 140.945312 L 167.644531 192.894531 C 167.25 193.421875 166.460938 193.554688 165.933594 193.160156 C 165.40625 192.761719 165.273438 191.972656 165.667969 191.445312 L 204.828125 138.574219 C 205.089844 138.175781 204.960938 137.648438 204.695312 137.386719 C 204.300781 137.121094 203.773438 137.121094 203.507812 137.519531 L 163.558594 189.464844 C 163.164062 189.992188 162.371094 190.125 161.84375 189.730469 C 161.316406 189.335938 161.183594 188.542969 161.582031 188.015625 L 200.609375 135.144531 C 200.871094 134.75 200.738281 134.222656 200.476562 133.957031 C 200.082031 133.695312 199.554688 133.695312 199.289062 134.089844 L 158.945312 185.90625 C 158.546875 186.433594 157.757812 186.566406 157.230469 186.171875 C 156.703125 185.773438 156.570312 184.984375 156.964844 184.457031 L 195.992188 131.585938 C 196.257812 131.191406 196.125 130.664062 195.863281 130.398438 C 195.464844 130.136719 194.9375 130.136719 194.675781 130.53125 L 154.328125 182.347656 C 153.933594 182.875 153.140625 183.007812 152.613281 182.609375 C 152.085938 182.214844 151.957031 181.425781 152.351562 180.898438 L 191.378906 128.15625 C 191.640625 127.761719 191.511719 127.234375 191.246094 126.96875 C 190.851562 126.707031 190.324219 126.707031 190.058594 127.101562 L 149.714844 178.785156 C 149.320312 179.3125 148.527344 179.445312 148 179.050781 C 147.472656 178.65625 147.339844 177.863281 147.738281 177.335938 L 186.765625 124.597656 C 187.027344 124.203125 187.027344 123.675781 186.632812 123.410156 C 186.238281 123.148438 185.710938 123.148438 185.445312 123.542969 L 145.230469 175.226562 C 144.835938 175.753906 144.042969 175.886719 143.515625 175.492188 C 142.988281 175.09375 142.859375 174.304688 143.253906 173.777344 L 182.148438 121.039062 C 182.414062 120.640625 182.28125 120.113281 182.015625 119.851562 C 181.621094 119.585938 181.09375 119.585938 180.832031 119.984375 L 140.617188 171.667969 C 140.222656 172.195312 139.429688 172.328125 138.902344 171.929688 C 138.375 171.535156 138.242188 170.746094 138.640625 170.21875 L 177.535156 117.609375 C 177.796875 117.214844 177.667969 116.6875 177.402344 116.421875 C 177.007812 116.160156 176.480469 116.160156 176.214844 116.554688 L 136.003906 168.105469 C 135.605469 168.632812 134.816406 168.765625 134.289062 168.371094 C 133.761719 167.976562 133.628906 167.183594 134.023438 166.65625 L 172.917969 114.050781 C 173.183594 113.652344 173.050781 113.125 172.789062 112.863281 C 172.390625 112.597656 171.863281 112.597656 171.601562 112.996094 L 131.519531 164.546875 C 131.125 165.074219 130.332031 165.207031 129.804688 164.8125 C 129.277344 164.414062 129.144531 163.625 129.542969 163.097656 L 168.4375 110.488281 C 168.699219 110.09375 168.570312 109.566406 168.304688 109.304688 C 167.910156 109.039062 167.382812 109.039062 167.117188 109.433594 L 127.035156 160.988281 C 126.640625 161.515625 125.851562 161.648438 125.324219 161.25 C 124.796875 160.855469 124.664062 160.066406 125.058594 159.539062 L 163.820312 107.0625 C 164.085938 106.664062 163.953125 106.136719 163.691406 105.875 C 163.292969 105.609375 162.765625 105.609375 162.503906 106.007812 L 122.421875 157.425781 C 122.027344 157.953125 121.234375 158.085938 120.707031 157.691406 C 120.179688 157.296875 120.046875 156.503906 120.445312 155.976562 L 159.207031 103.5 C 159.472656 103.105469 159.472656 102.578125 159.074219 102.316406 C 158.679688 102.050781 158.152344 102.050781 157.890625 102.445312 L 117.808594 153.867188 C 117.410156 154.394531 116.621094 154.527344 116.09375 154.132812 C 115.566406 153.734375 115.433594 152.945312 115.828125 152.417969 L 154.59375 99.941406 C 154.855469 99.546875 154.855469 99.019531 154.460938 98.753906 C 154.066406 98.492188 153.539062 98.492188 153.273438 98.886719 L 113.324219 150.308594 C 112.929688 150.835938 112.136719 150.96875 111.609375 150.570312 C 111.082031 150.175781 110.949219 149.386719 111.347656 148.859375 L 150.109375 96.511719 C 150.375 96.117188 150.242188 95.589844 149.976562 95.328125 C 149.582031 95.0625 149.054688 95.0625 148.792969 95.457031 L 108.839844 146.746094 C 108.445312 147.273438 107.65625 147.40625 107.128906 147.011719 C 106.601562 146.617188 106.46875 145.824219 106.863281 145.296875 L 145.496094 92.953125 C 145.757812 92.558594 145.757812 92.03125 145.363281 91.765625 C 144.96875 91.503906 144.441406 91.503906 144.175781 91.898438 L 104.226562 143.1875 C 103.832031 143.714844 103.039062 143.847656 102.511719 143.453125 C 101.984375 143.054688 101.851562 142.265625 102.25 141.738281 L 140.878906 89.394531 C 141.144531 89 141.011719 88.472656 140.75 88.207031 C 140.351562 87.941406 139.824219 87.941406 139.5625 88.339844 L 99.613281 139.628906 C 99.214844 140.15625 98.425781 140.289062 97.898438 139.890625 C 97.371094 139.496094 97.238281 138.707031 97.632812 138.175781 L 136.265625 85.964844 C 136.53125 85.570312 136.398438 85.042969 136.132812 84.777344 C 135.738281 84.515625 135.210938 84.515625 134.949219 84.910156 L 95.128906 136.066406 C 94.734375 136.59375 93.941406 136.726562 93.414062 136.332031 C 92.886719 135.9375 92.753906 135.144531 93.152344 134.617188 L 131.78125 82.40625 C 132.046875 82.011719 131.914062 81.484375 131.652344 81.21875 C 131.253906 80.957031 130.726562 80.957031 130.464844 81.351562 L 91.042969 133.300781 C 90.644531 133.828125 89.855469 133.957031 89.328125 133.5625 C 88.800781 133.167969 88.667969 132.375 89.0625 131.847656 L 127.5625 79.769531 C 127.828125 79.371094 127.828125 78.84375 127.433594 78.582031 C 127.035156 78.316406 126.507812 78.316406 126.246094 78.714844 L 86.425781 129.871094 C 86.03125 130.398438 85.242188 130.53125 84.710938 130.136719 C 84.183594 129.738281 84.054688 128.949219 84.449219 128.421875 L 122.949219 76.339844 C 123.210938 75.945312 123.082031 75.417969 122.816406 75.152344 C 122.421875 74.890625 121.894531 74.890625 121.628906 75.285156 L 81.8125 126.3125 C 81.417969 126.839844 80.625 126.96875 80.097656 126.574219 C 79.570312 126.179688 79.4375 125.386719 79.835938 124.859375 L 118.335938 72.78125 C 118.597656 72.386719 118.464844 71.859375 118.203125 71.59375 C 117.808594 71.332031 117.28125 71.332031 117.015625 71.726562 L 77.328125 122.75 C 76.933594 123.277344 76.144531 123.410156 75.617188 123.015625 C 75.089844 122.621094 74.957031 121.828125 75.351562 121.300781 L 113.71875 69.351562 C 113.984375 68.957031 113.851562 68.429688 113.585938 68.164062 C 113.191406 67.902344 112.664062 67.902344 112.402344 68.296875 L 72.714844 119.324219 C 72.320312 119.851562 71.527344 119.984375 71 119.585938 C 70.472656 119.191406 70.339844 118.398438 70.738281 117.871094 L 109.105469 65.925781 C 109.367188 65.527344 109.238281 65 108.972656 64.738281 C 108.578125 64.472656 108.050781 64.472656 107.785156 64.871094 L 68.101562 115.761719 C 67.703125 116.289062 66.914062 116.421875 66.386719 116.027344 C 65.859375 115.632812 65.726562 114.839844 66.121094 114.3125 L 104.488281 62.363281 C 104.753906 61.96875 104.621094 61.441406 104.359375 61.179688 C 103.960938 60.914062 103.433594 60.914062 103.171875 61.308594 L 63.617188 112.203125 C 63.222656 112.730469 62.429688 112.863281 61.902344 112.46875 C 61.375 112.070312 61.242188 111.28125 61.640625 110.753906 L 100.007812 58.9375 C 100.269531 58.539062 100.269531 58.011719 99.875 57.75 C 99.480469 57.484375 98.953125 57.484375 98.6875 57.882812 L 59.132812 108.773438 C 58.738281 109.300781 57.949219 109.433594 57.421875 109.039062 C 56.894531 108.644531 56.761719 107.851562 57.15625 107.324219 L 95.394531 55.507812 C 95.65625 55.113281 95.523438 54.585938 95.261719 54.320312 C 94.863281 54.058594 94.335938 54.058594 94.074219 54.453125 L 54.519531 105.214844 C 54.125 105.742188 53.332031 105.875 52.804688 105.480469 C 52.277344 105.082031 52.144531 104.292969 52.542969 103.765625 L 90.777344 51.949219 C 91.042969 51.554688 90.910156 51.027344 90.644531 50.761719 C 90.25 50.5 89.722656 50.5 89.460938 50.894531 L 49.90625 101.65625 C 49.507812 102.183594 48.71875 102.316406 48.191406 101.917969 C 47.664062 101.523438 47.53125 100.734375 47.925781 100.207031 L 86.164062 48.519531 C 86.425781 48.125 86.296875 47.597656 86.03125 47.332031 C 85.769531 47.070312 85.109375 47.070312 84.84375 47.464844 L 45.421875 98.226562 C 45.027344 98.753906 44.234375 98.886719 43.707031 98.492188 C 43.179688 98.09375 43.046875 97.304688 43.445312 96.777344 L 81.679688 45.09375 C 81.945312 44.695312 81.8125 44.167969 81.546875 43.90625 C 81.152344 43.640625 80.625 43.640625 80.363281 44.039062 L 40.9375 94.667969 C 40.542969 95.195312 39.753906 95.328125 39.226562 94.929688 C 38.699219 94.535156 38.566406 93.746094 38.960938 93.21875 L 77.066406 41.53125 C 77.328125 41.136719 77.199219 40.609375 76.933594 40.347656 C 76.539062 40.082031 76.011719 40.082031 75.746094 40.476562 L 36.71875 91.238281 C 36.324219 91.765625 35.535156 91.898438 35.007812 91.503906 C 34.476562 91.109375 34.347656 90.316406 34.742188 89.789062 L 72.847656 38.234375 C 73.109375 37.839844 72.976562 37.3125 72.714844 37.050781 C 72.449219 36.785156 71.792969 36.785156 71.527344 37.179688 L 32.105469 87.8125 C 31.710938 88.339844 30.917969 88.46875 30.390625 88.074219 C 29.863281 87.679688 29.730469 86.886719 30.128906 86.359375 L 68.230469 34.808594 C 68.496094 34.414062 68.496094 33.886719 68.101562 33.621094 C 67.703125 33.359375 67.175781 33.359375 66.914062 33.753906 L 27.621094 84.25 C 27.226562 84.777344 26.4375 84.910156 25.910156 84.515625 C 25.382812 84.121094 25.25 83.328125 25.644531 82.800781 L 63.75 31.25 C 64.011719 30.851562 63.878906 30.324219 63.617188 30.0625 C 63.222656 29.796875 62.695312 29.796875 62.429688 30.191406 L 22.347656 81.613281 L 21.292969 80.824219 L 59.660156 29.402344 C 60.320312 28.609375 60.058594 27.425781 59.265625 26.765625 C 58.476562 26.105469 57.289062 26.238281 56.628906 27.027344 L 14.4375 75.417969 C 10.085938 81.21875 11.273438 89.394531 17.074219 93.613281 L 194.542969 230.074219 Z M 213.398438 217.417969 " fill-opacity="1" fill-rule="nonzero"/><path fill="#ffffff" d="M 384.007812 367.988281 L 262.839844 260.535156 L 256.511719 277.9375 L 380.316406 373.132812 C 381.898438 374.320312 384.140625 373.792969 385.066406 371.945312 C 385.59375 370.628906 385.195312 368.914062 384.007812 367.988281 Z M 384.007812 367.988281 " fill-opacity="1" fill-rule="nonzero"/><path fill="#ffffff" d="M 118.070312 347.949219 C 122.554688 351.378906 128.222656 353.089844 133.890625 346.5 C 137.585938 342.148438 137.453125 338.851562 136.660156 336.742188 C 137.980469 335.292969 139.296875 333.710938 140.484375 332.128906 C 143.648438 327.511719 145.757812 322.632812 146.8125 317.625 C 148.265625 311.03125 149.976562 304.703125 152.21875 298.902344 C 167.117188 277.671875 190.984375 259.347656 213 261.191406 C 214.582031 261.324219 216.167969 261.457031 217.75 261.457031 C 213.398438 247.214844 213 236.40625 214.847656 227.175781 L 161.976562 262.511719 C 148.921875 271.214844 132.707031 273.191406 117.410156 269.101562 C 117.28125 269.101562 117.148438 268.972656 117.015625 268.972656 C 100.140625 264.753906 82.074219 271.742188 72.714844 286.375 C 58.078125 309.316406 69.15625 339.773438 95.261719 347.683594 C 102.777344 350.191406 110.6875 350.058594 118.070312 347.949219 Z M 83.261719 297.582031 C 89.460938 284.53125 105.019531 278.859375 118.070312 285.058594 C 131.125 291.253906 136.792969 306.8125 130.597656 319.863281 C 124.398438 332.917969 108.839844 338.585938 95.789062 332.390625 C 82.734375 326.195312 77.066406 310.636719 83.261719 297.582031 Z M 83.261719 297.582031 " fill-opacity="1" fill-rule="nonzero"/><path fill="#ffffff" d="M 435.828125 79.769531 L 288.550781 177.996094 L 264.289062 244.578125 C 268.90625 240.230469 273.386719 235.351562 278.53125 230.472656 C 295.671875 214.648438 312.679688 198.828125 329.820312 183.007812 C 365.550781 149.910156 401.28125 116.949219 436.882812 83.855469 C 437.277344 83.460938 437.804688 83.066406 438.199219 82.667969 C 439.914062 81.085938 437.804688 78.449219 435.828125 79.769531 Z M 435.828125 79.769531 " fill-opacity="1" fill-rule="nonzero"/><path fill="#ffffff" d="M 343.269531 1.976562 C 343.003906 2.503906 342.742188 3.03125 342.476562 3.558594 C 318.875 46.015625 295.277344 88.601562 271.542969 131.058594 C 260.203125 151.363281 248.863281 171.800781 237.65625 192.105469 C 225.394531 213.992188 211.15625 226.515625 223.417969 263.171875 C 230.40625 284.003906 218.277344 311.558594 201.265625 331.074219 C 196.125 334.632812 190.324219 337.796875 184.257812 340.828125 C 179.644531 343.070312 175.425781 346.367188 171.734375 350.453125 C 160 363.640625 158.285156 382.890625 167.25 398.050781 C 171.734375 405.566406 178.0625 411.105469 185.183594 414.402344 C 193.75 418.355469 200.738281 424.683594 205.488281 432.859375 C 209.441406 439.714844 215.242188 446.308594 223.417969 448.550781 C 228.824219 450 238.054688 438.527344 231.722656 434.046875 C 230.273438 432.992188 228.429688 431.671875 226.449219 430.222656 C 219.726562 425.34375 219.726562 415.324219 226.449219 410.445312 C 228.429688 408.996094 230.40625 407.28125 232.121094 405.433594 C 244.117188 392.910156 246.625 373.660156 238.582031 358.234375 C 238.449219 358.101562 238.449219 357.96875 238.316406 357.835938 C 230.800781 343.992188 228.824219 327.777344 234.230469 313.007812 L 346.828125 3.691406 C 347.621094 1.449219 344.453125 0 343.269531 1.976562 Z M 222.757812 361.003906 C 231.855469 372.210938 230.011719 388.691406 218.804688 397.789062 C 207.597656 406.886719 191.113281 405.039062 182.015625 393.832031 C 172.917969 382.625 174.765625 366.144531 185.972656 357.046875 C 197.179688 347.949219 213.660156 349.792969 222.757812 361.003906 Z M 243.589844 241.546875 C 241.085938 244.449219 236.734375 244.84375 233.832031 242.339844 C 230.933594 239.832031 230.539062 235.480469 233.042969 232.582031 C 235.546875 229.679688 239.898438 229.285156 242.800781 231.789062 C 245.570312 234.296875 245.964844 238.644531 243.589844 241.546875 Z M 243.589844 241.546875 " fill-opacity="1" fill-rule="nonzero"/></svg>